<?xml version="1.0" encoding="utf-8" standalone="no"?>
<!DOCTYPE svg PUBLIC "-//W3C//DTD SVG 1.1//EN"
  "http://www.w3.org/Graphics/SVG/1.1/DTD/svg11.dtd">
<svg xmlns:xlink="http://www.w3.org/1999/xlink" width="696.994134pt" height="347.882344pt" viewBox="0 0 696.994134 347.882344" xmlns="http://www.w3.org/2000/svg" version="1.1">
 <metadata>
  <rdf:RDF xmlns:dc="http://purl.org/dc/elements/1.1/" xmlns:cc="http://creativecommons.org/ns#" xmlns:rdf="http://www.w3.org/1999/02/22-rdf-syntax-ns#">
   <cc:Work>
    <dc:type rdf:resource="http://purl.org/dc/dcmitype/StillImage"/>
    <dc:date>2026-07-05T19:43:31.013048</dc:date>
    <dc:format>image/svg+xml</dc:format>
    <dc:creator>
     <cc:Agent>
      <dc:title>Matplotlib v3.11.0, https://matplotlib.org/</dc:title>
     </cc:Agent>
    </dc:creator>
   </cc:Work>
  </rdf:RDF>
 </metadata>
 <defs>
  <style type="text/css">*{stroke-linejoin: round; stroke-linecap: butt}</style>
 </defs>
 <g id="figure_1">
  <g id="patch_1">
   <path d="M 0 347.882344 
L 696.994134 347.882344 
L 696.994134 -0 
L 0 -0 
z
" style="fill: #ffffff"/>
  </g>
  <g id="axes_1">
   <g id="patch_2">
    <path d="M 53.389219 305.349844 
L 347.378906 305.349844 
L 347.378906 11.360156 
L 53.389219 11.360156 
z
" style="fill: #ffffff"/>
   </g>
   <g id="matplotlib.axis_1">
    <g id="xtick_1">
     <g id="line2d_1">
      <path d="M 53.389219 305.349844 
L 53.389219 11.360156 
" clip-path="url(#pcdf33848a8)" style="fill: none; stroke: #cccccc; stroke-linecap: round"/>
     </g>
     <g id="text_1">
      <!-- −1.5 -->
      <g style="fill: #262626" transform="translate(42.505781 323.170156) scale(0.12 -0.12)">
       <defs>
        <path id="TimesNewRomanPSMT-ed" d="M 3484 2000 
L 116 2000 
L 116 2256 
L 3484 2256 
L 3484 2000 
z
" transform="scale(0.015625)"/>
        <path id="TimesNewRomanPSMT-14" d="M 750 3822 
L 1781 4325 
L 1884 4325 
L 1884 747 
Q 1884 391 1914 303 
Q 1944 216 2037 169 
Q 2131 122 2419 116 
L 2419 0 
L 825 0 
L 825 116 
Q 1125 122 1212 167 
Q 1300 213 1334 289 
Q 1369 366 1369 747 
L 1369 3034 
Q 1369 3497 1338 3628 
Q 1316 3728 1258 3775 
Q 1200 3822 1119 3822 
Q 1003 3822 797 3725 
L 750 3822 
z
" transform="scale(0.015625)"/>
        <path id="TimesNewRomanPSMT-11" d="M 800 606 
Q 947 606 1047 504 
Q 1147 403 1147 259 
Q 1147 116 1045 14 
Q 944 -88 800 -88 
Q 656 -88 554 14 
Q 453 116 453 259 
Q 453 406 554 506 
Q 656 606 800 606 
z
" transform="scale(0.015625)"/>
        <path id="TimesNewRomanPSMT-18" d="M 2778 4238 
L 2534 3706 
L 1259 3706 
L 981 3138 
Q 1809 3016 2294 2522 
Q 2709 2097 2709 1522 
Q 2709 1188 2573 903 
Q 2438 619 2231 419 
Q 2025 219 1772 97 
Q 1413 -75 1034 -75 
Q 653 -75 479 54 
Q 306 184 306 341 
Q 306 428 378 495 
Q 450 563 559 563 
Q 641 563 702 538 
Q 763 513 909 409 
Q 1144 247 1384 247 
Q 1750 247 2026 523 
Q 2303 800 2303 1197 
Q 2303 1581 2056 1914 
Q 1809 2247 1375 2428 
Q 1034 2569 447 2591 
L 1259 4238 
L 2778 4238 
z
" transform="scale(0.015625)"/>
       </defs>
       <use xlink:href="#TimesNewRomanPSMT-ed"/>
       <use xlink:href="#TimesNewRomanPSMT-14" transform="translate(56.390625 0)"/>
       <use xlink:href="#TimesNewRomanPSMT-11" transform="translate(106.390625 0)"/>
       <use xlink:href="#TimesNewRomanPSMT-18" transform="translate(131.390625 0)"/>
      </g>
     </g>
    </g>
    <g id="xtick_2">
     <g id="line2d_2">
      <path d="M 102.3875 305.349844 
L 102.3875 11.360156 
" clip-path="url(#pcdf33848a8)" style="fill: none; stroke: #cccccc; stroke-linecap: round"/>
     </g>
     <g id="text_2">
      <!-- −1.0 -->
      <g style="fill: #262626" transform="translate(91.504062 323.170156) scale(0.12 -0.12)">
       <defs>
        <path id="TimesNewRomanPSMT-13" d="M 231 2094 
Q 231 2819 450 3342 
Q 669 3866 1031 4122 
Q 1313 4325 1613 4325 
Q 2100 4325 2488 3828 
Q 2972 3213 2972 2159 
Q 2972 1422 2759 906 
Q 2547 391 2217 158 
Q 1888 -75 1581 -75 
Q 975 -75 572 641 
Q 231 1244 231 2094 
z
M 844 2016 
Q 844 1141 1059 588 
Q 1238 122 1591 122 
Q 1759 122 1940 273 
Q 2122 425 2216 781 
Q 2359 1319 2359 2297 
Q 2359 3022 2209 3506 
Q 2097 3866 1919 4016 
Q 1791 4119 1609 4119 
Q 1397 4119 1231 3928 
Q 1006 3669 925 3112 
Q 844 2556 844 2016 
z
" transform="scale(0.015625)"/>
       </defs>
       <use xlink:href="#TimesNewRomanPSMT-ed"/>
       <use xlink:href="#TimesNewRomanPSMT-14" transform="translate(56.390625 0)"/>
       <use xlink:href="#TimesNewRomanPSMT-11" transform="translate(106.390625 0)"/>
       <use xlink:href="#TimesNewRomanPSMT-13" transform="translate(131.390625 0)"/>
      </g>
     </g>
    </g>
    <g id="xtick_3">
     <g id="line2d_3">
      <path d="M 151.385781 305.349844 
L 151.385781 11.360156 
" clip-path="url(#pcdf33848a8)" style="fill: none; stroke: #cccccc; stroke-linecap: round"/>
     </g>
     <g id="text_3">
      <!-- −0.5 -->
      <g style="fill: #262626" transform="translate(140.502344 323.170156) scale(0.12 -0.12)">
       <use xlink:href="#TimesNewRomanPSMT-ed"/>
       <use xlink:href="#TimesNewRomanPSMT-13" transform="translate(56.390625 0)"/>
       <use xlink:href="#TimesNewRomanPSMT-11" transform="translate(106.390625 0)"/>
       <use xlink:href="#TimesNewRomanPSMT-18" transform="translate(131.390625 0)"/>
      </g>
     </g>
    </g>
    <g id="xtick_4">
     <g id="line2d_4">
      <path d="M 200.384062 305.349844 
L 200.384062 11.360156 
" clip-path="url(#pcdf33848a8)" style="fill: none; stroke: #cccccc; stroke-linecap: round"/>
     </g>
     <g id="text_4">
      <!-- 0.0 -->
      <g style="fill: #262626" transform="translate(192.884062 323.170156) scale(0.12 -0.12)">
       <use xlink:href="#TimesNewRomanPSMT-13"/>
       <use xlink:href="#TimesNewRomanPSMT-11" transform="translate(50 0)"/>
       <use xlink:href="#TimesNewRomanPSMT-13" transform="translate(75 0)"/>
      </g>
     </g>
    </g>
    <g id="xtick_5">
     <g id="line2d_5">
      <path d="M 249.382344 305.349844 
L 249.382344 11.360156 
" clip-path="url(#pcdf33848a8)" style="fill: none; stroke: #cccccc; stroke-linecap: round"/>
     </g>
     <g id="text_5">
      <!-- 0.5 -->
      <g style="fill: #262626" transform="translate(241.882344 323.170156) scale(0.12 -0.12)">
       <use xlink:href="#TimesNewRomanPSMT-13"/>
       <use xlink:href="#TimesNewRomanPSMT-11" transform="translate(50 0)"/>
       <use xlink:href="#TimesNewRomanPSMT-18" transform="translate(75 0)"/>
      </g>
     </g>
    </g>
    <g id="xtick_6">
     <g id="line2d_6">
      <path d="M 298.380625 305.349844 
L 298.380625 11.360156 
" clip-path="url(#pcdf33848a8)" style="fill: none; stroke: #cccccc; stroke-linecap: round"/>
     </g>
     <g id="text_6">
      <!-- 1.0 -->
      <g style="fill: #262626" transform="translate(290.880625 323.170156) scale(0.12 -0.12)">
       <use xlink:href="#TimesNewRomanPSMT-14"/>
       <use xlink:href="#TimesNewRomanPSMT-11" transform="translate(50 0)"/>
       <use xlink:href="#TimesNewRomanPSMT-13" transform="translate(75 0)"/>
      </g>
     </g>
    </g>
    <g id="xtick_7">
     <g id="line2d_7">
      <path d="M 347.378906 305.349844 
L 347.378906 11.360156 
" clip-path="url(#pcdf33848a8)" style="fill: none; stroke: #cccccc; stroke-linecap: round"/>
     </g>
     <g id="text_7">
      <!-- 1.5 -->
      <g style="fill: #262626" transform="translate(339.878906 323.170156) scale(0.12 -0.12)">
       <use xlink:href="#TimesNewRomanPSMT-14"/>
       <use xlink:href="#TimesNewRomanPSMT-11" transform="translate(50 0)"/>
       <use xlink:href="#TimesNewRomanPSMT-18" transform="translate(75 0)"/>
      </g>
     </g>
    </g>
    <g id="text_8">
     <!-- Posição X (m) -->
     <g style="fill: #262626" transform="translate(165.722812 338.0925) scale(0.12 -0.12)">
      <defs>
       <path id="TimesNewRomanPSMT-33" d="M 1313 1984 
L 1313 750 
Q 1313 350 1400 253 
Q 1519 116 1759 116 
L 1922 116 
L 1922 0 
L 106 0 
L 106 116 
L 266 116 
Q 534 116 650 291 
Q 713 388 713 750 
L 713 3488 
Q 713 3888 628 3984 
Q 506 4122 266 4122 
L 106 4122 
L 106 4238 
L 1659 4238 
Q 2228 4238 2556 4120 
Q 2884 4003 3109 3725 
Q 3334 3447 3334 3066 
Q 3334 2547 2992 2222 
Q 2650 1897 2025 1897 
Q 1872 1897 1694 1919 
Q 1516 1941 1313 1984 
z
M 1313 2163 
Q 1478 2131 1606 2115 
Q 1734 2100 1825 2100 
Q 2150 2100 2386 2351 
Q 2622 2603 2622 3003 
Q 2622 3278 2509 3514 
Q 2397 3750 2190 3867 
Q 1984 3984 1722 3984 
Q 1563 3984 1313 3925 
L 1313 2163 
z
" transform="scale(0.015625)"/>
       <path id="TimesNewRomanPSMT-52" d="M 1600 2947 
Q 2250 2947 2644 2453 
Q 2978 2031 2978 1484 
Q 2978 1100 2793 706 
Q 2609 313 2286 112 
Q 1963 -88 1566 -88 
Q 919 -88 538 428 
Q 216 863 216 1403 
Q 216 1797 411 2186 
Q 606 2575 925 2761 
Q 1244 2947 1600 2947 
z
M 1503 2744 
Q 1338 2744 1170 2645 
Q 1003 2547 900 2300 
Q 797 2053 797 1666 
Q 797 1041 1045 587 
Q 1294 134 1700 134 
Q 2003 134 2200 384 
Q 2397 634 2397 1244 
Q 2397 2006 2069 2444 
Q 1847 2744 1503 2744 
z
" transform="scale(0.015625)"/>
       <path id="TimesNewRomanPSMT-56" d="M 2050 2947 
L 2050 1972 
L 1947 1972 
Q 1828 2431 1642 2597 
Q 1456 2763 1169 2763 
Q 950 2763 815 2647 
Q 681 2531 681 2391 
Q 681 2216 781 2091 
Q 878 1963 1175 1819 
L 1631 1597 
Q 2266 1288 2266 781 
Q 2266 391 1970 151 
Q 1675 -88 1309 -88 
Q 1047 -88 709 6 
Q 606 38 541 38 
Q 469 38 428 -44 
L 325 -44 
L 325 978 
L 428 978 
Q 516 541 762 319 
Q 1009 97 1316 97 
Q 1531 97 1667 223 
Q 1803 350 1803 528 
Q 1803 744 1651 891 
Q 1500 1038 1047 1263 
Q 594 1488 453 1669 
Q 313 1847 313 2119 
Q 313 2472 555 2709 
Q 797 2947 1181 2947 
Q 1350 2947 1591 2875 
Q 1750 2828 1803 2828 
Q 1853 2828 1881 2850 
Q 1909 2872 1947 2947 
L 2050 2947 
z
" transform="scale(0.015625)"/>
       <path id="TimesNewRomanPSMT-4c" d="M 928 4444 
Q 1059 4444 1151 4351 
Q 1244 4259 1244 4128 
Q 1244 3997 1151 3903 
Q 1059 3809 928 3809 
Q 797 3809 703 3903 
Q 609 3997 609 4128 
Q 609 4259 701 4351 
Q 794 4444 928 4444 
z
M 1188 2947 
L 1188 647 
Q 1188 378 1227 289 
Q 1266 200 1342 156 
Q 1419 113 1622 113 
L 1622 0 
L 231 0 
L 231 113 
Q 441 113 512 153 
Q 584 194 626 287 
Q 669 381 669 647 
L 669 1750 
Q 669 2216 641 2353 
Q 619 2453 572 2492 
Q 525 2531 444 2531 
Q 356 2531 231 2484 
L 188 2597 
L 1050 2947 
L 1188 2947 
z
" transform="scale(0.015625)"/>
       <path id="TimesNewRomanPSMT-6f" d="M 2631 1088 
Q 2516 522 2178 217 
Q 1841 -88 1431 -88 
Q 944 -88 581 321 
Q 219 731 219 1428 
Q 219 2103 620 2525 
Q 1022 2947 1584 2947 
Q 2006 2947 2278 2723 
Q 2550 2500 2550 2259 
Q 2550 2141 2473 2067 
Q 2397 1994 2259 1994 
Q 2075 1994 1981 2113 
Q 1928 2178 1911 2362 
Q 1894 2547 1784 2644 
Q 1675 2738 1481 2738 
Q 1169 2738 978 2506 
Q 725 2200 725 1697 
Q 725 1184 976 792 
Q 1228 400 1656 400 
Q 1963 400 2206 609 
Q 2378 753 2541 1131 
L 2631 1088 
z
M 1469 50 
L 1657 50 
L 1500 -197 
Q 1697 -247 1794 -365 
Q 1891 -484 1891 -653 
Q 1891 -878 1703 -1048 
Q 1516 -1219 1219 -1219 
Q 1104 -1219 925 -1197 
L 925 -1063 
Q 1013 -1075 1075 -1075 
Q 1235 -1075 1344 -970 
Q 1454 -866 1454 -731 
Q 1454 -638 1382 -569 
Q 1310 -500 1204 -500 
Q 1172 -500 1122 -506 
L 1469 50 
z
" transform="scale(0.015625)"/>
       <path id="TimesNewRomanPSMT-6d" d="M 1822 413 
Q 1381 72 1269 19 
Q 1100 -59 909 -59 
Q 613 -59 420 144 
Q 228 347 228 678 
Q 228 888 322 1041 
Q 450 1253 767 1440 
Q 1084 1628 1822 1897 
L 1822 2009 
Q 1822 2438 1686 2597 
Q 1550 2756 1291 2756 
Q 1094 2756 978 2650 
Q 859 2544 859 2406 
L 866 2225 
Q 866 2081 792 2003 
Q 719 1925 600 1925 
Q 484 1925 411 2006 
Q 338 2088 338 2228 
Q 338 2497 613 2722 
Q 888 2947 1384 2947 
Q 1766 2947 2009 2819 
Q 2194 2722 2281 2516 
Q 2338 2381 2338 1966 
L 2338 994 
Q 2338 584 2353 492 
Q 2369 400 2405 369 
Q 2441 338 2488 338 
Q 2538 338 2575 359 
Q 2641 400 2828 588 
L 2828 413 
Q 2478 -56 2159 -56 
Q 2006 -56 1915 50 
Q 1825 156 1822 413 
z
M 1822 616 
L 1822 1706 
Q 1350 1519 1213 1441 
Q 966 1303 859 1153 
Q 753 1003 753 825 
Q 753 600 887 451 
Q 1022 303 1197 303 
Q 1434 303 1822 616 
z
M 535 3428 
L 435 3428 
Q 447 3856 613 4047 
Q 779 4238 1022 4238 
Q 1150 4238 1257 4197 
Q 1397 4144 1655 3973 
Q 1913 3803 2038 3803 
Q 2138 3803 2214 3887 
Q 2291 3972 2335 4238 
L 2432 4238 
Q 2435 3947 2355 3776 
Q 2275 3606 2130 3511 
Q 1985 3416 1838 3416 
Q 1591 3416 1225 3666 
Q 1029 3800 960 3828 
Q 891 3856 825 3856 
Q 697 3856 622 3744 
Q 588 3691 535 3428 
z
" transform="scale(0.015625)"/>
       <path id="TimesNewRomanPSMT-3" transform="scale(0.015625)"/>
       <path id="TimesNewRomanPSMT-3b" d="M 2613 2347 
L 3522 991 
Q 3900 428 4083 279 
Q 4266 131 4547 116 
L 4547 0 
L 2728 0 
L 2728 116 
Q 2909 119 2997 153 
Q 3063 181 3105 239 
Q 3147 297 3147 356 
Q 3147 428 3119 500 
Q 3097 553 2947 775 
L 2228 1863 
L 1341 725 
Q 1200 544 1172 483 
Q 1144 422 1144 356 
Q 1144 256 1228 190 
Q 1313 125 1550 116 
L 1550 0 
L 47 0 
L 47 116 
Q 206 131 322 181 
Q 516 263 691 400 
Q 866 538 1091 822 
L 2091 2084 
L 1256 3306 
Q 916 3803 678 3958 
Q 441 4113 131 4122 
L 131 4238 
L 2091 4238 
L 2091 4122 
Q 1841 4113 1748 4041 
Q 1656 3969 1656 3881 
Q 1656 3766 1806 3544 
L 2456 2572 
L 3209 3525 
Q 3341 3694 3370 3756 
Q 3400 3819 3400 3884 
Q 3400 3950 3363 4000 
Q 3316 4066 3244 4092 
Q 3172 4119 2947 4122 
L 2947 4238 
L 4450 4238 
L 4450 4122 
Q 4272 4113 4159 4066 
Q 3991 3994 3850 3872 
Q 3709 3750 3453 3422 
L 2613 2347 
z
" transform="scale(0.015625)"/>
       <path id="TimesNewRomanPSMT-b" d="M 1988 -1253 
L 1988 -1369 
Q 1516 -1131 1200 -813 
Q 750 -359 506 256 
Q 263 872 263 1534 
Q 263 2503 741 3301 
Q 1219 4100 1988 4444 
L 1988 4313 
Q 1603 4100 1356 3731 
Q 1109 3363 987 2797 
Q 866 2231 866 1616 
Q 866 947 969 400 
Q 1050 -31 1165 -292 
Q 1281 -553 1476 -793 
Q 1672 -1034 1988 -1253 
z
" transform="scale(0.015625)"/>
       <path id="TimesNewRomanPSMT-50" d="M 1050 2338 
Q 1363 2650 1419 2697 
Q 1559 2816 1721 2881 
Q 1884 2947 2044 2947 
Q 2313 2947 2506 2790 
Q 2700 2634 2766 2338 
Q 3088 2713 3309 2830 
Q 3531 2947 3766 2947 
Q 3994 2947 4170 2830 
Q 4347 2713 4450 2447 
Q 4519 2266 4519 1878 
L 4519 647 
Q 4519 378 4559 278 
Q 4591 209 4675 161 
Q 4759 113 4950 113 
L 4950 0 
L 3538 0 
L 3538 113 
L 3597 113 
Q 3781 113 3884 184 
Q 3956 234 3988 344 
Q 4000 397 4000 647 
L 4000 1878 
Q 4000 2228 3916 2372 
Q 3794 2572 3525 2572 
Q 3359 2572 3192 2489 
Q 3025 2406 2788 2181 
L 2781 2147 
L 2788 2013 
L 2788 647 
Q 2788 353 2820 281 
Q 2853 209 2943 161 
Q 3034 113 3253 113 
L 3253 0 
L 1806 0 
L 1806 113 
Q 2044 113 2133 169 
Q 2222 225 2256 338 
Q 2272 391 2272 647 
L 2272 1878 
Q 2272 2228 2169 2381 
Q 2031 2581 1784 2581 
Q 1616 2581 1450 2491 
Q 1191 2353 1050 2181 
L 1050 647 
Q 1050 366 1089 281 
Q 1128 197 1204 155 
Q 1281 113 1516 113 
L 1516 0 
L 100 0 
L 100 113 
Q 297 113 375 155 
Q 453 197 493 289 
Q 534 381 534 647 
L 534 1741 
Q 534 2213 506 2350 
Q 484 2453 437 2492 
Q 391 2531 309 2531 
Q 222 2531 100 2484 
L 53 2597 
L 916 2947 
L 1050 2947 
L 1050 2338 
z
" transform="scale(0.015625)"/>
       <path id="TimesNewRomanPSMT-c" d="M 144 4313 
L 144 4444 
Q 619 4209 934 3891 
Q 1381 3434 1625 2820 
Q 1869 2206 1869 1541 
Q 1869 572 1392 -226 
Q 916 -1025 144 -1369 
L 144 -1253 
Q 528 -1038 776 -670 
Q 1025 -303 1145 264 
Q 1266 831 1266 1447 
Q 1266 2113 1163 2663 
Q 1084 3094 967 3353 
Q 850 3613 656 3853 
Q 463 4094 144 4313 
z
" transform="scale(0.015625)"/>
      </defs>
      <use xlink:href="#TimesNewRomanPSMT-33"/>
      <use xlink:href="#TimesNewRomanPSMT-52" transform="translate(55.609375 0)"/>
      <use xlink:href="#TimesNewRomanPSMT-56" transform="translate(105.609375 0)"/>
      <use xlink:href="#TimesNewRomanPSMT-4c" transform="translate(144.53125 0)"/>
      <use xlink:href="#TimesNewRomanPSMT-6f" transform="translate(172.3125 0)"/>
      <use xlink:href="#TimesNewRomanPSMT-6d" transform="translate(216.703125 0)"/>
      <use xlink:href="#TimesNewRomanPSMT-52" transform="translate(261.09375 0)"/>
      <use xlink:href="#TimesNewRomanPSMT-3" transform="translate(311.09375 0)"/>
      <use xlink:href="#TimesNewRomanPSMT-3b" transform="translate(336.09375 0)"/>
      <use xlink:href="#TimesNewRomanPSMT-3" transform="translate(408.3125 0)"/>
      <use xlink:href="#TimesNewRomanPSMT-b" transform="translate(433.3125 0)"/>
      <use xlink:href="#TimesNewRomanPSMT-50" transform="translate(466.609375 0)"/>
      <use xlink:href="#TimesNewRomanPSMT-c" transform="translate(544.390625 0)"/>
     </g>
    </g>
   </g>
   <g id="matplotlib.axis_2">
    <g id="ytick_1">
     <g id="line2d_8">
      <path d="M 53.389219 305.349844 
L 347.378906 305.349844 
" clip-path="url(#pcdf33848a8)" style="fill: none; stroke: #cccccc; stroke-linecap: round"/>
     </g>
     <g id="text_9">
      <!-- −1.5 -->
      <g style="fill: #262626" transform="translate(22.122344 309.51) scale(0.12 -0.12)">
       <use xlink:href="#TimesNewRomanPSMT-ed"/>
       <use xlink:href="#TimesNewRomanPSMT-14" transform="translate(56.390625 0)"/>
       <use xlink:href="#TimesNewRomanPSMT-11" transform="translate(106.390625 0)"/>
       <use xlink:href="#TimesNewRomanPSMT-18" transform="translate(131.390625 0)"/>
      </g>
     </g>
    </g>
    <g id="ytick_2">
     <g id="line2d_9">
      <path d="M 53.389219 256.351562 
L 347.378906 256.351562 
" clip-path="url(#pcdf33848a8)" style="fill: none; stroke: #cccccc; stroke-linecap: round"/>
     </g>
     <g id="text_10">
      <!-- −1.0 -->
      <g style="fill: #262626" transform="translate(22.122344 260.511719) scale(0.12 -0.12)">
       <use xlink:href="#TimesNewRomanPSMT-ed"/>
       <use xlink:href="#TimesNewRomanPSMT-14" transform="translate(56.390625 0)"/>
       <use xlink:href="#TimesNewRomanPSMT-11" transform="translate(106.390625 0)"/>
       <use xlink:href="#TimesNewRomanPSMT-13" transform="translate(131.390625 0)"/>
      </g>
     </g>
    </g>
    <g id="ytick_3">
     <g id="line2d_10">
      <path d="M 53.389219 207.353281 
L 347.378906 207.353281 
" clip-path="url(#pcdf33848a8)" style="fill: none; stroke: #cccccc; stroke-linecap: round"/>
     </g>
     <g id="text_11">
      <!-- −0.5 -->
      <g style="fill: #262626" transform="translate(22.122344 211.513438) scale(0.12 -0.12)">
       <use xlink:href="#TimesNewRomanPSMT-ed"/>
       <use xlink:href="#TimesNewRomanPSMT-13" transform="translate(56.390625 0)"/>
       <use xlink:href="#TimesNewRomanPSMT-11" transform="translate(106.390625 0)"/>
       <use xlink:href="#TimesNewRomanPSMT-18" transform="translate(131.390625 0)"/>
      </g>
     </g>
    </g>
    <g id="ytick_4">
     <g id="line2d_11">
      <path d="M 53.389219 158.355 
L 347.378906 158.355 
" clip-path="url(#pcdf33848a8)" style="fill: none; stroke: #cccccc; stroke-linecap: round"/>
     </g>
     <g id="text_12">
      <!-- 0.0 -->
      <g style="fill: #262626" transform="translate(28.889219 162.515156) scale(0.12 -0.12)">
       <use xlink:href="#TimesNewRomanPSMT-13"/>
       <use xlink:href="#TimesNewRomanPSMT-11" transform="translate(50 0)"/>
       <use xlink:href="#TimesNewRomanPSMT-13" transform="translate(75 0)"/>
      </g>
     </g>
    </g>
    <g id="ytick_5">
     <g id="line2d_12">
      <path d="M 53.389219 109.356719 
L 347.378906 109.356719 
" clip-path="url(#pcdf33848a8)" style="fill: none; stroke: #cccccc; stroke-linecap: round"/>
     </g>
     <g id="text_13">
      <!-- 0.5 -->
      <g style="fill: #262626" transform="translate(28.889219 113.516875) scale(0.12 -0.12)">
       <use xlink:href="#TimesNewRomanPSMT-13"/>
       <use xlink:href="#TimesNewRomanPSMT-11" transform="translate(50 0)"/>
       <use xlink:href="#TimesNewRomanPSMT-18" transform="translate(75 0)"/>
      </g>
     </g>
    </g>
    <g id="ytick_6">
     <g id="line2d_13">
      <path d="M 53.389219 60.358437 
L 347.378906 60.358437 
" clip-path="url(#pcdf33848a8)" style="fill: none; stroke: #cccccc; stroke-linecap: round"/>
     </g>
     <g id="text_14">
      <!-- 1.0 -->
      <g style="fill: #262626" transform="translate(28.889219 64.518594) scale(0.12 -0.12)">
       <use xlink:href="#TimesNewRomanPSMT-14"/>
       <use xlink:href="#TimesNewRomanPSMT-11" transform="translate(50 0)"/>
       <use xlink:href="#TimesNewRomanPSMT-13" transform="translate(75 0)"/>
      </g>
     </g>
    </g>
    <g id="ytick_7">
     <g id="line2d_14">
      <path d="M 53.389219 11.360156 
L 347.378906 11.360156 
" clip-path="url(#pcdf33848a8)" style="fill: none; stroke: #cccccc; stroke-linecap: round"/>
     </g>
     <g id="text_15">
      <!-- 1.5 -->
      <g style="fill: #262626" transform="translate(28.889219 15.520312) scale(0.12 -0.12)">
       <use xlink:href="#TimesNewRomanPSMT-14"/>
       <use xlink:href="#TimesNewRomanPSMT-11" transform="translate(50 0)"/>
       <use xlink:href="#TimesNewRomanPSMT-18" transform="translate(75 0)"/>
      </g>
     </g>
    </g>
    <g id="text_16">
     <!-- Posição Y (m) -->
     <g style="fill: #262626" transform="translate(15.5325 192.571875) rotate(-90) scale(0.12 -0.12)">
      <defs>
       <path id="TimesNewRomanPSMT-3c" d="M 3050 4238 
L 4528 4238 
L 4528 4122 
L 4447 4122 
Q 4366 4122 4209 4050 
Q 4053 3978 3925 3843 
Q 3797 3709 3609 3406 
L 2588 1797 
L 2588 734 
Q 2588 344 2675 247 
Q 2794 116 3050 116 
L 3188 116 
L 3188 0 
L 1388 0 
L 1388 116 
L 1538 116 
Q 1806 116 1919 278 
Q 1988 378 1988 734 
L 1988 1738 
L 825 3513 
Q 619 3825 545 3903 
Q 472 3981 241 4091 
Q 178 4122 59 4122 
L 59 4238 
L 1872 4238 
L 1872 4122 
L 1778 4122 
Q 1631 4122 1507 4053 
Q 1384 3984 1384 3847 
Q 1384 3734 1575 3441 
L 2459 2075 
L 3291 3381 
Q 3478 3675 3478 3819 
Q 3478 3906 3433 3975 
Q 3388 4044 3303 4083 
Q 3219 4122 3050 4122 
L 3050 4238 
z
" transform="scale(0.015625)"/>
      </defs>
      <use xlink:href="#TimesNewRomanPSMT-33"/>
      <use xlink:href="#TimesNewRomanPSMT-52" transform="translate(55.609375 0)"/>
      <use xlink:href="#TimesNewRomanPSMT-56" transform="translate(105.609375 0)"/>
      <use xlink:href="#TimesNewRomanPSMT-4c" transform="translate(144.53125 0)"/>
      <use xlink:href="#TimesNewRomanPSMT-6f" transform="translate(172.3125 0)"/>
      <use xlink:href="#TimesNewRomanPSMT-6d" transform="translate(216.703125 0)"/>
      <use xlink:href="#TimesNewRomanPSMT-52" transform="translate(261.09375 0)"/>
      <use xlink:href="#TimesNewRomanPSMT-3" transform="translate(311.09375 0)"/>
      <use xlink:href="#TimesNewRomanPSMT-3c" transform="translate(332.390625 0)"/>
      <use xlink:href="#TimesNewRomanPSMT-3" transform="translate(400.90625 0)"/>
      <use xlink:href="#TimesNewRomanPSMT-b" transform="translate(425.90625 0)"/>
      <use xlink:href="#TimesNewRomanPSMT-50" transform="translate(459.203125 0)"/>
      <use xlink:href="#TimesNewRomanPSMT-c" transform="translate(536.984375 0)"/>
     </g>
    </g>
   </g>
   <g id="line2d_15">
    <path d="M 200.384062 158.355 
L 199.159105 158.355 
L 197.934148 158.355 
L 196.709191 158.355 
L 195.484234 158.355 
L 194.259277 158.355 
L 193.03432 158.355 
L 191.809363 158.355 
L 190.584406 158.355 
L 189.359449 158.355 
L 188.134492 158.355 
L 186.909535 158.355 
L 185.684578 158.355 
L 184.459621 158.355 
L 183.234664 158.355 
L 182.009707 158.355 
L 180.78475 158.355 
L 179.559793 158.355 
L 178.334836 158.355 
L 177.109879 158.355 
L 175.884922 158.355 
L 174.659965 158.355 
L 173.435008 158.355 
L 172.210051 158.355 
L 170.985094 158.355 
L 169.760137 158.355 
L 168.53518 158.355 
L 167.310223 158.355 
L 166.085266 158.355 
L 164.860309 158.355 
L 163.635352 158.355 
L 162.410395 158.355 
L 161.185437 158.355 
L 159.96048 158.355 
L 158.735523 158.355 
L 157.510566 158.355 
L 156.285609 158.355 
L 155.060652 158.355 
L 153.835695 158.355 
L 152.610738 158.355 
L 151.385781 158.355 
L 150.160824 158.355 
L 148.935867 158.355 
L 147.71091 158.355 
L 146.485953 158.355 
L 145.260996 158.355 
L 144.036039 158.355 
L 142.811082 158.355 
L 141.586125 158.355 
L 140.361168 158.355 
L 139.136211 158.355 
L 137.911254 158.355 
L 136.686297 158.355 
L 135.46134 158.355 
L 134.236383 158.355 
L 133.011426 158.355 
L 131.786469 158.355 
L 130.561512 158.355 
L 129.336555 158.355 
L 128.111598 158.355 
L 126.886641 158.355 
L 125.661684 158.355 
L 124.436727 158.355 
L 123.21177 158.355 
L 121.986813 158.355 
L 120.761855 158.355 
L 119.536898 158.355 
L 118.311941 158.355 
L 117.086984 158.355 
L 115.862027 158.355 
L 114.63707 158.355 
L 113.412113 158.355 
L 112.187156 158.355 
L 110.962199 158.355 
L 109.737242 158.355 
L 108.512285 158.355 
L 107.287328 158.355 
L 106.062371 158.355 
L 104.837414 158.355 
L 103.612457 158.355 
L 102.3875 158.355 
L 101.162543 158.355 
L 99.937586 158.355 
L 98.712629 158.355 
L 97.487672 158.355 
L 96.262715 158.355 
L 95.037758 158.355 
L 93.812801 158.355 
L 92.587844 158.355 
L 91.362887 158.355 
L 90.13793 158.355 
L 88.912973 158.355 
L 87.688016 158.355 
L 86.463059 158.355 
L 85.238102 158.355 
L 84.013145 158.355 
L 82.788188 158.355 
L 81.56323 158.355 
L 80.338273 158.355 
L 79.113316 158.355 
" clip-path="url(#pcdf33848a8)" style="fill: none; stroke: #000000; stroke-width: 2; stroke-linecap: round"/>
   </g>
   <g id="patch_3">
    <path d="M 53.389219 305.349844 
L 53.389219 11.360156 
" style="fill: none; stroke: #cccccc; stroke-width: 1.25; stroke-linejoin: miter; stroke-linecap: square"/>
   </g>
   <g id="patch_4">
    <path d="M 347.378906 305.349844 
L 347.378906 11.360156 
" style="fill: none; stroke: #cccccc; stroke-width: 1.25; stroke-linejoin: miter; stroke-linecap: square"/>
   </g>
   <g id="patch_5">
    <path d="M 53.389219 305.349844 
L 347.378906 305.349844 
" style="fill: none; stroke: #cccccc; stroke-width: 1.25; stroke-linejoin: miter; stroke-linecap: square"/>
   </g>
   <g id="patch_6">
    <path d="M 53.389219 11.360156 
L 347.378906 11.360156 
" style="fill: none; stroke: #cccccc; stroke-width: 1.25; stroke-linejoin: miter; stroke-linecap: square"/>
   </g>
   <g id="patch_7">
    <path d="M 69.31366 143.655516 
L 88.912973 143.655516 
L 98.712629 158.355 
L 88.912973 173.054484 
L 69.31366 173.054484 
z
" clip-path="url(#pcdf33848a8)" style="fill: #ffffff; stroke: #000000; stroke-width: 2; stroke-linejoin: miter"/>
   </g>
   <g id="patch_8">
    <path d="M 74.213488 150.515275 
L 84.013145 150.515275 
L 84.013145 146.595412 
L 74.213488 146.595412 
z
" clip-path="url(#pcdf33848a8)" style="fill: #1f77b4; stroke: #000000; stroke-linejoin: miter"/>
   </g>
   <g id="patch_9">
    <path d="M 74.213488 170.114587 
L 84.013145 170.114587 
L 84.013145 166.194725 
L 74.213488 166.194725 
z
" clip-path="url(#pcdf33848a8)" style="fill: #1f77b4; stroke: #000000; stroke-linejoin: miter"/>
   </g>
   <g id="patch_10">
    <path d="M 93.812801 160.804914 
C 94.462526 160.804914 95.085727 160.546776 95.545152 160.087351 
C 96.004576 159.627926 96.262715 159.004725 96.262715 158.355 
C 96.262715 157.705275 96.004576 157.082074 95.545152 156.622649 
C 95.085727 156.163224 94.462526 155.905086 93.812801 155.905086 
C 93.163076 155.905086 92.539875 156.163224 92.08045 156.622649 
C 91.621025 157.082074 91.362887 157.705275 91.362887 158.355 
C 91.362887 159.004725 91.621025 159.627926 92.08045 160.087351 
C 92.539875 160.546776 93.163076 160.804914 93.812801 160.804914 
z
" clip-path="url(#pcdf33848a8)" style="fill: #1f77b4; stroke: #000000; stroke-linejoin: miter"/>
   </g>
   <g id="patch_11">
    <path d="M 79.113316 160.314931 
C 79.633096 160.314931 80.131657 160.108421 80.499197 159.740881 
C 80.866737 159.373341 81.073248 158.87478 81.073248 158.355 
C 81.073248 157.83522 80.866737 157.336659 80.499197 156.969119 
C 80.131657 156.601579 79.633096 156.395069 79.113316 156.395069 
C 78.593537 156.395069 78.094976 156.601579 77.727436 156.969119 
C 77.359896 157.336659 77.153385 157.83522 77.153385 158.355 
C 77.153385 158.87478 77.359896 159.373341 77.727436 159.740881 
C 78.094976 160.108421 78.593537 160.314931 79.113316 160.314931 
z
" clip-path="url(#pcdf33848a8)" style="stroke: #000000; stroke-linejoin: miter"/>
   </g>
   <g id="legend_1">
    <g id="patch_12">
     <path d="M 223.078906 35.73418 
L 339.678906 35.73418 
Q 341.878906 35.73418 341.878906 33.53418 
L 341.878906 19.060156 
Q 341.878906 16.860156 339.678906 16.860156 
L 223.078906 16.860156 
Q 220.878906 16.860156 220.878906 19.060156 
L 220.878906 33.53418 
Q 220.878906 35.73418 223.078906 35.73418 
z
" style="fill: #ffffff; opacity: 0.8; stroke: #cccccc; stroke-linejoin: miter"/>
    </g>
    <g id="line2d_16">
     <path d="M 225.278906 25.110156 
L 236.278906 25.110156 
L 247.278906 25.110156 
" style="fill: none; stroke: #000000; stroke-width: 2; stroke-linecap: round"/>
    </g>
    <g id="text_17">
     <!-- $\omega_L$=-5.0, $\omega_R$=-5.0 -->
     <g style="fill: #262626" transform="translate(256.078906 28.960156) scale(0.11 -0.11)">
      <defs>
       <path id="DejaVuSans-Oblique-35d" d="M 1369 -91 
Q 72 -91 434 1766 
Q 575 2500 1256 3500 
L 1875 3500 
Q 1231 2500 1088 1750 
Q 819 397 1519 397 
Q 2166 397 2478 2078 
L 3009 2078 
Q 2669 388 3316 397 
Q 4013 403 4275 1750 
Q 4419 2500 4169 3500 
L 4788 3500 
Q 5075 2500 4934 1766 
Q 4578 -94 3278 -91 
Q 2428 -88 2503 844 
Q 2194 -91 1369 -91 
z
" transform="scale(0.015625)"/>
       <path id="DejaVuSans-Oblique-2f" d="M 1075 4666 
L 1709 4666 
L 909 525 
L 3181 525 
L 3078 0 
L 172 0 
L 1075 4666 
z
" transform="scale(0.015625)"/>
       <path id="TimesNewRomanPSMT-20" d="M 116 2759 
L 3488 2759 
L 3488 2503 
L 116 2503 
L 116 2759 
z
M 116 1741 
L 3488 1741 
L 3488 1484 
L 116 1484 
L 116 1741 
z
" transform="scale(0.015625)"/>
       <path id="TimesNewRomanPSMT-10" d="M 259 1672 
L 1875 1672 
L 1875 1200 
L 259 1200 
L 259 1672 
z
" transform="scale(0.015625)"/>
       <path id="TimesNewRomanPSMT-f" d="M 344 -1066 
L 344 -928 
Q 666 -822 842 -598 
Q 1019 -375 1019 -125 
Q 1019 -66 991 -25 
Q 969 3 947 3 
Q 913 3 797 -59 
Q 741 -88 678 -88 
Q 525 -88 434 3 
Q 344 94 344 253 
Q 344 406 461 515 
Q 578 625 747 625 
Q 953 625 1114 445 
Q 1275 266 1275 -31 
Q 1275 -353 1051 -629 
Q 828 -906 344 -1066 
z
" transform="scale(0.015625)"/>
       <path id="DejaVuSans-Oblique-35" d="M 1613 4147 
L 1294 2491 
L 2106 2491 
Q 2584 2491 2879 2755 
Q 3175 3019 3175 3444 
Q 3175 3784 2976 3965 
Q 2778 4147 2406 4147 
L 1613 4147 
z
M 2772 2241 
Q 2972 2194 3105 2009 
Q 3238 1825 3413 1275 
L 3809 0 
L 3144 0 
L 2778 1197 
Q 2638 1659 2453 1815 
Q 2269 1972 1888 1972 
L 1191 1972 
L 806 0 
L 172 0 
L 1081 4666 
L 2503 4666 
Q 3150 4666 3495 4373 
Q 3841 4081 3841 3531 
Q 3841 3044 3547 2687 
Q 3253 2331 2772 2241 
z
" transform="scale(0.015625)"/>
      </defs>
      <use xlink:href="#DejaVuSans-Oblique-35d" transform="translate(0 0.421875)"/>
      <use xlink:href="#DejaVuSans-Oblique-2f" transform="translate(83.740234 -14.578076) scale(0.7)"/>
      <use xlink:href="#TimesNewRomanPSMT-20" transform="translate(125.473633 0.421875)"/>
      <use xlink:href="#TimesNewRomanPSMT-10" transform="translate(181.870117 0.421875)"/>
      <use xlink:href="#TimesNewRomanPSMT-18" transform="translate(215.170898 0.421875)"/>
      <use xlink:href="#TimesNewRomanPSMT-11" transform="translate(265.170898 0.421875)"/>
      <use xlink:href="#TimesNewRomanPSMT-13" transform="translate(290.170898 0.421875)"/>
      <use xlink:href="#TimesNewRomanPSMT-f" transform="translate(340.170898 0.421875)"/>
      <use xlink:href="#TimesNewRomanPSMT-3" transform="translate(365.170898 0.421875)"/>
      <use xlink:href="#DejaVuSans-Oblique-35d" transform="translate(390.170898 0.421875)"/>
      <use xlink:href="#DejaVuSans-Oblique-35" transform="translate(473.911133 -14.578076) scale(0.7)"/>
      <use xlink:href="#TimesNewRomanPSMT-20" transform="translate(525.283203 0.421875)"/>
      <use xlink:href="#TimesNewRomanPSMT-10" transform="translate(581.679688 0.421875)"/>
      <use xlink:href="#TimesNewRomanPSMT-18" transform="translate(614.980469 0.421875)"/>
      <use xlink:href="#TimesNewRomanPSMT-11" transform="translate(664.980469 0.421875)"/>
      <use xlink:href="#TimesNewRomanPSMT-13" transform="translate(689.980469 0.421875)"/>
     </g>
    </g>
   </g>
  </g>
  <g id="axes_2">
   <g id="patch_13">
    <path d="M 425.693991 87.109948 
L 686.794134 87.109948 
L 686.794134 11.360156 
L 425.693991 11.360156 
z
" style="fill: #ffffff"/>
   </g>
   <g id="matplotlib.axis_3">
    <g id="xtick_8">
     <g id="line2d_17">
      <path d="M 425.693991 87.109948 
L 425.693991 11.360156 
" clip-path="url(#p5ee2d23207)" style="fill: none; stroke: #cccccc; stroke-linecap: round"/>
     </g>
     <g id="text_18">
      <!-- 0 -->
      <g style="fill: #262626" transform="translate(422.693991 104.93026) scale(0.12 -0.12)">
       <use xlink:href="#TimesNewRomanPSMT-13"/>
      </g>
     </g>
    </g>
    <g id="xtick_9">
     <g id="line2d_18">
      <path d="M 477.91402 87.109948 
L 477.91402 11.360156 
" clip-path="url(#p5ee2d23207)" style="fill: none; stroke: #cccccc; stroke-linecap: round"/>
     </g>
     <g id="text_19">
      <!-- 1 -->
      <g style="fill: #262626" transform="translate(474.91402 104.93026) scale(0.12 -0.12)">
       <use xlink:href="#TimesNewRomanPSMT-14"/>
      </g>
     </g>
    </g>
    <g id="xtick_10">
     <g id="line2d_19">
      <path d="M 530.134048 87.109948 
L 530.134048 11.360156 
" clip-path="url(#p5ee2d23207)" style="fill: none; stroke: #cccccc; stroke-linecap: round"/>
     </g>
     <g id="text_20">
      <!-- 2 -->
      <g style="fill: #262626" transform="translate(527.134048 104.93026) scale(0.12 -0.12)">
       <defs>
        <path id="TimesNewRomanPSMT-15" d="M 2934 816 
L 2638 0 
L 138 0 
L 138 116 
Q 1241 1122 1691 1759 
Q 2141 2397 2141 2925 
Q 2141 3328 1894 3587 
Q 1647 3847 1303 3847 
Q 991 3847 742 3664 
Q 494 3481 375 3128 
L 259 3128 
Q 338 3706 661 4015 
Q 984 4325 1469 4325 
Q 1984 4325 2329 3994 
Q 2675 3663 2675 3213 
Q 2675 2891 2525 2569 
Q 2294 2063 1775 1497 
Q 997 647 803 472 
L 1909 472 
Q 2247 472 2383 497 
Q 2519 522 2628 598 
Q 2738 675 2819 816 
L 2934 816 
z
" transform="scale(0.015625)"/>
       </defs>
       <use xlink:href="#TimesNewRomanPSMT-15"/>
      </g>
     </g>
    </g>
    <g id="xtick_11">
     <g id="line2d_20">
      <path d="M 582.354077 87.109948 
L 582.354077 11.360156 
" clip-path="url(#p5ee2d23207)" style="fill: none; stroke: #cccccc; stroke-linecap: round"/>
     </g>
     <g id="text_21">
      <!-- 3 -->
      <g style="fill: #262626" transform="translate(579.354077 104.93026) scale(0.12 -0.12)">
       <defs>
        <path id="TimesNewRomanPSMT-16" d="M 325 3431 
Q 506 3859 782 4092 
Q 1059 4325 1472 4325 
Q 1981 4325 2253 3994 
Q 2459 3747 2459 3466 
Q 2459 3003 1878 2509 
Q 2269 2356 2469 2072 
Q 2669 1788 2669 1403 
Q 2669 853 2319 450 
Q 1863 -75 997 -75 
Q 569 -75 414 31 
Q 259 138 259 259 
Q 259 350 332 419 
Q 406 488 509 488 
Q 588 488 669 463 
Q 722 447 909 348 
Q 1097 250 1169 231 
Q 1284 197 1416 197 
Q 1734 197 1970 444 
Q 2206 691 2206 1028 
Q 2206 1275 2097 1509 
Q 2016 1684 1919 1775 
Q 1784 1900 1550 2001 
Q 1316 2103 1072 2103 
L 972 2103 
L 972 2197 
Q 1219 2228 1467 2375 
Q 1716 2522 1828 2728 
Q 1941 2934 1941 3181 
Q 1941 3503 1739 3701 
Q 1538 3900 1238 3900 
Q 753 3900 428 3381 
L 325 3431 
z
" transform="scale(0.015625)"/>
       </defs>
       <use xlink:href="#TimesNewRomanPSMT-16"/>
      </g>
     </g>
    </g>
    <g id="xtick_12">
     <g id="line2d_21">
      <path d="M 634.574105 87.109948 
L 634.574105 11.360156 
" clip-path="url(#p5ee2d23207)" style="fill: none; stroke: #cccccc; stroke-linecap: round"/>
     </g>
     <g id="text_22">
      <!-- 4 -->
      <g style="fill: #262626" transform="translate(631.574105 104.93026) scale(0.12 -0.12)">
       <defs>
        <path id="TimesNewRomanPSMT-17" d="M 2978 1563 
L 2978 1119 
L 2409 1119 
L 2409 0 
L 1894 0 
L 1894 1119 
L 100 1119 
L 100 1519 
L 2066 4325 
L 2409 4325 
L 2409 1563 
L 2978 1563 
z
M 1894 1563 
L 1894 3666 
L 406 1563 
L 1894 1563 
z
" transform="scale(0.015625)"/>
       </defs>
       <use xlink:href="#TimesNewRomanPSMT-17"/>
      </g>
     </g>
    </g>
    <g id="xtick_13">
     <g id="line2d_22">
      <path d="M 686.794134 87.109948 
L 686.794134 11.360156 
" clip-path="url(#p5ee2d23207)" style="fill: none; stroke: #cccccc; stroke-linecap: round"/>
     </g>
     <g id="text_23">
      <!-- 5 -->
      <g style="fill: #262626" transform="translate(683.794134 104.93026) scale(0.12 -0.12)">
       <use xlink:href="#TimesNewRomanPSMT-18"/>
      </g>
     </g>
    </g>
   </g>
   <g id="matplotlib.axis_4">
    <g id="ytick_8">
     <g id="line2d_23">
      <path d="M 425.693991 87.109948 
L 686.794134 87.109948 
" clip-path="url(#p5ee2d23207)" style="fill: none; stroke: #cccccc; stroke-linecap: round"/>
     </g>
     <g id="text_24">
      <!-- −0.5 -->
      <g style="fill: #262626" transform="translate(394.427116 91.270104) scale(0.12 -0.12)">
       <use xlink:href="#TimesNewRomanPSMT-ed"/>
       <use xlink:href="#TimesNewRomanPSMT-13" transform="translate(56.390625 0)"/>
       <use xlink:href="#TimesNewRomanPSMT-11" transform="translate(106.390625 0)"/>
       <use xlink:href="#TimesNewRomanPSMT-18" transform="translate(131.390625 0)"/>
      </g>
     </g>
    </g>
    <g id="ytick_9">
     <g id="line2d_24">
      <path d="M 425.693991 49.235052 
L 686.794134 49.235052 
" clip-path="url(#p5ee2d23207)" style="fill: none; stroke: #cccccc; stroke-linecap: round"/>
     </g>
     <g id="text_25">
      <!-- 0.0 -->
      <g style="fill: #262626" transform="translate(401.193991 53.395208) scale(0.12 -0.12)">
       <use xlink:href="#TimesNewRomanPSMT-13"/>
       <use xlink:href="#TimesNewRomanPSMT-11" transform="translate(50 0)"/>
       <use xlink:href="#TimesNewRomanPSMT-13" transform="translate(75 0)"/>
      </g>
     </g>
    </g>
    <g id="ytick_10">
     <g id="line2d_25">
      <path d="M 425.693991 11.360156 
L 686.794134 11.360156 
" clip-path="url(#p5ee2d23207)" style="fill: none; stroke: #cccccc; stroke-linecap: round"/>
     </g>
     <g id="text_26">
      <!-- 0.5 -->
      <g style="fill: #262626" transform="translate(401.193991 15.520313) scale(0.12 -0.12)">
       <use xlink:href="#TimesNewRomanPSMT-13"/>
       <use xlink:href="#TimesNewRomanPSMT-11" transform="translate(50 0)"/>
       <use xlink:href="#TimesNewRomanPSMT-18" transform="translate(75 0)"/>
      </g>
     </g>
    </g>
    <g id="text_27">
     <!-- v (m/s) -->
     <g style="fill: #262626" transform="translate(387.837273 66.39974) rotate(-90) scale(0.12 -0.12)">
      <defs>
       <path id="TimesNewRomanPSMT-59" d="M 53 2863 
L 1400 2863 
L 1400 2747 
L 1313 2747 
Q 1191 2747 1127 2687 
Q 1063 2628 1063 2528 
Q 1063 2419 1128 2269 
L 1794 688 
L 2463 2328 
Q 2534 2503 2534 2594 
Q 2534 2638 2509 2666 
Q 2475 2713 2422 2730 
Q 2369 2747 2206 2747 
L 2206 2863 
L 3141 2863 
L 3141 2747 
Q 2978 2734 2916 2681 
Q 2806 2588 2719 2369 
L 1703 -88 
L 1575 -88 
L 553 2328 
Q 484 2497 421 2570 
Q 359 2644 263 2694 
Q 209 2722 53 2747 
L 53 2863 
z
" transform="scale(0.015625)"/>
       <path id="TimesNewRomanPSMT-12" d="M 1794 4444 
L 259 -88 
L 9 -88 
L 1544 4444 
L 1794 4444 
z
" transform="scale(0.015625)"/>
      </defs>
      <use xlink:href="#TimesNewRomanPSMT-59"/>
      <use xlink:href="#TimesNewRomanPSMT-3" transform="translate(50 0)"/>
      <use xlink:href="#TimesNewRomanPSMT-b" transform="translate(75 0)"/>
      <use xlink:href="#TimesNewRomanPSMT-50" transform="translate(108.296875 0)"/>
      <use xlink:href="#TimesNewRomanPSMT-12" transform="translate(186.078125 0)"/>
      <use xlink:href="#TimesNewRomanPSMT-56" transform="translate(213.859375 0)"/>
      <use xlink:href="#TimesNewRomanPSMT-c" transform="translate(252.78125 0)"/>
     </g>
    </g>
   </g>
   <g id="line2d_26">
    <path d="M 425.693991 68.1725 
L 428.331367 68.1725 
L 430.968742 68.1725 
L 433.606117 68.1725 
L 436.243492 68.1725 
L 438.880867 68.1725 
L 441.518243 68.1725 
L 444.155618 68.1725 
L 446.792993 68.1725 
L 449.430368 68.1725 
L 452.067743 68.1725 
L 454.705118 68.1725 
L 457.342494 68.1725 
L 459.979869 68.1725 
L 462.617244 68.1725 
L 465.254619 68.1725 
L 467.891994 68.1725 
L 470.529369 68.1725 
L 473.166745 68.1725 
L 475.80412 68.1725 
L 478.441495 68.1725 
L 481.07887 68.1725 
L 483.716245 68.1725 
L 486.35362 68.1725 
L 488.990996 68.1725 
L 491.628371 68.1725 
L 494.265746 68.1725 
L 496.903121 68.1725 
L 499.540496 68.1725 
L 502.177871 68.1725 
L 504.815247 68.1725 
L 507.452622 68.1725 
L 510.089997 68.1725 
L 512.727372 68.1725 
L 515.364747 68.1725 
L 518.002123 68.1725 
L 520.639498 68.1725 
L 523.276873 68.1725 
L 525.914248 68.1725 
L 528.551623 68.1725 
L 531.188998 68.1725 
L 533.826374 68.1725 
L 536.463749 68.1725 
L 539.101124 68.1725 
L 541.738499 68.1725 
L 544.375874 68.1725 
L 547.013249 68.1725 
L 549.650625 68.1725 
L 552.288 68.1725 
L 554.925375 68.1725 
L 557.56275 68.1725 
L 560.200125 68.1725 
L 562.8375 68.1725 
L 565.474876 68.1725 
L 568.112251 68.1725 
L 570.749626 68.1725 
L 573.387001 68.1725 
L 576.024376 68.1725 
L 578.661751 68.1725 
L 581.299127 68.1725 
L 583.936502 68.1725 
L 586.573877 68.1725 
L 589.211252 68.1725 
L 591.848627 68.1725 
L 594.486002 68.1725 
L 597.123378 68.1725 
L 599.760753 68.1725 
L 602.398128 68.1725 
L 605.035503 68.1725 
L 607.672878 68.1725 
L 610.310254 68.1725 
L 612.947629 68.1725 
L 615.585004 68.1725 
L 618.222379 68.1725 
L 620.859754 68.1725 
L 623.497129 68.1725 
L 626.134505 68.1725 
L 628.77188 68.1725 
L 631.409255 68.1725 
L 634.04663 68.1725 
L 636.684005 68.1725 
L 639.32138 68.1725 
L 641.958756 68.1725 
L 644.596131 68.1725 
L 647.233506 68.1725 
L 649.870881 68.1725 
L 652.508256 68.1725 
L 655.145631 68.1725 
L 657.783007 68.1725 
L 660.420382 68.1725 
L 663.057757 68.1725 
L 665.695132 68.1725 
L 668.332507 68.1725 
L 670.969882 68.1725 
L 673.607258 68.1725 
L 676.244633 68.1725 
L 678.882008 68.1725 
L 681.519383 68.1725 
L 684.156758 68.1725 
L 686.794134 68.1725 
" clip-path="url(#p5ee2d23207)" style="fill: none; stroke: #0000ff; stroke-width: 2; stroke-linecap: round"/>
   </g>
   <g id="patch_14">
    <path d="M 425.693991 87.109948 
L 425.693991 11.360156 
" style="fill: none; stroke: #cccccc; stroke-width: 1.25; stroke-linejoin: miter; stroke-linecap: square"/>
   </g>
   <g id="patch_15">
    <path d="M 686.794134 87.109948 
L 686.794134 11.360156 
" style="fill: none; stroke: #cccccc; stroke-width: 1.25; stroke-linejoin: miter; stroke-linecap: square"/>
   </g>
   <g id="patch_16">
    <path d="M 425.693991 87.109948 
L 686.794134 87.109948 
" style="fill: none; stroke: #cccccc; stroke-width: 1.25; stroke-linejoin: miter; stroke-linecap: square"/>
   </g>
   <g id="patch_17">
    <path d="M 425.693991 11.360156 
L 686.794134 11.360156 
" style="fill: none; stroke: #cccccc; stroke-width: 1.25; stroke-linejoin: miter; stroke-linecap: square"/>
   </g>
   <g id="legend_2">
    <g id="patch_18">
     <path d="M 585.135227 35.73418 
L 679.094134 35.73418 
Q 681.294134 35.73418 681.294134 33.53418 
L 681.294134 19.060156 
Q 681.294134 16.860156 679.094134 16.860156 
L 585.135227 16.860156 
Q 582.935227 16.860156 582.935227 19.060156 
L 582.935227 33.53418 
Q 582.935227 35.73418 585.135227 35.73418 
z
" style="fill: #ffffff; opacity: 0.8; stroke: #cccccc; stroke-linejoin: miter"/>
    </g>
    <g id="line2d_27">
     <path d="M 587.335227 25.110156 
L 598.335227 25.110156 
L 609.335227 25.110156 
" style="fill: none; stroke: #0000ff; stroke-width: 2; stroke-linecap: round"/>
    </g>
    <g id="text_28">
     <!-- v = -0.25 m/s -->
     <g style="fill: #262626" transform="translate(618.135227 28.960156) scale(0.11 -0.11)">
      <use xlink:href="#TimesNewRomanPSMT-59"/>
      <use xlink:href="#TimesNewRomanPSMT-3" transform="translate(50 0)"/>
      <use xlink:href="#TimesNewRomanPSMT-20" transform="translate(75 0)"/>
      <use xlink:href="#TimesNewRomanPSMT-3" transform="translate(131.390625 0)"/>
      <use xlink:href="#TimesNewRomanPSMT-10" transform="translate(156.390625 0)"/>
      <use xlink:href="#TimesNewRomanPSMT-13" transform="translate(189.6875 0)"/>
      <use xlink:href="#TimesNewRomanPSMT-11" transform="translate(239.6875 0)"/>
      <use xlink:href="#TimesNewRomanPSMT-15" transform="translate(264.6875 0)"/>
      <use xlink:href="#TimesNewRomanPSMT-18" transform="translate(314.6875 0)"/>
      <use xlink:href="#TimesNewRomanPSMT-3" transform="translate(364.6875 0)"/>
      <use xlink:href="#TimesNewRomanPSMT-50" transform="translate(389.6875 0)"/>
      <use xlink:href="#TimesNewRomanPSMT-12" transform="translate(467.46875 0)"/>
      <use xlink:href="#TimesNewRomanPSMT-56" transform="translate(495.25 0)"/>
     </g>
    </g>
   </g>
  </g>
  <g id="axes_3">
   <g id="patch_19">
    <path d="M 425.693991 196.229896 
L 686.794134 196.229896 
L 686.794134 120.480104 
L 425.693991 120.480104 
z
" style="fill: #ffffff"/>
   </g>
   <g id="matplotlib.axis_5">
    <g id="xtick_14">
     <g id="line2d_28">
      <path d="M 425.693991 196.229896 
L 425.693991 120.480104 
" clip-path="url(#p5d643f9a8a)" style="fill: none; stroke: #cccccc; stroke-linecap: round"/>
     </g>
     <g id="text_29">
      <!-- 0 -->
      <g style="fill: #262626" transform="translate(422.693991 214.050208) scale(0.12 -0.12)">
       <use xlink:href="#TimesNewRomanPSMT-13"/>
      </g>
     </g>
    </g>
    <g id="xtick_15">
     <g id="line2d_29">
      <path d="M 477.91402 196.229896 
L 477.91402 120.480104 
" clip-path="url(#p5d643f9a8a)" style="fill: none; stroke: #cccccc; stroke-linecap: round"/>
     </g>
     <g id="text_30">
      <!-- 1 -->
      <g style="fill: #262626" transform="translate(474.91402 214.050208) scale(0.12 -0.12)">
       <use xlink:href="#TimesNewRomanPSMT-14"/>
      </g>
     </g>
    </g>
    <g id="xtick_16">
     <g id="line2d_30">
      <path d="M 530.134048 196.229896 
L 530.134048 120.480104 
" clip-path="url(#p5d643f9a8a)" style="fill: none; stroke: #cccccc; stroke-linecap: round"/>
     </g>
     <g id="text_31">
      <!-- 2 -->
      <g style="fill: #262626" transform="translate(527.134048 214.050208) scale(0.12 -0.12)">
       <use xlink:href="#TimesNewRomanPSMT-15"/>
      </g>
     </g>
    </g>
    <g id="xtick_17">
     <g id="line2d_31">
      <path d="M 582.354077 196.229896 
L 582.354077 120.480104 
" clip-path="url(#p5d643f9a8a)" style="fill: none; stroke: #cccccc; stroke-linecap: round"/>
     </g>
     <g id="text_32">
      <!-- 3 -->
      <g style="fill: #262626" transform="translate(579.354077 214.050208) scale(0.12 -0.12)">
       <use xlink:href="#TimesNewRomanPSMT-16"/>
      </g>
     </g>
    </g>
    <g id="xtick_18">
     <g id="line2d_32">
      <path d="M 634.574105 196.229896 
L 634.574105 120.480104 
" clip-path="url(#p5d643f9a8a)" style="fill: none; stroke: #cccccc; stroke-linecap: round"/>
     </g>
     <g id="text_33">
      <!-- 4 -->
      <g style="fill: #262626" transform="translate(631.574105 214.050208) scale(0.12 -0.12)">
       <use xlink:href="#TimesNewRomanPSMT-17"/>
      </g>
     </g>
    </g>
    <g id="xtick_19">
     <g id="line2d_33">
      <path d="M 686.794134 196.229896 
L 686.794134 120.480104 
" clip-path="url(#p5d643f9a8a)" style="fill: none; stroke: #cccccc; stroke-linecap: round"/>
     </g>
     <g id="text_34">
      <!-- 5 -->
      <g style="fill: #262626" transform="translate(683.794134 214.050208) scale(0.12 -0.12)">
       <use xlink:href="#TimesNewRomanPSMT-18"/>
      </g>
     </g>
    </g>
   </g>
   <g id="matplotlib.axis_6">
    <g id="ytick_11">
     <g id="line2d_34">
      <path d="M 425.693991 183.604931 
L 686.794134 183.604931 
" clip-path="url(#p5d643f9a8a)" style="fill: none; stroke: #cccccc; stroke-linecap: round"/>
     </g>
     <g id="text_35">
      <!-- −1 -->
      <g style="fill: #262626" transform="translate(403.427116 187.765087) scale(0.12 -0.12)">
       <use xlink:href="#TimesNewRomanPSMT-ed"/>
       <use xlink:href="#TimesNewRomanPSMT-14" transform="translate(56.390625 0)"/>
      </g>
     </g>
    </g>
    <g id="ytick_12">
     <g id="line2d_35">
      <path d="M 425.693991 158.355 
L 686.794134 158.355 
" clip-path="url(#p5d643f9a8a)" style="fill: none; stroke: #cccccc; stroke-linecap: round"/>
     </g>
     <g id="text_36">
      <!-- 0 -->
      <g style="fill: #262626" transform="translate(410.193991 162.515156) scale(0.12 -0.12)">
       <use xlink:href="#TimesNewRomanPSMT-13"/>
      </g>
     </g>
    </g>
    <g id="ytick_13">
     <g id="line2d_36">
      <path d="M 425.693991 133.105069 
L 686.794134 133.105069 
" clip-path="url(#p5d643f9a8a)" style="fill: none; stroke: #cccccc; stroke-linecap: round"/>
     </g>
     <g id="text_37">
      <!-- 1 -->
      <g style="fill: #262626" transform="translate(410.193991 137.265226) scale(0.12 -0.12)">
       <use xlink:href="#TimesNewRomanPSMT-14"/>
      </g>
     </g>
    </g>
    <g id="text_38">
     <!-- $\omega$ (rad/s) -->
     <g style="fill: #262626" transform="translate(396.787116 180.555) rotate(-90) scale(0.12 -0.12)">
      <defs>
       <path id="TimesNewRomanPSMT-55" d="M 1038 2947 
L 1038 2303 
Q 1397 2947 1775 2947 
Q 1947 2947 2059 2842 
Q 2172 2738 2172 2600 
Q 2172 2478 2090 2393 
Q 2009 2309 1897 2309 
Q 1788 2309 1652 2417 
Q 1516 2525 1450 2525 
Q 1394 2525 1328 2463 
Q 1188 2334 1038 2041 
L 1038 669 
Q 1038 431 1097 309 
Q 1138 225 1241 169 
Q 1344 113 1538 113 
L 1538 0 
L 72 0 
L 72 113 
Q 291 113 397 181 
Q 475 231 506 341 
Q 522 394 522 644 
L 522 1753 
Q 522 2253 501 2348 
Q 481 2444 426 2487 
Q 372 2531 291 2531 
Q 194 2531 72 2484 
L 41 2597 
L 906 2947 
L 1038 2947 
z
" transform="scale(0.015625)"/>
       <path id="TimesNewRomanPSMT-44" d="M 1822 413 
Q 1381 72 1269 19 
Q 1100 -59 909 -59 
Q 613 -59 420 144 
Q 228 347 228 678 
Q 228 888 322 1041 
Q 450 1253 767 1440 
Q 1084 1628 1822 1897 
L 1822 2009 
Q 1822 2438 1686 2597 
Q 1550 2756 1291 2756 
Q 1094 2756 978 2650 
Q 859 2544 859 2406 
L 866 2225 
Q 866 2081 792 2003 
Q 719 1925 600 1925 
Q 484 1925 411 2006 
Q 338 2088 338 2228 
Q 338 2497 613 2722 
Q 888 2947 1384 2947 
Q 1766 2947 2009 2819 
Q 2194 2722 2281 2516 
Q 2338 2381 2338 1966 
L 2338 994 
Q 2338 584 2353 492 
Q 2369 400 2405 369 
Q 2441 338 2488 338 
Q 2538 338 2575 359 
Q 2641 400 2828 588 
L 2828 413 
Q 2478 -56 2159 -56 
Q 2006 -56 1915 50 
Q 1825 156 1822 413 
z
M 1822 616 
L 1822 1706 
Q 1350 1519 1213 1441 
Q 966 1303 859 1153 
Q 753 1003 753 825 
Q 753 600 887 451 
Q 1022 303 1197 303 
Q 1434 303 1822 616 
z
" transform="scale(0.015625)"/>
       <path id="TimesNewRomanPSMT-47" d="M 2222 322 
Q 2013 103 1813 7 
Q 1613 -88 1381 -88 
Q 913 -88 563 304 
Q 213 697 213 1313 
Q 213 1928 600 2439 
Q 988 2950 1597 2950 
Q 1975 2950 2222 2709 
L 2222 3238 
Q 2222 3728 2198 3840 
Q 2175 3953 2125 3993 
Q 2075 4034 2000 4034 
Q 1919 4034 1784 3984 
L 1744 4094 
L 2597 4444 
L 2738 4444 
L 2738 1134 
Q 2738 631 2761 520 
Q 2784 409 2836 365 
Q 2888 322 2956 322 
Q 3041 322 3181 375 
L 3216 266 
L 2366 -88 
L 2222 -88 
L 2222 322 
z
M 2222 541 
L 2222 2016 
Q 2203 2228 2109 2403 
Q 2016 2578 1861 2667 
Q 1706 2756 1559 2756 
Q 1284 2756 1069 2509 
Q 784 2184 784 1559 
Q 784 928 1059 592 
Q 1334 256 1672 256 
Q 1956 256 2222 541 
z
" transform="scale(0.015625)"/>
      </defs>
      <use xlink:href="#DejaVuSans-Oblique-35d" transform="translate(0 0.5625)"/>
      <use xlink:href="#TimesNewRomanPSMT-3" transform="translate(83.740234 0.5625)"/>
      <use xlink:href="#TimesNewRomanPSMT-b" transform="translate(108.740234 0.5625)"/>
      <use xlink:href="#TimesNewRomanPSMT-55" transform="translate(142.041016 0.5625)"/>
      <use xlink:href="#TimesNewRomanPSMT-44" transform="translate(175.341797 0.5625)"/>
      <use xlink:href="#TimesNewRomanPSMT-47" transform="translate(219.726562 0.5625)"/>
      <use xlink:href="#TimesNewRomanPSMT-12" transform="translate(269.726562 0.5625)"/>
      <use xlink:href="#TimesNewRomanPSMT-56" transform="translate(297.509766 0.5625)"/>
      <use xlink:href="#TimesNewRomanPSMT-c" transform="translate(336.425781 0.5625)"/>
     </g>
    </g>
   </g>
   <g id="line2d_37">
    <path d="M 425.693991 158.355 
L 428.331367 158.355 
L 430.968742 158.355 
L 433.606117 158.355 
L 436.243492 158.355 
L 438.880867 158.355 
L 441.518243 158.355 
L 444.155618 158.355 
L 446.792993 158.355 
L 449.430368 158.355 
L 452.067743 158.355 
L 454.705118 158.355 
L 457.342494 158.355 
L 459.979869 158.355 
L 462.617244 158.355 
L 465.254619 158.355 
L 467.891994 158.355 
L 470.529369 158.355 
L 473.166745 158.355 
L 475.80412 158.355 
L 478.441495 158.355 
L 481.07887 158.355 
L 483.716245 158.355 
L 486.35362 158.355 
L 488.990996 158.355 
L 491.628371 158.355 
L 494.265746 158.355 
L 496.903121 158.355 
L 499.540496 158.355 
L 502.177871 158.355 
L 504.815247 158.355 
L 507.452622 158.355 
L 510.089997 158.355 
L 512.727372 158.355 
L 515.364747 158.355 
L 518.002123 158.355 
L 520.639498 158.355 
L 523.276873 158.355 
L 525.914248 158.355 
L 528.551623 158.355 
L 531.188998 158.355 
L 533.826374 158.355 
L 536.463749 158.355 
L 539.101124 158.355 
L 541.738499 158.355 
L 544.375874 158.355 
L 547.013249 158.355 
L 549.650625 158.355 
L 552.288 158.355 
L 554.925375 158.355 
L 557.56275 158.355 
L 560.200125 158.355 
L 562.8375 158.355 
L 565.474876 158.355 
L 568.112251 158.355 
L 570.749626 158.355 
L 573.387001 158.355 
L 576.024376 158.355 
L 578.661751 158.355 
L 581.299127 158.355 
L 583.936502 158.355 
L 586.573877 158.355 
L 589.211252 158.355 
L 591.848627 158.355 
L 594.486002 158.355 
L 597.123378 158.355 
L 599.760753 158.355 
L 602.398128 158.355 
L 605.035503 158.355 
L 607.672878 158.355 
L 610.310254 158.355 
L 612.947629 158.355 
L 615.585004 158.355 
L 618.222379 158.355 
L 620.859754 158.355 
L 623.497129 158.355 
L 626.134505 158.355 
L 628.77188 158.355 
L 631.409255 158.355 
L 634.04663 158.355 
L 636.684005 158.355 
L 639.32138 158.355 
L 641.958756 158.355 
L 644.596131 158.355 
L 647.233506 158.355 
L 649.870881 158.355 
L 652.508256 158.355 
L 655.145631 158.355 
L 657.783007 158.355 
L 660.420382 158.355 
L 663.057757 158.355 
L 665.695132 158.355 
L 668.332507 158.355 
L 670.969882 158.355 
L 673.607258 158.355 
L 676.244633 158.355 
L 678.882008 158.355 
L 681.519383 158.355 
L 684.156758 158.355 
L 686.794134 158.355 
" clip-path="url(#p5d643f9a8a)" style="fill: none; stroke: #ff0000; stroke-width: 2; stroke-linecap: round"/>
   </g>
   <g id="patch_20">
    <path d="M 425.693991 196.229896 
L 425.693991 120.480104 
" style="fill: none; stroke: #cccccc; stroke-width: 1.25; stroke-linejoin: miter; stroke-linecap: square"/>
   </g>
   <g id="patch_21">
    <path d="M 686.794134 196.229896 
L 686.794134 120.480104 
" style="fill: none; stroke: #cccccc; stroke-width: 1.25; stroke-linejoin: miter; stroke-linecap: square"/>
   </g>
   <g id="patch_22">
    <path d="M 425.693991 196.229896 
L 686.794134 196.229896 
" style="fill: none; stroke: #cccccc; stroke-width: 1.25; stroke-linejoin: miter; stroke-linecap: square"/>
   </g>
   <g id="patch_23">
    <path d="M 425.693991 120.480104 
L 686.794134 120.480104 
" style="fill: none; stroke: #cccccc; stroke-width: 1.25; stroke-linejoin: miter; stroke-linecap: square"/>
   </g>
   <g id="legend_3">
    <g id="patch_24">
     <path d="M 579.544134 144.854128 
L 679.094134 144.854128 
Q 681.294134 144.854128 681.294134 142.654128 
L 681.294134 128.180104 
Q 681.294134 125.980104 679.094134 125.980104 
L 579.544134 125.980104 
Q 577.344134 125.980104 577.344134 128.180104 
L 577.344134 142.654128 
Q 577.344134 144.854128 579.544134 144.854128 
z
" style="fill: #ffffff; opacity: 0.8; stroke: #cccccc; stroke-linejoin: miter"/>
    </g>
    <g id="line2d_38">
     <path d="M 581.744134 134.230104 
L 592.744134 134.230104 
L 603.744134 134.230104 
" style="fill: none; stroke: #ff0000; stroke-width: 2; stroke-linecap: round"/>
    </g>
    <g id="text_39">
     <!-- $\omega$ = 0.00 rad/s -->
     <g style="fill: #262626" transform="translate(612.544134 138.080104) scale(0.11 -0.11)">
      <use xlink:href="#DejaVuSans-Oblique-35d" transform="translate(0 0.5625)"/>
      <use xlink:href="#TimesNewRomanPSMT-3" transform="translate(83.740234 0.5625)"/>
      <use xlink:href="#TimesNewRomanPSMT-20" transform="translate(108.740234 0.5625)"/>
      <use xlink:href="#TimesNewRomanPSMT-3" transform="translate(165.136719 0.5625)"/>
      <use xlink:href="#TimesNewRomanPSMT-13" transform="translate(190.136719 0.5625)"/>
      <use xlink:href="#TimesNewRomanPSMT-11" transform="translate(240.136719 0.5625)"/>
      <use xlink:href="#TimesNewRomanPSMT-13" transform="translate(265.136719 0.5625)"/>
      <use xlink:href="#TimesNewRomanPSMT-13" transform="translate(315.136719 0.5625)"/>
      <use xlink:href="#TimesNewRomanPSMT-3" transform="translate(365.136719 0.5625)"/>
      <use xlink:href="#TimesNewRomanPSMT-55" transform="translate(390.136719 0.5625)"/>
      <use xlink:href="#TimesNewRomanPSMT-44" transform="translate(423.4375 0.5625)"/>
      <use xlink:href="#TimesNewRomanPSMT-47" transform="translate(467.822266 0.5625)"/>
      <use xlink:href="#TimesNewRomanPSMT-12" transform="translate(517.822266 0.5625)"/>
      <use xlink:href="#TimesNewRomanPSMT-56" transform="translate(545.605469 0.5625)"/>
     </g>
    </g>
   </g>
  </g>
  <g id="axes_4">
   <g id="patch_25">
    <path d="M 425.693991 305.349844 
L 686.794134 305.349844 
L 686.794134 229.600052 
L 425.693991 229.600052 
z
" style="fill: #ffffff"/>
   </g>
   <g id="matplotlib.axis_7">
    <g id="xtick_20">
     <g id="line2d_39">
      <path d="M 425.693991 305.349844 
L 425.693991 229.600052 
" clip-path="url(#p4f5208d87c)" style="fill: none; stroke: #cccccc; stroke-linecap: round"/>
     </g>
     <g id="text_40">
      <!-- 0 -->
      <g style="fill: #262626" transform="translate(422.693991 323.170156) scale(0.12 -0.12)">
       <use xlink:href="#TimesNewRomanPSMT-13"/>
      </g>
     </g>
    </g>
    <g id="xtick_21">
     <g id="line2d_40">
      <path d="M 477.91402 305.349844 
L 477.91402 229.600052 
" clip-path="url(#p4f5208d87c)" style="fill: none; stroke: #cccccc; stroke-linecap: round"/>
     </g>
     <g id="text_41">
      <!-- 1 -->
      <g style="fill: #262626" transform="translate(474.91402 323.170156) scale(0.12 -0.12)">
       <use xlink:href="#TimesNewRomanPSMT-14"/>
      </g>
     </g>
    </g>
    <g id="xtick_22">
     <g id="line2d_41">
      <path d="M 530.134048 305.349844 
L 530.134048 229.600052 
" clip-path="url(#p4f5208d87c)" style="fill: none; stroke: #cccccc; stroke-linecap: round"/>
     </g>
     <g id="text_42">
      <!-- 2 -->
      <g style="fill: #262626" transform="translate(527.134048 323.170156) scale(0.12 -0.12)">
       <use xlink:href="#TimesNewRomanPSMT-15"/>
      </g>
     </g>
    </g>
    <g id="xtick_23">
     <g id="line2d_42">
      <path d="M 582.354077 305.349844 
L 582.354077 229.600052 
" clip-path="url(#p4f5208d87c)" style="fill: none; stroke: #cccccc; stroke-linecap: round"/>
     </g>
     <g id="text_43">
      <!-- 3 -->
      <g style="fill: #262626" transform="translate(579.354077 323.170156) scale(0.12 -0.12)">
       <use xlink:href="#TimesNewRomanPSMT-16"/>
      </g>
     </g>
    </g>
    <g id="xtick_24">
     <g id="line2d_43">
      <path d="M 634.574105 305.349844 
L 634.574105 229.600052 
" clip-path="url(#p4f5208d87c)" style="fill: none; stroke: #cccccc; stroke-linecap: round"/>
     </g>
     <g id="text_44">
      <!-- 4 -->
      <g style="fill: #262626" transform="translate(631.574105 323.170156) scale(0.12 -0.12)">
       <use xlink:href="#TimesNewRomanPSMT-17"/>
      </g>
     </g>
    </g>
    <g id="xtick_25">
     <g id="line2d_44">
      <path d="M 686.794134 305.349844 
L 686.794134 229.600052 
" clip-path="url(#p4f5208d87c)" style="fill: none; stroke: #cccccc; stroke-linecap: round"/>
     </g>
     <g id="text_45">
      <!-- 5 -->
      <g style="fill: #262626" transform="translate(683.794134 323.170156) scale(0.12 -0.12)">
       <use xlink:href="#TimesNewRomanPSMT-18"/>
      </g>
     </g>
    </g>
    <g id="text_46">
     <!-- Tempo (s) -->
     <g style="fill: #262626" transform="translate(531.837188 338.0925) scale(0.12 -0.12)">
      <defs>
       <path id="TimesNewRomanPSMT-37" d="M 3703 4238 
L 3750 3244 
L 3631 3244 
Q 3597 3506 3538 3619 
Q 3441 3800 3280 3886 
Q 3119 3972 2856 3972 
L 2259 3972 
L 2259 734 
Q 2259 344 2344 247 
Q 2463 116 2709 116 
L 2856 116 
L 2856 0 
L 1059 0 
L 1059 116 
L 1209 116 
Q 1478 116 1591 278 
Q 1659 378 1659 734 
L 1659 3972 
L 1150 3972 
Q 853 3972 728 3928 
Q 566 3869 450 3700 
Q 334 3531 313 3244 
L 194 3244 
L 244 4238 
L 3703 4238 
z
" transform="scale(0.015625)"/>
       <path id="TimesNewRomanPSMT-48" d="M 681 1784 
Q 678 1147 991 784 
Q 1303 422 1725 422 
Q 2006 422 2214 576 
Q 2422 731 2563 1106 
L 2659 1044 
Q 2594 616 2278 264 
Q 1963 -88 1488 -88 
Q 972 -88 605 314 
Q 238 716 238 1394 
Q 238 2128 614 2539 
Q 991 2950 1559 2950 
Q 2041 2950 2350 2633 
Q 2659 2316 2659 1784 
L 681 1784 
z
M 681 1966 
L 2006 1966 
Q 1991 2241 1941 2353 
Q 1863 2528 1708 2628 
Q 1553 2728 1384 2728 
Q 1125 2728 920 2526 
Q 716 2325 681 1966 
z
" transform="scale(0.015625)"/>
       <path id="TimesNewRomanPSMT-53" d="M -6 2578 
L 875 2934 
L 994 2934 
L 994 2266 
Q 1216 2644 1439 2795 
Q 1663 2947 1909 2947 
Q 2341 2947 2628 2609 
Q 2981 2197 2981 1534 
Q 2981 794 2556 309 
Q 2206 -88 1675 -88 
Q 1444 -88 1275 -22 
Q 1150 25 994 166 
L 994 -706 
Q 994 -1000 1030 -1079 
Q 1066 -1159 1155 -1206 
Q 1244 -1253 1478 -1253 
L 1478 -1369 
L -22 -1369 
L -22 -1253 
L 56 -1253 
Q 228 -1256 350 -1188 
Q 409 -1153 442 -1076 
Q 475 -1000 475 -688 
L 475 2019 
Q 475 2297 450 2372 
Q 425 2447 370 2484 
Q 316 2522 222 2522 
Q 147 2522 31 2478 
L -6 2578 
z
M 994 2081 
L 994 1013 
Q 994 666 1022 556 
Q 1066 375 1236 237 
Q 1406 100 1666 100 
Q 1978 100 2172 344 
Q 2425 663 2425 1241 
Q 2425 1897 2138 2250 
Q 1938 2494 1663 2494 
Q 1513 2494 1366 2419 
Q 1253 2363 994 2081 
z
" transform="scale(0.015625)"/>
      </defs>
      <use xlink:href="#TimesNewRomanPSMT-37"/>
      <use xlink:href="#TimesNewRomanPSMT-48" transform="translate(54.09375 0)"/>
      <use xlink:href="#TimesNewRomanPSMT-50" transform="translate(98.484375 0)"/>
      <use xlink:href="#TimesNewRomanPSMT-53" transform="translate(176.265625 0)"/>
      <use xlink:href="#TimesNewRomanPSMT-52" transform="translate(226.265625 0)"/>
      <use xlink:href="#TimesNewRomanPSMT-3" transform="translate(276.265625 0)"/>
      <use xlink:href="#TimesNewRomanPSMT-b" transform="translate(301.265625 0)"/>
      <use xlink:href="#TimesNewRomanPSMT-56" transform="translate(334.5625 0)"/>
      <use xlink:href="#TimesNewRomanPSMT-c" transform="translate(373.484375 0)"/>
     </g>
    </g>
   </g>
   <g id="matplotlib.axis_8">
    <g id="ytick_14">
     <g id="line2d_45">
      <path d="M 425.693991 292.724878 
L 686.794134 292.724878 
" clip-path="url(#p4f5208d87c)" style="fill: none; stroke: #cccccc; stroke-linecap: round"/>
     </g>
     <g id="text_47">
      <!-- −10 -->
      <g style="fill: #262626" transform="translate(397.427116 296.885035) scale(0.12 -0.12)">
       <use xlink:href="#TimesNewRomanPSMT-ed"/>
       <use xlink:href="#TimesNewRomanPSMT-14" transform="translate(56.390625 0)"/>
       <use xlink:href="#TimesNewRomanPSMT-13" transform="translate(106.390625 0)"/>
      </g>
     </g>
    </g>
    <g id="ytick_15">
     <g id="line2d_46">
      <path d="M 425.693991 267.474948 
L 686.794134 267.474948 
" clip-path="url(#p4f5208d87c)" style="fill: none; stroke: #cccccc; stroke-linecap: round"/>
     </g>
     <g id="text_48">
      <!-- 0 -->
      <g style="fill: #262626" transform="translate(410.193991 271.635104) scale(0.12 -0.12)">
       <use xlink:href="#TimesNewRomanPSMT-13"/>
      </g>
     </g>
    </g>
    <g id="ytick_16">
     <g id="line2d_47">
      <path d="M 425.693991 242.225017 
L 686.794134 242.225017 
" clip-path="url(#p4f5208d87c)" style="fill: none; stroke: #cccccc; stroke-linecap: round"/>
     </g>
     <g id="text_49">
      <!-- 10 -->
      <g style="fill: #262626" transform="translate(404.193991 246.385174) scale(0.12 -0.12)">
       <use xlink:href="#TimesNewRomanPSMT-14"/>
       <use xlink:href="#TimesNewRomanPSMT-13" transform="translate(50 0)"/>
      </g>
     </g>
    </g>
    <g id="text_50">
     <!-- Rodas (rad/s) -->
     <g style="fill: #262626" transform="translate(390.837273 299.634948) rotate(-90) scale(0.12 -0.12)">
      <defs>
       <path id="TimesNewRomanPSMT-35" d="M 4325 0 
L 3194 0 
L 1759 1981 
Q 1600 1975 1500 1975 
Q 1459 1975 1412 1976 
Q 1366 1978 1316 1981 
L 1316 750 
Q 1316 350 1403 253 
Q 1522 116 1759 116 
L 1925 116 
L 1925 0 
L 109 0 
L 109 116 
L 269 116 
Q 538 116 653 291 
Q 719 388 719 750 
L 719 3488 
Q 719 3888 631 3984 
Q 509 4122 269 4122 
L 109 4122 
L 109 4238 
L 1653 4238 
Q 2328 4238 2648 4139 
Q 2969 4041 3192 3777 
Q 3416 3513 3416 3147 
Q 3416 2756 3161 2468 
Q 2906 2181 2372 2063 
L 3247 847 
Q 3547 428 3762 290 
Q 3978 153 4325 116 
L 4325 0 
z
M 1316 2178 
Q 1375 2178 1419 2176 
Q 1463 2175 1491 2175 
Q 2097 2175 2405 2437 
Q 2713 2700 2713 3106 
Q 2713 3503 2464 3751 
Q 2216 4000 1806 4000 
Q 1625 4000 1316 3941 
L 1316 2178 
z
" transform="scale(0.015625)"/>
      </defs>
      <use xlink:href="#TimesNewRomanPSMT-35"/>
      <use xlink:href="#TimesNewRomanPSMT-52" transform="translate(66.703125 0)"/>
      <use xlink:href="#TimesNewRomanPSMT-47" transform="translate(116.703125 0)"/>
      <use xlink:href="#TimesNewRomanPSMT-44" transform="translate(166.703125 0)"/>
      <use xlink:href="#TimesNewRomanPSMT-56" transform="translate(211.09375 0)"/>
      <use xlink:href="#TimesNewRomanPSMT-3" transform="translate(250.015625 0)"/>
      <use xlink:href="#TimesNewRomanPSMT-b" transform="translate(275.015625 0)"/>
      <use xlink:href="#TimesNewRomanPSMT-55" transform="translate(308.3125 0)"/>
      <use xlink:href="#TimesNewRomanPSMT-44" transform="translate(341.609375 0)"/>
      <use xlink:href="#TimesNewRomanPSMT-47" transform="translate(386 0)"/>
      <use xlink:href="#TimesNewRomanPSMT-12" transform="translate(436 0)"/>
      <use xlink:href="#TimesNewRomanPSMT-56" transform="translate(463.78125 0)"/>
      <use xlink:href="#TimesNewRomanPSMT-c" transform="translate(502.703125 0)"/>
     </g>
    </g>
   </g>
   <g id="line2d_48">
    <path d="M 425.693991 280.099913 
L 428.331367 280.099913 
L 430.968742 280.099913 
L 433.606117 280.099913 
L 436.243492 280.099913 
L 438.880867 280.099913 
L 441.518243 280.099913 
L 444.155618 280.099913 
L 446.792993 280.099913 
L 449.430368 280.099913 
L 452.067743 280.099913 
L 454.705118 280.099913 
L 457.342494 280.099913 
L 459.979869 280.099913 
L 462.617244 280.099913 
L 465.254619 280.099913 
L 467.891994 280.099913 
L 470.529369 280.099913 
L 473.166745 280.099913 
L 475.80412 280.099913 
L 478.441495 280.099913 
L 481.07887 280.099913 
L 483.716245 280.099913 
L 486.35362 280.099913 
L 488.990996 280.099913 
L 491.628371 280.099913 
L 494.265746 280.099913 
L 496.903121 280.099913 
L 499.540496 280.099913 
L 502.177871 280.099913 
L 504.815247 280.099913 
L 507.452622 280.099913 
L 510.089997 280.099913 
L 512.727372 280.099913 
L 515.364747 280.099913 
L 518.002123 280.099913 
L 520.639498 280.099913 
L 523.276873 280.099913 
L 525.914248 280.099913 
L 528.551623 280.099913 
L 531.188998 280.099913 
L 533.826374 280.099913 
L 536.463749 280.099913 
L 539.101124 280.099913 
L 541.738499 280.099913 
L 544.375874 280.099913 
L 547.013249 280.099913 
L 549.650625 280.099913 
L 552.288 280.099913 
L 554.925375 280.099913 
L 557.56275 280.099913 
L 560.200125 280.099913 
L 562.8375 280.099913 
L 565.474876 280.099913 
L 568.112251 280.099913 
L 570.749626 280.099913 
L 573.387001 280.099913 
L 576.024376 280.099913 
L 578.661751 280.099913 
L 581.299127 280.099913 
L 583.936502 280.099913 
L 586.573877 280.099913 
L 589.211252 280.099913 
L 591.848627 280.099913 
L 594.486002 280.099913 
L 597.123378 280.099913 
L 599.760753 280.099913 
L 602.398128 280.099913 
L 605.035503 280.099913 
L 607.672878 280.099913 
L 610.310254 280.099913 
L 612.947629 280.099913 
L 615.585004 280.099913 
L 618.222379 280.099913 
L 620.859754 280.099913 
L 623.497129 280.099913 
L 626.134505 280.099913 
L 628.77188 280.099913 
L 631.409255 280.099913 
L 634.04663 280.099913 
L 636.684005 280.099913 
L 639.32138 280.099913 
L 641.958756 280.099913 
L 644.596131 280.099913 
L 647.233506 280.099913 
L 649.870881 280.099913 
L 652.508256 280.099913 
L 655.145631 280.099913 
L 657.783007 280.099913 
L 660.420382 280.099913 
L 663.057757 280.099913 
L 665.695132 280.099913 
L 668.332507 280.099913 
L 670.969882 280.099913 
L 673.607258 280.099913 
L 676.244633 280.099913 
L 678.882008 280.099913 
L 681.519383 280.099913 
L 684.156758 280.099913 
L 686.794134 280.099913 
" clip-path="url(#p4f5208d87c)" style="fill: none; stroke: #008000; stroke-width: 2; stroke-linecap: round"/>
   </g>
   <g id="line2d_49">
    <path d="M 425.693991 280.099913 
L 428.331367 280.099913 
L 430.968742 280.099913 
L 433.606117 280.099913 
L 436.243492 280.099913 
L 438.880867 280.099913 
L 441.518243 280.099913 
L 444.155618 280.099913 
L 446.792993 280.099913 
L 449.430368 280.099913 
L 452.067743 280.099913 
L 454.705118 280.099913 
L 457.342494 280.099913 
L 459.979869 280.099913 
L 462.617244 280.099913 
L 465.254619 280.099913 
L 467.891994 280.099913 
L 470.529369 280.099913 
L 473.166745 280.099913 
L 475.80412 280.099913 
L 478.441495 280.099913 
L 481.07887 280.099913 
L 483.716245 280.099913 
L 486.35362 280.099913 
L 488.990996 280.099913 
L 491.628371 280.099913 
L 494.265746 280.099913 
L 496.903121 280.099913 
L 499.540496 280.099913 
L 502.177871 280.099913 
L 504.815247 280.099913 
L 507.452622 280.099913 
L 510.089997 280.099913 
L 512.727372 280.099913 
L 515.364747 280.099913 
L 518.002123 280.099913 
L 520.639498 280.099913 
L 523.276873 280.099913 
L 525.914248 280.099913 
L 528.551623 280.099913 
L 531.188998 280.099913 
L 533.826374 280.099913 
L 536.463749 280.099913 
L 539.101124 280.099913 
L 541.738499 280.099913 
L 544.375874 280.099913 
L 547.013249 280.099913 
L 549.650625 280.099913 
L 552.288 280.099913 
L 554.925375 280.099913 
L 557.56275 280.099913 
L 560.200125 280.099913 
L 562.8375 280.099913 
L 565.474876 280.099913 
L 568.112251 280.099913 
L 570.749626 280.099913 
L 573.387001 280.099913 
L 576.024376 280.099913 
L 578.661751 280.099913 
L 581.299127 280.099913 
L 583.936502 280.099913 
L 586.573877 280.099913 
L 589.211252 280.099913 
L 591.848627 280.099913 
L 594.486002 280.099913 
L 597.123378 280.099913 
L 599.760753 280.099913 
L 602.398128 280.099913 
L 605.035503 280.099913 
L 607.672878 280.099913 
L 610.310254 280.099913 
L 612.947629 280.099913 
L 615.585004 280.099913 
L 618.222379 280.099913 
L 620.859754 280.099913 
L 623.497129 280.099913 
L 626.134505 280.099913 
L 628.77188 280.099913 
L 631.409255 280.099913 
L 634.04663 280.099913 
L 636.684005 280.099913 
L 639.32138 280.099913 
L 641.958756 280.099913 
L 644.596131 280.099913 
L 647.233506 280.099913 
L 649.870881 280.099913 
L 652.508256 280.099913 
L 655.145631 280.099913 
L 657.783007 280.099913 
L 660.420382 280.099913 
L 663.057757 280.099913 
L 665.695132 280.099913 
L 668.332507 280.099913 
L 670.969882 280.099913 
L 673.607258 280.099913 
L 676.244633 280.099913 
L 678.882008 280.099913 
L 681.519383 280.099913 
L 684.156758 280.099913 
L 686.794134 280.099913 
" clip-path="url(#p4f5208d87c)" style="fill: none; stroke: #ffa500; stroke-width: 2; stroke-linecap: round"/>
   </g>
   <g id="patch_26">
    <path d="M 425.693991 305.349844 
L 425.693991 229.600052 
" style="fill: none; stroke: #cccccc; stroke-width: 1.25; stroke-linejoin: miter; stroke-linecap: square"/>
   </g>
   <g id="patch_27">
    <path d="M 686.794134 305.349844 
L 686.794134 229.600052 
" style="fill: none; stroke: #cccccc; stroke-width: 1.25; stroke-linejoin: miter; stroke-linecap: square"/>
   </g>
   <g id="patch_28">
    <path d="M 425.693991 305.349844 
L 686.794134 305.349844 
" style="fill: none; stroke: #cccccc; stroke-width: 1.25; stroke-linejoin: miter; stroke-linecap: square"/>
   </g>
   <g id="patch_29">
    <path d="M 425.693991 229.600052 
L 686.794134 229.600052 
" style="fill: none; stroke: #cccccc; stroke-width: 1.25; stroke-linejoin: miter; stroke-linecap: square"/>
   </g>
   <g id="legend_4">
    <g id="patch_30">
     <path d="M 570.194134 269.548099 
L 679.094134 269.548099 
Q 681.294134 269.548099 681.294134 267.348099 
L 681.294134 237.300052 
Q 681.294134 235.100052 679.094134 235.100052 
L 570.194134 235.100052 
Q 567.994134 235.100052 567.994134 237.300052 
L 567.994134 267.348099 
Q 567.994134 269.548099 570.194134 269.548099 
z
" style="fill: #ffffff; opacity: 0.8; stroke: #cccccc; stroke-linejoin: miter"/>
    </g>
    <g id="line2d_50">
     <path d="M 572.394134 243.350052 
L 583.394134 243.350052 
L 594.394134 243.350052 
" style="fill: none; stroke: #008000; stroke-width: 2; stroke-linecap: round"/>
    </g>
    <g id="text_51">
     <!-- $\omega_L$ = -5.00 rad/s -->
     <g style="fill: #262626" transform="translate(603.194134 247.200052) scale(0.11 -0.11)">
      <use xlink:href="#DejaVuSans-Oblique-35d" transform="translate(0 0.5625)"/>
      <use xlink:href="#DejaVuSans-Oblique-2f" transform="translate(83.740234 -14.437451) scale(0.7)"/>
      <use xlink:href="#TimesNewRomanPSMT-3" transform="translate(125.473633 0.5625)"/>
      <use xlink:href="#TimesNewRomanPSMT-20" transform="translate(150.473633 0.5625)"/>
      <use xlink:href="#TimesNewRomanPSMT-3" transform="translate(206.870117 0.5625)"/>
      <use xlink:href="#TimesNewRomanPSMT-10" transform="translate(231.870117 0.5625)"/>
      <use xlink:href="#TimesNewRomanPSMT-18" transform="translate(265.170898 0.5625)"/>
      <use xlink:href="#TimesNewRomanPSMT-11" transform="translate(315.170898 0.5625)"/>
      <use xlink:href="#TimesNewRomanPSMT-13" transform="translate(340.170898 0.5625)"/>
      <use xlink:href="#TimesNewRomanPSMT-13" transform="translate(390.170898 0.5625)"/>
      <use xlink:href="#TimesNewRomanPSMT-3" transform="translate(440.170898 0.5625)"/>
      <use xlink:href="#TimesNewRomanPSMT-55" transform="translate(465.170898 0.5625)"/>
      <use xlink:href="#TimesNewRomanPSMT-44" transform="translate(498.47168 0.5625)"/>
      <use xlink:href="#TimesNewRomanPSMT-47" transform="translate(542.856445 0.5625)"/>
      <use xlink:href="#TimesNewRomanPSMT-12" transform="translate(592.856445 0.5625)"/>
      <use xlink:href="#TimesNewRomanPSMT-56" transform="translate(620.639648 0.5625)"/>
     </g>
    </g>
    <g id="line2d_51">
     <path d="M 572.394134 258.924076 
L 583.394134 258.924076 
L 594.394134 258.924076 
" style="fill: none; stroke: #ffa500; stroke-width: 2; stroke-linecap: round"/>
    </g>
    <g id="text_52">
     <!-- $\omega_R$ = -5.00 rad/s -->
     <g style="fill: #262626" transform="translate(603.194134 262.774076) scale(0.11 -0.11)">
      <use xlink:href="#DejaVuSans-Oblique-35d" transform="translate(0 0.5625)"/>
      <use xlink:href="#DejaVuSans-Oblique-35" transform="translate(83.740234 -14.437451) scale(0.7)"/>
      <use xlink:href="#TimesNewRomanPSMT-3" transform="translate(135.112305 0.5625)"/>
      <use xlink:href="#TimesNewRomanPSMT-20" transform="translate(160.112305 0.5625)"/>
      <use xlink:href="#TimesNewRomanPSMT-3" transform="translate(216.508789 0.5625)"/>
      <use xlink:href="#TimesNewRomanPSMT-10" transform="translate(241.508789 0.5625)"/>
      <use xlink:href="#TimesNewRomanPSMT-18" transform="translate(274.80957 0.5625)"/>
      <use xlink:href="#TimesNewRomanPSMT-11" transform="translate(324.80957 0.5625)"/>
      <use xlink:href="#TimesNewRomanPSMT-13" transform="translate(349.80957 0.5625)"/>
      <use xlink:href="#TimesNewRomanPSMT-13" transform="translate(399.80957 0.5625)"/>
      <use xlink:href="#TimesNewRomanPSMT-3" transform="translate(449.80957 0.5625)"/>
      <use xlink:href="#TimesNewRomanPSMT-55" transform="translate(474.80957 0.5625)"/>
      <use xlink:href="#TimesNewRomanPSMT-44" transform="translate(508.110352 0.5625)"/>
      <use xlink:href="#TimesNewRomanPSMT-47" transform="translate(552.495117 0.5625)"/>
      <use xlink:href="#TimesNewRomanPSMT-12" transform="translate(602.495117 0.5625)"/>
      <use xlink:href="#TimesNewRomanPSMT-56" transform="translate(630.27832 0.5625)"/>
     </g>
    </g>
   </g>
  </g>
 </g>
 <defs>
  <clipPath id="pcdf33848a8">
   <rect x="53.389219" y="11.360156" width="293.989687" height="293.989688"/>
  </clipPath>
  <clipPath id="p5ee2d23207">
   <rect x="425.693991" y="11.360156" width="261.100142" height="75.749792"/>
  </clipPath>
  <clipPath id="p5d643f9a8a">
   <rect x="425.693991" y="120.480104" width="261.100142" height="75.749792"/>
  </clipPath>
  <clipPath id="p4f5208d87c">
   <rect x="425.693991" y="229.600052" width="261.100142" height="75.749792"/>
  </clipPath>
 </defs>
</svg>
