<?xml version="1.0" encoding="UTF-8" standalone="no"?>
<!-- Created with Inkscape (http://www.inkscape.org/) -->

<svg
   width="160.10892mm"
   height="110.08859mm"
   viewBox="0 0 160.10892 110.08859"
   version="1.1"
   id="svg1"
   xml:space="preserve"
   inkscape:version="1.4.3 (0d15f75, 2025-12-25)"
   sodipodi:docname="cscascac.svg"
   xmlns:inkscape="http://www.inkscape.org/namespaces/inkscape"
   xmlns:sodipodi="http://sodipodi.sourceforge.net/DTD/sodipodi-0.dtd"
   xmlns:xlink="http://www.w3.org/1999/xlink"
   xmlns="http://www.w3.org/2000/svg"
   xmlns:svg="http://www.w3.org/2000/svg"><sodipodi:namedview
     id="namedview1"
     pagecolor="#ffffff"
     bordercolor="#000000"
     borderopacity="0.25"
     inkscape:showpageshadow="2"
     inkscape:pageopacity="0.0"
     inkscape:pagecheckerboard="0"
     inkscape:deskcolor="#d1d1d1"
     inkscape:document-units="mm"
     showgrid="true"
     inkscape:zoom="1.0167041"
     inkscape:cx="218.35262"
     inkscape:cy="438.1806"
     inkscape:window-width="1920"
     inkscape:window-height="1009"
     inkscape:window-x="-8"
     inkscape:window-y="-8"
     inkscape:window-maximized="1"
     inkscape:current-layer="layer1"><inkscape:grid
       id="grid1"
       units="mm"
       originx="-21.960417"
       originy="-79.63958"
       spacingx="0.99999998"
       spacingy="1"
       empcolor="#0099e5"
       empopacity="0.30196078"
       color="#0099e5"
       opacity="0.14901961"
       empspacing="5"
       enabled="true"
       visible="true" /><inkscape:page
       x="0"
       y="0"
       width="160.10892"
       height="110.08859"
       id="page2"
       margin="0"
       bleed="0" /></sodipodi:namedview><defs
     id="defs1"><marker
       style="overflow:visible"
       id="Stop"
       refX="0"
       refY="0"
       orient="auto"
       inkscape:stockid="Stop"
       markerWidth="1"
       markerHeight="1"
       viewBox="0 0 1 1"
       inkscape:isstock="true"
       inkscape:collect="always"
       preserveAspectRatio="xMidYMid"><path
         style="fill:none;stroke:context-stroke;stroke-width:1"
         d="M 0,4 V -4"
         id="path23" /></marker><marker
       style="overflow:visible"
       id="marker7"
       refX="0"
       refY="0"
       orient="auto-start-reverse"
       inkscape:stockid="Triangle arrow"
       markerWidth="1"
       markerHeight="1"
       viewBox="0 0 1 1"
       inkscape:isstock="true"
       inkscape:collect="always"
       preserveAspectRatio="xMidYMid"><path
         transform="scale(0.5)"
         style="fill:context-stroke;fill-rule:evenodd;stroke:context-stroke;stroke-width:1pt"
         d="M 5.77,0 -2.88,5 V -5 Z"
         id="path7" /></marker><marker
       style="overflow:visible"
       id="Triangle"
       refX="0"
       refY="0"
       orient="auto-start-reverse"
       inkscape:stockid="Triangle arrow"
       markerWidth="1"
       markerHeight="1"
       viewBox="0 0 1 1"
       inkscape:isstock="true"
       inkscape:collect="always"
       preserveAspectRatio="xMidYMid"><path
         transform="scale(0.5)"
         style="fill:context-stroke;fill-rule:evenodd;stroke:context-stroke;stroke-width:1pt"
         d="M 5.77,0 -2.88,5 V -5 Z"
         id="path135" /></marker><marker
       style="overflow:visible"
       id="marker7-6"
       refX="0"
       refY="0"
       orient="auto-start-reverse"
       inkscape:stockid="Triangle arrow"
       markerWidth="1"
       markerHeight="1"
       viewBox="0 0 1 1"
       inkscape:isstock="true"
       inkscape:collect="always"
       preserveAspectRatio="xMidYMid"><path
         transform="scale(0.5)"
         style="fill:context-stroke;fill-rule:evenodd;stroke:context-stroke;stroke-width:1pt"
         d="M 5.77,0 -2.88,5 V -5 Z"
         id="path7-1" /></marker><path
       id="MJX-8-NCM-I-1D703"
       d="m 164,-11 c 45,0 92,27 138,81 80,93 153,265 153,428 0,41 -7,84 -21,127 -18,53 -52,80 -101,80 -45,0 -90,-27 -137,-81 C 116,532 42,360 42,196 42,94 75,-11 164,-11 m 168,686 c 33,0 50,-38 50,-115 0,-43 -10,-108 -30,-193 H 155 c 25,93 49,162 74,207 37,67 72,101 103,101 M 145,327 H 341 C 322,246 299,181 274,132 235,57 199,19 164,19 c -33,0 -49,39 -49,116 0,50 10,114 30,192 z" /><path
       id="MJX-16-NCM-I-1D713"
       d="m 534,393 c 0,-9 5,-19 16,-30 23,-22 35,-49 35,-81 0,-29 -9,-60 -28,-95 C 522,120 476,72 421,43 388,26 355,18 322,17 l 162,646 c 2,9 3,14 3,16 0,10 -5,15 -16,15 -5,0 -8,-1 -11,-3 -4,-8 -6,-15 -7,-20 L 290,19 c -71,9 -106,45 -106,107 0,27 18,88 53,183 7,20 11,37 11,50 0,50 -35,85 -85,85 -45,0 -79,-25 -104,-75 -20,-40 -30,-67 -30,-81 0,-9 5,-14 16,-14 13,0 15,6 19,20 23,80 55,120 96,120 14,0 21,-9 21,-27 0,-16 -7,-44 -22,-84 -32,-85 -48,-141 -48,-169 0,-87 57,-135 171,-144 -8,-35 -15,-64 -21,-86 -15,-57 -23,-89 -23,-96 3,-8 4,-13 17,-13 l 10,4 c 6,16 11,31 14,44 l 36,144 c 82,1 154,37 216,108 33,37 57,77 73,120 21,55 31,107 31,156 0,49 -16,73 -47,73 -26,0 -54,-25 -54,-51 z" /><path
       id="MJX-9-NCM-I-1D43F"
       d="m 520,667 c 0,11 -7,16 -20,16 l -146,-3 -131,3 c -15,1 -23,-7 -23,-24 0,-7 3,-12 9,-13 9,-1 17,-2 22,-2 31,-1 48,-3 53,-4 5,-1 8,-4 8,-9 0,-2 -1,-8 -4,-18 L 156,82 C 150,60 140,47 125,42 119,40 101,39 70,39 49,39 39,31 39,15 39,5 49,0 70,0 h 457 c 25,0 27,0 34,19 l 78,214 c 3,7 4,12 4,15 0,10 -5,15 -16,15 -10,0 -15,-9 -20,-23 C 588,191 570,154 555,131 518,75 455,39 363,39 h -93 c -11,0 -18,0 -21,1 -7,0 -10,2 -10,5 0,2 2,9 5,22 l 133,534 c 6,23 19,36 38,41 6,1 27,2 63,2 28,0 42,0 42,23 z" /><path
       id="MJX-10-NCM-I-1D445"
       d="m 739,531 c 0,51 -26,90 -77,118 -41,23 -90,34 -145,34 H 235 c -23,0 -33,-1 -33,-24 0,-7 3,-12 9,-13 10,-1 18,-2 23,-2 30,-1 47,-3 52,-4 5,-1 8,-4 8,-9 0,-2 -1,-8 -4,-18 L 158,82 C 153,60 143,46 128,41 121,39 103,38 72,38 50,38 41,37 41,15 41,4 47,-1 59,0 L 183,3 309,0 c 16,-1 24,8 24,23 0,10 -11,15 -32,15 -40,0 -60,5 -60,14 0,0 1,2 3,16 l 64,259 h 115 c 69,0 104,-29 104,-86 0,-9 -5,-31 -14,-67 -11,-42 -16,-70 -16,-85 0,-76 59,-111 135,-111 28,0 55,13 82,38 27,25 41,52 41,80 0,10 -5,15 -16,15 -7,0 -13,-5 -16,-16 C 712,64 698,41 682,28 666,15 651,8 636,8 c -23,0 -35,19 -35,56 0,24 3,61 10,112 3,21 4,36 4,47 0,53 -28,92 -84,116 94,23 208,90 208,192 m -130,85 c 20,-13 30,-35 30,-66 0,-20 -4,-43 -13,-70 C 599,398 531,357 422,357 H 316 l 63,253 c 5,21 13,32 24,33 5,1 25,1 60,1 65,0 103,-2 146,-28 z" /><marker
       style="overflow:visible"
       id="marker11"
       refX="0"
       refY="0"
       orient="auto-start-reverse"
       inkscape:stockid="Triangle arrow"
       markerWidth="1"
       markerHeight="1"
       viewBox="0 0 1 1"
       inkscape:isstock="true"
       inkscape:collect="always"
       preserveAspectRatio="xMidYMid"><path
         transform="scale(0.5)"
         style="fill:context-stroke;fill-rule:evenodd;stroke:context-stroke;stroke-width:1pt"
         d="M 5.77,0 -2.88,5 V -5 Z"
         id="path11-0" /></marker><marker
       style="overflow:visible"
       id="marker7-9"
       refX="0"
       refY="0"
       orient="auto-start-reverse"
       inkscape:stockid="Triangle arrow"
       markerWidth="1"
       markerHeight="1"
       viewBox="0 0 1 1"
       inkscape:isstock="true"
       inkscape:collect="always"
       preserveAspectRatio="xMidYMid"><path
         transform="scale(0.5)"
         style="fill:context-stroke;fill-rule:evenodd;stroke:context-stroke;stroke-width:1pt"
         d="M 5.77,0 -2.88,5 V -5 Z"
         id="path7-0" /></marker><path
       id="MJX-13-NCM-I-1D466"
       d="M 163,442 C 118,442 83,417 58,367 39,328 29,301 29,286 c 0,-9 5,-14 16,-14 14,0 15,6 19,21 23,79 55,119 96,119 13,0 20,-9 20,-27 0,-16 -5,-39 -16,-68 -38,-103 -57,-172 -57,-209 0,-76 47,-121 124,-121 33,0 64,12 92,36 -35,-132 -90,-198 -165,-198 -34,0 -57,11 -69,33 40,2 60,21 60,57 0,25 -13,38 -40,38 -37,0 -59,-31 -59,-68 0,-55 50,-90 108,-90 115,0 209,106 234,204 l 94,378 c 3,11 4,19 4,24 0,20 -11,30 -32,30 -16,0 -29,-8 -38,-23 -6,-21 -11,-39 -14,-54 L 342,97 C 332,61 279,16 234,16 c -38,0 -57,25 -57,76 0,42 17,106 50,192 13,35 20,59 20,73 0,49 -35,85 -84,85 z" /><path
       id="MJX-13-NCM-N-2C6"
       d="M 386,515 403,533 250,694 97,533 114,515 250,618 Z" /><path
       id="MJX-14-NCM-I-1D465"
       d="m 527,373 c 0,46 -45,69 -95,69 -43,0 -77,-23 -103,-69 -21,46 -56,69 -107,69 -49,0 -89,-23 -121,-68 -27,-39 -41,-68 -41,-87 0,-9 5,-14 15,-14 9,0 15,5 17,14 19,58 61,126 128,126 33,0 49,-21 49,-62 0,-21 -18,-99 -53,-233 C 199,51 169,18 126,18 c -14,0 -27,3 -38,8 26,10 39,28 39,54 0,26 -13,39 -40,39 -33,0 -58,-28 -58,-61 0,-46 47,-69 96,-69 42,0 76,23 103,69 19,-46 55,-69 107,-69 48,0 88,23 120,68 27,39 41,68 41,87 0,9 -5,14 -15,14 -9,0 -14,-5 -17,-14 C 447,87 402,18 337,18 c -33,0 -50,20 -50,61 0,13 5,41 16,86 l 34,135 c 19,75 50,113 94,113 14,0 27,-3 38,-8 -27,-9 -40,-27 -40,-54 0,-26 14,-39 41,-39 32,0 57,29 57,61 z" /><path
       id="MJX-14-NCM-N-2C6"
       d="M 386,515 403,533 250,694 97,533 114,515 250,618 Z" /></defs><g
     inkscape:label="Camada 1"
     inkscape:groupmode="layer"
     id="layer1"
     transform="translate(-21.960415,-79.639579)"><rect
       style="fill:#a3a3a3;fill-opacity:1;stroke:#000000;stroke-width:0;stroke-linejoin:round;stroke-dasharray:none;stroke-dashoffset:0;stroke-opacity:1"
       id="rect12-9"
       width="156.69249"
       height="107.34335"
       x="25.376839"
       y="82.384811"
       inkscape:export-filename="robot_esquema_mov.svg"
       inkscape:export-xdpi="96"
       inkscape:export-ydpi="96" /><rect
       style="fill:#ffffff;fill-opacity:1;stroke:#000000;stroke-width:0.293628;stroke-linejoin:round;stroke-dasharray:none;stroke-dashoffset:0;stroke-opacity:1"
       id="rect12"
       width="156.69249"
       height="107.34335"
       x="22.107231"
       y="79.786392" /><g
       id="g14"
       transform="translate(-7.4514942,9.2307925)"><rect
         style="fill:#ffffff;fill-opacity:1;stroke:#000000;stroke-width:0.3;stroke-linejoin:round;stroke-dasharray:none"
         id="rect1"
         width="82.898682"
         height="37.078972"
         x="67.073418"
         y="114.08923" /><rect
         style="fill:#373737;fill-opacity:1;stroke:#000000;stroke-width:0.3;stroke-linejoin:round;stroke-dasharray:none"
         id="rect2"
         width="19.745428"
         height="4.8143692"
         x="69.889717"
         y="115.15457" /><rect
         style="fill:#373737;fill-opacity:1;stroke:#000000;stroke-width:0.3;stroke-linejoin:round;stroke-dasharray:none"
         id="rect2-8"
         width="19.745428"
         height="4.8143692"
         x="69.889717"
         y="145.05614" /><rect
         style="fill:#373737;fill-opacity:1;stroke:#000000;stroke-width:0.3;stroke-linejoin:round;stroke-dasharray:none"
         id="rect2-1"
         width="19.745428"
         height="4.8143692"
         x="59.739281"
         y="164.10567"
         transform="rotate(-26.480269)" /><rect
         style="fill:#373737;fill-opacity:1;stroke:#000000;stroke-width:0.3;stroke-linejoin:round;stroke-dasharray:none"
         id="rect2-1-7"
         width="19.745428"
         height="4.8143692"
         x="47.000694"
         y="189.02994"
         transform="rotate(-26.480269)" /><path
         style="fill:#ffffff;fill-opacity:1;stroke:#000000;stroke-width:0.6;stroke-linejoin:round;stroke-dasharray:none"
         d="m 136.23371,121.14001 v 22.12008"
         id="path2" /><path
         style="fill:#ffffff;fill-opacity:1;stroke:#808080;stroke-width:0.6;stroke-linejoin:round;stroke-dasharray:none;stroke-opacity:1"
         d="m 79.762434,119.96895 v 24.98268"
         id="path3" /><path
         style="fill:#ffffff;fill-opacity:1;stroke:#808080;stroke-width:0.600001;stroke-linejoin:round;stroke-dasharray:none;stroke-opacity:1"
         d="M 74.94806,132.46029 H 159.8135"
         id="path4"
         sodipodi:nodetypes="cc" /><circle
         style="fill:#000000;fill-opacity:1;stroke:#000000;stroke-width:0;stroke-linejoin:round;stroke-dasharray:none;stroke-opacity:1"
         id="path5"
         cx="79.701431"
         cy="132.3757"
         r="2" /><path
         style="fill:#000000;fill-opacity:0;stroke:#000000;stroke-width:0.3;stroke-linejoin:round;stroke-dasharray:none;stroke-opacity:1;marker-start:url(#Triangle);marker-end:url(#marker7)"
         d="m 79.632433,127.03927 v 5.29042 l 5.336434,0.023"
         id="path6"
         sodipodi:nodetypes="ccc" /><path
         style="fill:#000000;fill-opacity:0;stroke:#000000;stroke-width:0.3;stroke-linejoin:round;stroke-dasharray:none;stroke-opacity:1"
         d="m 136.62407,132.13499 23.01046,-11.82088"
         id="path8"
         sodipodi:nodetypes="cc" /><path
         style="fill:#000000;fill-opacity:0;stroke:#000000;stroke-width:0.3;stroke-linejoin:round;stroke-dasharray:none;stroke-opacity:1"
         d="m 79.22666,132.13499 23.01046,-11.82088"
         id="path8-8"
         sodipodi:nodetypes="cc" /><path
         style="fill:#000000;fill-opacity:0;stroke:#000000;stroke-width:0.3;stroke-linejoin:round;stroke-dasharray:none;stroke-opacity:1;marker-end:url(#marker7)"
         d="m 98.535984,122.96622 c 0,0 1.477906,1.19915 1.942546,3.36459 0.46464,2.16543 0.13934,4.63768 0.13934,4.63768"
         id="path9" /><path
         style="fill:#000000;fill-opacity:0;stroke:#000000;stroke-width:0.3;stroke-linejoin:round;stroke-dasharray:none;stroke-opacity:1;marker-end:url(#marker7-6)"
         d="m 159.24637,131.21779 c 0,0 1.01813,-1.94912 0.88348,-4.13267 -0.13632,-2.21052 -1.48643,-4.11397 -1.48643,-4.11397"
         id="path9-2"
         sodipodi:nodetypes="csc" /><use
         data-c="1D703"
         xlink:href="#MJX-8-NCM-I-1D703"
         id="use1"
         transform="matrix(0.00428129,0,0,-0.00428129,102.46238,127.93763)"
         style="fill:#000000;stroke:#000000;stroke-width:0" /><use
         data-c="1D713"
         xlink:href="#MJX-16-NCM-I-1D713"
         id="use1-1"
         transform="matrix(0.00428189,0,0,-0.00428189,161.60013,127.49894)"
         style="fill:#000000;stroke:#000000;stroke-width:0" /><path
         style="fill:#373737;fill-opacity:1;stroke:#000000;stroke-width:0.5;stroke-linejoin:round;stroke-dasharray:none;stroke-opacity:1;marker-start:url(#Stop);marker-end:url(#Stop)"
         d="m 79.89255,160.04534 h 55.82069"
         id="path10" /><path
         style="fill:#373737;fill-opacity:1;stroke:#000000;stroke-width:0.499999;stroke-linejoin:round;stroke-dasharray:none;stroke-opacity:1;marker-start:url(#Stop);marker-end:url(#Stop)"
         d="M 63.62778,132.33017 V 94.85614"
         id="path11" /><path
         style="fill:#6c6c6c;fill-opacity:1;stroke:#707070;stroke-width:0.499999;stroke-linejoin:round;stroke-dasharray:2.99999, 2.99999;stroke-dashoffset:0;stroke-opacity:1"
         d="M 79.762434,132.06993 V 94.986257"
         id="path12" /><path
         style="fill:#373737;fill-opacity:1;stroke:#6e6e6e;stroke-width:0.499999;stroke-linejoin:round;stroke-dasharray:2.99999, 2.99999;stroke-dashoffset:0;stroke-opacity:1"
         d="M 136.23371,143.91069 80.152787,95.246493"
         id="path13" /><path
         style="fill:#373737;fill-opacity:1;stroke:#6c6c6c;stroke-width:0.499999;stroke-linejoin:round;stroke-dasharray:2.99999, 2.99999;stroke-dashoffset:0;stroke-opacity:1"
         d="M 135.453,115.67505 80.02267,95.246493"
         id="path14" /><circle
         style="fill:#000000;fill-opacity:1;stroke:#000000;stroke-width:0;stroke-linejoin:round;stroke-dasharray:none;stroke-opacity:1"
         id="path5-2"
         cx="80.074966"
         cy="94.968636"
         r="2" /><use
         data-c="1D43F"
         xlink:href="#MJX-9-NCM-I-1D43F"
         id="use1-7"
         transform="matrix(0.00428229,0,0,-0.00428229,106.34263,165.79075)"
         style="fill:#000000;stroke:#000000;stroke-width:0" /><use
         data-c="1D445"
         xlink:href="#MJX-10-NCM-I-1D445"
         id="use1-3"
         transform="matrix(0.00428109,0,0,-0.00428109,57.571792,115.00806)"
         style="fill:#000000;stroke:#000000;stroke-width:0" /></g><path
       style="fill:#bfbfbf;fill-opacity:0;stroke:#000000;stroke-width:0.3;stroke-linejoin:round;stroke-dasharray:none;stroke-dashoffset:0;stroke-opacity:1;marker-start:url(#marker11);marker-end:url(#marker7-9)"
       d="M 45.070977,85.974725 V 180.9264 h 95.319703"
       id="path10-1"
       sodipodi:nodetypes="ccc" /><g
       data-mml-node="mover"
       data-semantic-type="overscore"
       data-semantic-role="latinletter"
       data-semantic-annotation="depth:1"
       data-semantic-id="2"
       data-semantic-children="0,1"
       data-semantic-attributes="latex:\hat{y};texclass:ORD"
       data-semantic-owns="0 1"
       aria-level="0"
       data-speech-node="true"
       id="g3"
       transform="matrix(0.00428235,0,0,-0.00428235,46.759402,84.41153)"
       style="fill:#000000;stroke:#000000;stroke-width:0"><g
         data-mml-node="mi"
         data-latex="y"
         data-semantic-type="identifier"
         data-semantic-role="latinletter"
         data-semantic-font="italic"
         data-semantic-annotation="clearspeak:simple;nemeth:number;depth:2"
         data-semantic-id="0"
         data-semantic-parent="2"
         data-semantic-attributes="latex:y"
         aria-level="1"
         data-speech-node="true"
         id="g1"><use
           data-c="1D466"
           xlink:href="#MJX-13-NCM-I-1D466"
           id="use1-9" /></g><g
         data-mml-node="mo"
         data-semantic-type="punctuation"
         data-semantic-role="overaccent"
         data-semantic-annotation="accent:overaccent;depth:2"
         data-semantic-id="1"
         data-semantic-parent="2"
         aria-level="1"
         data-speech-node="true"
         transform="translate(54,32)"
         id="g2"><use
           data-c="2C6"
           xlink:href="#MJX-13-NCM-N-2C6"
           id="use2" /></g></g><g
       data-mml-node="mover"
       data-semantic-type="overscore"
       data-semantic-role="latinletter"
       data-semantic-annotation="depth:1"
       data-semantic-id="2"
       data-semantic-children="0,1"
       data-semantic-attributes="latex:\hat{x};texclass:ORD"
       data-semantic-owns="0 1"
       aria-level="0"
       data-speech-node="true"
       id="g3-8"
       transform="matrix(0.00428144,0,0,-0.00428144,143.10422,181.98644)"
       style="fill:#000000;stroke:#000000;stroke-width:0"><g
         data-mml-node="mi"
         data-latex="x"
         data-semantic-type="identifier"
         data-semantic-role="latinletter"
         data-semantic-font="italic"
         data-semantic-annotation="clearspeak:simple;nemeth:number;depth:2"
         data-semantic-id="0"
         data-semantic-parent="2"
         data-semantic-attributes="latex:x"
         aria-level="1"
         data-speech-node="true"
         id="g1-8"><use
           data-c="1D465"
           xlink:href="#MJX-14-NCM-I-1D465"
           id="use1-2" /></g><g
         data-mml-node="mo"
         data-semantic-type="punctuation"
         data-semantic-role="overaccent"
         data-semantic-annotation="accent:overaccent;depth:2"
         data-semantic-id="1"
         data-semantic-parent="2"
         aria-level="1"
         data-speech-node="true"
         transform="translate(79,32)"
         id="g2-4"><use
           data-c="2C6"
           xlink:href="#MJX-14-NCM-N-2C6"
           id="use2-5" /></g></g></g></svg>
