<?xml version="1.0" encoding="utf-8" standalone="no"?>
<!DOCTYPE svg PUBLIC "-//W3C//DTD SVG 1.1//EN"
  "http://www.w3.org/Graphics/SVG/1.1/DTD/svg11.dtd">
<svg xmlns:xlink="http://www.w3.org/1999/xlink" width="696.610622pt" height="348.135236pt" viewBox="0 0 696.610622 348.135236" xmlns="http://www.w3.org/2000/svg" version="1.1">
 <metadata>
  <rdf:RDF xmlns:dc="http://purl.org/dc/elements/1.1/" xmlns:cc="http://creativecommons.org/ns#" xmlns:rdf="http://www.w3.org/1999/02/22-rdf-syntax-ns#">
   <cc:Work>
    <dc:type rdf:resource="http://purl.org/dc/dcmitype/StillImage"/>
    <dc:date>2026-07-05T19:09:53.714210</dc:date>
    <dc:format>image/svg+xml</dc:format>
    <dc:creator>
     <cc:Agent>
      <dc:title>Matplotlib v3.11.0, https://matplotlib.org/</dc:title>
     </cc:Agent>
    </dc:creator>
   </cc:Work>
  </rdf:RDF>
 </metadata>
 <defs>
  <style type="text/css">*{stroke-linejoin: round; stroke-linecap: butt}</style>
 </defs>
 <g id="figure_1">
  <g id="patch_1">
   <path d="M 0 348.135236 
L 696.610622 348.135236 
L 696.610622 0 
L 0 0 
z
" style="fill: #ffffff"/>
  </g>
  <g id="axes_1">
   <g id="patch_2">
    <path d="M 53.389219 305.602736 
L 347.631799 305.602736 
L 347.631799 11.360156 
L 53.389219 11.360156 
z
" style="fill: #ffffff"/>
   </g>
   <g id="matplotlib.axis_1">
    <g id="xtick_1">
     <g id="line2d_1">
      <path d="M 53.389219 305.602736 
L 53.389219 11.360156 
" clip-path="url(#pb0a84b45d1)" style="fill: none; stroke: #cccccc; stroke-linecap: round"/>
     </g>
     <g id="text_1">
      <!-- −1.5 -->
      <g style="fill: #262626" transform="translate(42.505781 323.423049) scale(0.12 -0.12)">
       <defs>
        <path id="TimesNewRomanPSMT-ed" d="M 3484 2000 
L 116 2000 
L 116 2256 
L 3484 2256 
L 3484 2000 
z
" transform="scale(0.015625)"/>
        <path id="TimesNewRomanPSMT-14" d="M 750 3822 
L 1781 4325 
L 1884 4325 
L 1884 747 
Q 1884 391 1914 303 
Q 1944 216 2037 169 
Q 2131 122 2419 116 
L 2419 0 
L 825 0 
L 825 116 
Q 1125 122 1212 167 
Q 1300 213 1334 289 
Q 1369 366 1369 747 
L 1369 3034 
Q 1369 3497 1338 3628 
Q 1316 3728 1258 3775 
Q 1200 3822 1119 3822 
Q 1003 3822 797 3725 
L 750 3822 
z
" transform="scale(0.015625)"/>
        <path id="TimesNewRomanPSMT-11" d="M 800 606 
Q 947 606 1047 504 
Q 1147 403 1147 259 
Q 1147 116 1045 14 
Q 944 -88 800 -88 
Q 656 -88 554 14 
Q 453 116 453 259 
Q 453 406 554 506 
Q 656 606 800 606 
z
" transform="scale(0.015625)"/>
        <path id="TimesNewRomanPSMT-18" d="M 2778 4238 
L 2534 3706 
L 1259 3706 
L 981 3138 
Q 1809 3016 2294 2522 
Q 2709 2097 2709 1522 
Q 2709 1188 2573 903 
Q 2438 619 2231 419 
Q 2025 219 1772 97 
Q 1413 -75 1034 -75 
Q 653 -75 479 54 
Q 306 184 306 341 
Q 306 428 378 495 
Q 450 563 559 563 
Q 641 563 702 538 
Q 763 513 909 409 
Q 1144 247 1384 247 
Q 1750 247 2026 523 
Q 2303 800 2303 1197 
Q 2303 1581 2056 1914 
Q 1809 2247 1375 2428 
Q 1034 2569 447 2591 
L 1259 4238 
L 2778 4238 
z
" transform="scale(0.015625)"/>
       </defs>
       <use xlink:href="#TimesNewRomanPSMT-ed"/>
       <use xlink:href="#TimesNewRomanPSMT-14" transform="translate(56.390625 0)"/>
       <use xlink:href="#TimesNewRomanPSMT-11" transform="translate(106.390625 0)"/>
       <use xlink:href="#TimesNewRomanPSMT-18" transform="translate(131.390625 0)"/>
      </g>
     </g>
    </g>
    <g id="xtick_2">
     <g id="line2d_2">
      <path d="M 102.429649 305.602736 
L 102.429649 11.360156 
" clip-path="url(#pb0a84b45d1)" style="fill: none; stroke: #cccccc; stroke-linecap: round"/>
     </g>
     <g id="text_2">
      <!-- −1.0 -->
      <g style="fill: #262626" transform="translate(91.546211 323.423049) scale(0.12 -0.12)">
       <defs>
        <path id="TimesNewRomanPSMT-13" d="M 231 2094 
Q 231 2819 450 3342 
Q 669 3866 1031 4122 
Q 1313 4325 1613 4325 
Q 2100 4325 2488 3828 
Q 2972 3213 2972 2159 
Q 2972 1422 2759 906 
Q 2547 391 2217 158 
Q 1888 -75 1581 -75 
Q 975 -75 572 641 
Q 231 1244 231 2094 
z
M 844 2016 
Q 844 1141 1059 588 
Q 1238 122 1591 122 
Q 1759 122 1940 273 
Q 2122 425 2216 781 
Q 2359 1319 2359 2297 
Q 2359 3022 2209 3506 
Q 2097 3866 1919 4016 
Q 1791 4119 1609 4119 
Q 1397 4119 1231 3928 
Q 1006 3669 925 3112 
Q 844 2556 844 2016 
z
" transform="scale(0.015625)"/>
       </defs>
       <use xlink:href="#TimesNewRomanPSMT-ed"/>
       <use xlink:href="#TimesNewRomanPSMT-14" transform="translate(56.390625 0)"/>
       <use xlink:href="#TimesNewRomanPSMT-11" transform="translate(106.390625 0)"/>
       <use xlink:href="#TimesNewRomanPSMT-13" transform="translate(131.390625 0)"/>
      </g>
     </g>
    </g>
    <g id="xtick_3">
     <g id="line2d_3">
      <path d="M 151.470079 305.602736 
L 151.470079 11.360156 
" clip-path="url(#pb0a84b45d1)" style="fill: none; stroke: #cccccc; stroke-linecap: round"/>
     </g>
     <g id="text_3">
      <!-- −0.5 -->
      <g style="fill: #262626" transform="translate(140.586641 323.423049) scale(0.12 -0.12)">
       <use xlink:href="#TimesNewRomanPSMT-ed"/>
       <use xlink:href="#TimesNewRomanPSMT-13" transform="translate(56.390625 0)"/>
       <use xlink:href="#TimesNewRomanPSMT-11" transform="translate(106.390625 0)"/>
       <use xlink:href="#TimesNewRomanPSMT-18" transform="translate(131.390625 0)"/>
      </g>
     </g>
    </g>
    <g id="xtick_4">
     <g id="line2d_4">
      <path d="M 200.510509 305.602736 
L 200.510509 11.360156 
" clip-path="url(#pb0a84b45d1)" style="fill: none; stroke: #cccccc; stroke-linecap: round"/>
     </g>
     <g id="text_4">
      <!-- 0.0 -->
      <g style="fill: #262626" transform="translate(193.010509 323.423049) scale(0.12 -0.12)">
       <use xlink:href="#TimesNewRomanPSMT-13"/>
       <use xlink:href="#TimesNewRomanPSMT-11" transform="translate(50 0)"/>
       <use xlink:href="#TimesNewRomanPSMT-13" transform="translate(75 0)"/>
      </g>
     </g>
    </g>
    <g id="xtick_5">
     <g id="line2d_5">
      <path d="M 249.550939 305.602736 
L 249.550939 11.360156 
" clip-path="url(#pb0a84b45d1)" style="fill: none; stroke: #cccccc; stroke-linecap: round"/>
     </g>
     <g id="text_5">
      <!-- 0.5 -->
      <g style="fill: #262626" transform="translate(242.050939 323.423049) scale(0.12 -0.12)">
       <use xlink:href="#TimesNewRomanPSMT-13"/>
       <use xlink:href="#TimesNewRomanPSMT-11" transform="translate(50 0)"/>
       <use xlink:href="#TimesNewRomanPSMT-18" transform="translate(75 0)"/>
      </g>
     </g>
    </g>
    <g id="xtick_6">
     <g id="line2d_6">
      <path d="M 298.591369 305.602736 
L 298.591369 11.360156 
" clip-path="url(#pb0a84b45d1)" style="fill: none; stroke: #cccccc; stroke-linecap: round"/>
     </g>
     <g id="text_6">
      <!-- 1.0 -->
      <g style="fill: #262626" transform="translate(291.091369 323.423049) scale(0.12 -0.12)">
       <use xlink:href="#TimesNewRomanPSMT-14"/>
       <use xlink:href="#TimesNewRomanPSMT-11" transform="translate(50 0)"/>
       <use xlink:href="#TimesNewRomanPSMT-13" transform="translate(75 0)"/>
      </g>
     </g>
    </g>
    <g id="xtick_7">
     <g id="line2d_7">
      <path d="M 347.631799 305.602736 
L 347.631799 11.360156 
" clip-path="url(#pb0a84b45d1)" style="fill: none; stroke: #cccccc; stroke-linecap: round"/>
     </g>
     <g id="text_7">
      <!-- 1.5 -->
      <g style="fill: #262626" transform="translate(340.131799 323.423049) scale(0.12 -0.12)">
       <use xlink:href="#TimesNewRomanPSMT-14"/>
       <use xlink:href="#TimesNewRomanPSMT-11" transform="translate(50 0)"/>
       <use xlink:href="#TimesNewRomanPSMT-18" transform="translate(75 0)"/>
      </g>
     </g>
    </g>
    <g id="text_8">
     <!-- Posição X (m) -->
     <g style="fill: #262626" transform="translate(165.849259 338.345393) scale(0.12 -0.12)">
      <defs>
       <path id="TimesNewRomanPSMT-33" d="M 1313 1984 
L 1313 750 
Q 1313 350 1400 253 
Q 1519 116 1759 116 
L 1922 116 
L 1922 0 
L 106 0 
L 106 116 
L 266 116 
Q 534 116 650 291 
Q 713 388 713 750 
L 713 3488 
Q 713 3888 628 3984 
Q 506 4122 266 4122 
L 106 4122 
L 106 4238 
L 1659 4238 
Q 2228 4238 2556 4120 
Q 2884 4003 3109 3725 
Q 3334 3447 3334 3066 
Q 3334 2547 2992 2222 
Q 2650 1897 2025 1897 
Q 1872 1897 1694 1919 
Q 1516 1941 1313 1984 
z
M 1313 2163 
Q 1478 2131 1606 2115 
Q 1734 2100 1825 2100 
Q 2150 2100 2386 2351 
Q 2622 2603 2622 3003 
Q 2622 3278 2509 3514 
Q 2397 3750 2190 3867 
Q 1984 3984 1722 3984 
Q 1563 3984 1313 3925 
L 1313 2163 
z
" transform="scale(0.015625)"/>
       <path id="TimesNewRomanPSMT-52" d="M 1600 2947 
Q 2250 2947 2644 2453 
Q 2978 2031 2978 1484 
Q 2978 1100 2793 706 
Q 2609 313 2286 112 
Q 1963 -88 1566 -88 
Q 919 -88 538 428 
Q 216 863 216 1403 
Q 216 1797 411 2186 
Q 606 2575 925 2761 
Q 1244 2947 1600 2947 
z
M 1503 2744 
Q 1338 2744 1170 2645 
Q 1003 2547 900 2300 
Q 797 2053 797 1666 
Q 797 1041 1045 587 
Q 1294 134 1700 134 
Q 2003 134 2200 384 
Q 2397 634 2397 1244 
Q 2397 2006 2069 2444 
Q 1847 2744 1503 2744 
z
" transform="scale(0.015625)"/>
       <path id="TimesNewRomanPSMT-56" d="M 2050 2947 
L 2050 1972 
L 1947 1972 
Q 1828 2431 1642 2597 
Q 1456 2763 1169 2763 
Q 950 2763 815 2647 
Q 681 2531 681 2391 
Q 681 2216 781 2091 
Q 878 1963 1175 1819 
L 1631 1597 
Q 2266 1288 2266 781 
Q 2266 391 1970 151 
Q 1675 -88 1309 -88 
Q 1047 -88 709 6 
Q 606 38 541 38 
Q 469 38 428 -44 
L 325 -44 
L 325 978 
L 428 978 
Q 516 541 762 319 
Q 1009 97 1316 97 
Q 1531 97 1667 223 
Q 1803 350 1803 528 
Q 1803 744 1651 891 
Q 1500 1038 1047 1263 
Q 594 1488 453 1669 
Q 313 1847 313 2119 
Q 313 2472 555 2709 
Q 797 2947 1181 2947 
Q 1350 2947 1591 2875 
Q 1750 2828 1803 2828 
Q 1853 2828 1881 2850 
Q 1909 2872 1947 2947 
L 2050 2947 
z
" transform="scale(0.015625)"/>
       <path id="TimesNewRomanPSMT-4c" d="M 928 4444 
Q 1059 4444 1151 4351 
Q 1244 4259 1244 4128 
Q 1244 3997 1151 3903 
Q 1059 3809 928 3809 
Q 797 3809 703 3903 
Q 609 3997 609 4128 
Q 609 4259 701 4351 
Q 794 4444 928 4444 
z
M 1188 2947 
L 1188 647 
Q 1188 378 1227 289 
Q 1266 200 1342 156 
Q 1419 113 1622 113 
L 1622 0 
L 231 0 
L 231 113 
Q 441 113 512 153 
Q 584 194 626 287 
Q 669 381 669 647 
L 669 1750 
Q 669 2216 641 2353 
Q 619 2453 572 2492 
Q 525 2531 444 2531 
Q 356 2531 231 2484 
L 188 2597 
L 1050 2947 
L 1188 2947 
z
" transform="scale(0.015625)"/>
       <path id="TimesNewRomanPSMT-6f" d="M 2631 1088 
Q 2516 522 2178 217 
Q 1841 -88 1431 -88 
Q 944 -88 581 321 
Q 219 731 219 1428 
Q 219 2103 620 2525 
Q 1022 2947 1584 2947 
Q 2006 2947 2278 2723 
Q 2550 2500 2550 2259 
Q 2550 2141 2473 2067 
Q 2397 1994 2259 1994 
Q 2075 1994 1981 2113 
Q 1928 2178 1911 2362 
Q 1894 2547 1784 2644 
Q 1675 2738 1481 2738 
Q 1169 2738 978 2506 
Q 725 2200 725 1697 
Q 725 1184 976 792 
Q 1228 400 1656 400 
Q 1963 400 2206 609 
Q 2378 753 2541 1131 
L 2631 1088 
z
M 1469 50 
L 1657 50 
L 1500 -197 
Q 1697 -247 1794 -365 
Q 1891 -484 1891 -653 
Q 1891 -878 1703 -1048 
Q 1516 -1219 1219 -1219 
Q 1104 -1219 925 -1197 
L 925 -1063 
Q 1013 -1075 1075 -1075 
Q 1235 -1075 1344 -970 
Q 1454 -866 1454 -731 
Q 1454 -638 1382 -569 
Q 1310 -500 1204 -500 
Q 1172 -500 1122 -506 
L 1469 50 
z
" transform="scale(0.015625)"/>
       <path id="TimesNewRomanPSMT-6d" d="M 1822 413 
Q 1381 72 1269 19 
Q 1100 -59 909 -59 
Q 613 -59 420 144 
Q 228 347 228 678 
Q 228 888 322 1041 
Q 450 1253 767 1440 
Q 1084 1628 1822 1897 
L 1822 2009 
Q 1822 2438 1686 2597 
Q 1550 2756 1291 2756 
Q 1094 2756 978 2650 
Q 859 2544 859 2406 
L 866 2225 
Q 866 2081 792 2003 
Q 719 1925 600 1925 
Q 484 1925 411 2006 
Q 338 2088 338 2228 
Q 338 2497 613 2722 
Q 888 2947 1384 2947 
Q 1766 2947 2009 2819 
Q 2194 2722 2281 2516 
Q 2338 2381 2338 1966 
L 2338 994 
Q 2338 584 2353 492 
Q 2369 400 2405 369 
Q 2441 338 2488 338 
Q 2538 338 2575 359 
Q 2641 400 2828 588 
L 2828 413 
Q 2478 -56 2159 -56 
Q 2006 -56 1915 50 
Q 1825 156 1822 413 
z
M 1822 616 
L 1822 1706 
Q 1350 1519 1213 1441 
Q 966 1303 859 1153 
Q 753 1003 753 825 
Q 753 600 887 451 
Q 1022 303 1197 303 
Q 1434 303 1822 616 
z
M 535 3428 
L 435 3428 
Q 447 3856 613 4047 
Q 779 4238 1022 4238 
Q 1150 4238 1257 4197 
Q 1397 4144 1655 3973 
Q 1913 3803 2038 3803 
Q 2138 3803 2214 3887 
Q 2291 3972 2335 4238 
L 2432 4238 
Q 2435 3947 2355 3776 
Q 2275 3606 2130 3511 
Q 1985 3416 1838 3416 
Q 1591 3416 1225 3666 
Q 1029 3800 960 3828 
Q 891 3856 825 3856 
Q 697 3856 622 3744 
Q 588 3691 535 3428 
z
" transform="scale(0.015625)"/>
       <path id="TimesNewRomanPSMT-3" transform="scale(0.015625)"/>
       <path id="TimesNewRomanPSMT-3b" d="M 2613 2347 
L 3522 991 
Q 3900 428 4083 279 
Q 4266 131 4547 116 
L 4547 0 
L 2728 0 
L 2728 116 
Q 2909 119 2997 153 
Q 3063 181 3105 239 
Q 3147 297 3147 356 
Q 3147 428 3119 500 
Q 3097 553 2947 775 
L 2228 1863 
L 1341 725 
Q 1200 544 1172 483 
Q 1144 422 1144 356 
Q 1144 256 1228 190 
Q 1313 125 1550 116 
L 1550 0 
L 47 0 
L 47 116 
Q 206 131 322 181 
Q 516 263 691 400 
Q 866 538 1091 822 
L 2091 2084 
L 1256 3306 
Q 916 3803 678 3958 
Q 441 4113 131 4122 
L 131 4238 
L 2091 4238 
L 2091 4122 
Q 1841 4113 1748 4041 
Q 1656 3969 1656 3881 
Q 1656 3766 1806 3544 
L 2456 2572 
L 3209 3525 
Q 3341 3694 3370 3756 
Q 3400 3819 3400 3884 
Q 3400 3950 3363 4000 
Q 3316 4066 3244 4092 
Q 3172 4119 2947 4122 
L 2947 4238 
L 4450 4238 
L 4450 4122 
Q 4272 4113 4159 4066 
Q 3991 3994 3850 3872 
Q 3709 3750 3453 3422 
L 2613 2347 
z
" transform="scale(0.015625)"/>
       <path id="TimesNewRomanPSMT-b" d="M 1988 -1253 
L 1988 -1369 
Q 1516 -1131 1200 -813 
Q 750 -359 506 256 
Q 263 872 263 1534 
Q 263 2503 741 3301 
Q 1219 4100 1988 4444 
L 1988 4313 
Q 1603 4100 1356 3731 
Q 1109 3363 987 2797 
Q 866 2231 866 1616 
Q 866 947 969 400 
Q 1050 -31 1165 -292 
Q 1281 -553 1476 -793 
Q 1672 -1034 1988 -1253 
z
" transform="scale(0.015625)"/>
       <path id="TimesNewRomanPSMT-50" d="M 1050 2338 
Q 1363 2650 1419 2697 
Q 1559 2816 1721 2881 
Q 1884 2947 2044 2947 
Q 2313 2947 2506 2790 
Q 2700 2634 2766 2338 
Q 3088 2713 3309 2830 
Q 3531 2947 3766 2947 
Q 3994 2947 4170 2830 
Q 4347 2713 4450 2447 
Q 4519 2266 4519 1878 
L 4519 647 
Q 4519 378 4559 278 
Q 4591 209 4675 161 
Q 4759 113 4950 113 
L 4950 0 
L 3538 0 
L 3538 113 
L 3597 113 
Q 3781 113 3884 184 
Q 3956 234 3988 344 
Q 4000 397 4000 647 
L 4000 1878 
Q 4000 2228 3916 2372 
Q 3794 2572 3525 2572 
Q 3359 2572 3192 2489 
Q 3025 2406 2788 2181 
L 2781 2147 
L 2788 2013 
L 2788 647 
Q 2788 353 2820 281 
Q 2853 209 2943 161 
Q 3034 113 3253 113 
L 3253 0 
L 1806 0 
L 1806 113 
Q 2044 113 2133 169 
Q 2222 225 2256 338 
Q 2272 391 2272 647 
L 2272 1878 
Q 2272 2228 2169 2381 
Q 2031 2581 1784 2581 
Q 1616 2581 1450 2491 
Q 1191 2353 1050 2181 
L 1050 647 
Q 1050 366 1089 281 
Q 1128 197 1204 155 
Q 1281 113 1516 113 
L 1516 0 
L 100 0 
L 100 113 
Q 297 113 375 155 
Q 453 197 493 289 
Q 534 381 534 647 
L 534 1741 
Q 534 2213 506 2350 
Q 484 2453 437 2492 
Q 391 2531 309 2531 
Q 222 2531 100 2484 
L 53 2597 
L 916 2947 
L 1050 2947 
L 1050 2338 
z
" transform="scale(0.015625)"/>
       <path id="TimesNewRomanPSMT-c" d="M 144 4313 
L 144 4444 
Q 619 4209 934 3891 
Q 1381 3434 1625 2820 
Q 1869 2206 1869 1541 
Q 1869 572 1392 -226 
Q 916 -1025 144 -1369 
L 144 -1253 
Q 528 -1038 776 -670 
Q 1025 -303 1145 264 
Q 1266 831 1266 1447 
Q 1266 2113 1163 2663 
Q 1084 3094 967 3353 
Q 850 3613 656 3853 
Q 463 4094 144 4313 
z
" transform="scale(0.015625)"/>
      </defs>
      <use xlink:href="#TimesNewRomanPSMT-33"/>
      <use xlink:href="#TimesNewRomanPSMT-52" transform="translate(55.609375 0)"/>
      <use xlink:href="#TimesNewRomanPSMT-56" transform="translate(105.609375 0)"/>
      <use xlink:href="#TimesNewRomanPSMT-4c" transform="translate(144.53125 0)"/>
      <use xlink:href="#TimesNewRomanPSMT-6f" transform="translate(172.3125 0)"/>
      <use xlink:href="#TimesNewRomanPSMT-6d" transform="translate(216.703125 0)"/>
      <use xlink:href="#TimesNewRomanPSMT-52" transform="translate(261.09375 0)"/>
      <use xlink:href="#TimesNewRomanPSMT-3" transform="translate(311.09375 0)"/>
      <use xlink:href="#TimesNewRomanPSMT-3b" transform="translate(336.09375 0)"/>
      <use xlink:href="#TimesNewRomanPSMT-3" transform="translate(408.3125 0)"/>
      <use xlink:href="#TimesNewRomanPSMT-b" transform="translate(433.3125 0)"/>
      <use xlink:href="#TimesNewRomanPSMT-50" transform="translate(466.609375 0)"/>
      <use xlink:href="#TimesNewRomanPSMT-c" transform="translate(544.390625 0)"/>
     </g>
    </g>
   </g>
   <g id="matplotlib.axis_2">
    <g id="ytick_1">
     <g id="line2d_8">
      <path d="M 53.389219 305.602736 
L 347.631799 305.602736 
" clip-path="url(#pb0a84b45d1)" style="fill: none; stroke: #cccccc; stroke-linecap: round"/>
     </g>
     <g id="text_9">
      <!-- −1.5 -->
      <g style="fill: #262626" transform="translate(22.122344 309.762893) scale(0.12 -0.12)">
       <use xlink:href="#TimesNewRomanPSMT-ed"/>
       <use xlink:href="#TimesNewRomanPSMT-14" transform="translate(56.390625 0)"/>
       <use xlink:href="#TimesNewRomanPSMT-11" transform="translate(106.390625 0)"/>
       <use xlink:href="#TimesNewRomanPSMT-18" transform="translate(131.390625 0)"/>
      </g>
     </g>
    </g>
    <g id="ytick_2">
     <g id="line2d_9">
      <path d="M 53.389219 256.562306 
L 347.631799 256.562306 
" clip-path="url(#pb0a84b45d1)" style="fill: none; stroke: #cccccc; stroke-linecap: round"/>
     </g>
     <g id="text_10">
      <!-- −1.0 -->
      <g style="fill: #262626" transform="translate(22.122344 260.722463) scale(0.12 -0.12)">
       <use xlink:href="#TimesNewRomanPSMT-ed"/>
       <use xlink:href="#TimesNewRomanPSMT-14" transform="translate(56.390625 0)"/>
       <use xlink:href="#TimesNewRomanPSMT-11" transform="translate(106.390625 0)"/>
       <use xlink:href="#TimesNewRomanPSMT-13" transform="translate(131.390625 0)"/>
      </g>
     </g>
    </g>
    <g id="ytick_3">
     <g id="line2d_10">
      <path d="M 53.389219 207.521876 
L 347.631799 207.521876 
" clip-path="url(#pb0a84b45d1)" style="fill: none; stroke: #cccccc; stroke-linecap: round"/>
     </g>
     <g id="text_11">
      <!-- −0.5 -->
      <g style="fill: #262626" transform="translate(22.122344 211.682033) scale(0.12 -0.12)">
       <use xlink:href="#TimesNewRomanPSMT-ed"/>
       <use xlink:href="#TimesNewRomanPSMT-13" transform="translate(56.390625 0)"/>
       <use xlink:href="#TimesNewRomanPSMT-11" transform="translate(106.390625 0)"/>
       <use xlink:href="#TimesNewRomanPSMT-18" transform="translate(131.390625 0)"/>
      </g>
     </g>
    </g>
    <g id="ytick_4">
     <g id="line2d_11">
      <path d="M 53.389219 158.481446 
L 347.631799 158.481446 
" clip-path="url(#pb0a84b45d1)" style="fill: none; stroke: #cccccc; stroke-linecap: round"/>
     </g>
     <g id="text_12">
      <!-- 0.0 -->
      <g style="fill: #262626" transform="translate(28.889219 162.641603) scale(0.12 -0.12)">
       <use xlink:href="#TimesNewRomanPSMT-13"/>
       <use xlink:href="#TimesNewRomanPSMT-11" transform="translate(50 0)"/>
       <use xlink:href="#TimesNewRomanPSMT-13" transform="translate(75 0)"/>
      </g>
     </g>
    </g>
    <g id="ytick_5">
     <g id="line2d_12">
      <path d="M 53.389219 109.441016 
L 347.631799 109.441016 
" clip-path="url(#pb0a84b45d1)" style="fill: none; stroke: #cccccc; stroke-linecap: round"/>
     </g>
     <g id="text_13">
      <!-- 0.5 -->
      <g style="fill: #262626" transform="translate(28.889219 113.601173) scale(0.12 -0.12)">
       <use xlink:href="#TimesNewRomanPSMT-13"/>
       <use xlink:href="#TimesNewRomanPSMT-11" transform="translate(50 0)"/>
       <use xlink:href="#TimesNewRomanPSMT-18" transform="translate(75 0)"/>
      </g>
     </g>
    </g>
    <g id="ytick_6">
     <g id="line2d_13">
      <path d="M 53.389219 60.400586 
L 347.631799 60.400586 
" clip-path="url(#pb0a84b45d1)" style="fill: none; stroke: #cccccc; stroke-linecap: round"/>
     </g>
     <g id="text_14">
      <!-- 1.0 -->
      <g style="fill: #262626" transform="translate(28.889219 64.560743) scale(0.12 -0.12)">
       <use xlink:href="#TimesNewRomanPSMT-14"/>
       <use xlink:href="#TimesNewRomanPSMT-11" transform="translate(50 0)"/>
       <use xlink:href="#TimesNewRomanPSMT-13" transform="translate(75 0)"/>
      </g>
     </g>
    </g>
    <g id="ytick_7">
     <g id="line2d_14">
      <path d="M 53.389219 11.360156 
L 347.631799 11.360156 
" clip-path="url(#pb0a84b45d1)" style="fill: none; stroke: #cccccc; stroke-linecap: round"/>
     </g>
     <g id="text_15">
      <!-- 1.5 -->
      <g style="fill: #262626" transform="translate(28.889219 15.520312) scale(0.12 -0.12)">
       <use xlink:href="#TimesNewRomanPSMT-14"/>
       <use xlink:href="#TimesNewRomanPSMT-11" transform="translate(50 0)"/>
       <use xlink:href="#TimesNewRomanPSMT-18" transform="translate(75 0)"/>
      </g>
     </g>
    </g>
    <g id="text_16">
     <!-- Posição Y (m) -->
     <g style="fill: #262626" transform="translate(15.5325 192.698321) rotate(-90) scale(0.12 -0.12)">
      <defs>
       <path id="TimesNewRomanPSMT-3c" d="M 3050 4238 
L 4528 4238 
L 4528 4122 
L 4447 4122 
Q 4366 4122 4209 4050 
Q 4053 3978 3925 3843 
Q 3797 3709 3609 3406 
L 2588 1797 
L 2588 734 
Q 2588 344 2675 247 
Q 2794 116 3050 116 
L 3188 116 
L 3188 0 
L 1388 0 
L 1388 116 
L 1538 116 
Q 1806 116 1919 278 
Q 1988 378 1988 734 
L 1988 1738 
L 825 3513 
Q 619 3825 545 3903 
Q 472 3981 241 4091 
Q 178 4122 59 4122 
L 59 4238 
L 1872 4238 
L 1872 4122 
L 1778 4122 
Q 1631 4122 1507 4053 
Q 1384 3984 1384 3847 
Q 1384 3734 1575 3441 
L 2459 2075 
L 3291 3381 
Q 3478 3675 3478 3819 
Q 3478 3906 3433 3975 
Q 3388 4044 3303 4083 
Q 3219 4122 3050 4122 
L 3050 4238 
z
" transform="scale(0.015625)"/>
      </defs>
      <use xlink:href="#TimesNewRomanPSMT-33"/>
      <use xlink:href="#TimesNewRomanPSMT-52" transform="translate(55.609375 0)"/>
      <use xlink:href="#TimesNewRomanPSMT-56" transform="translate(105.609375 0)"/>
      <use xlink:href="#TimesNewRomanPSMT-4c" transform="translate(144.53125 0)"/>
      <use xlink:href="#TimesNewRomanPSMT-6f" transform="translate(172.3125 0)"/>
      <use xlink:href="#TimesNewRomanPSMT-6d" transform="translate(216.703125 0)"/>
      <use xlink:href="#TimesNewRomanPSMT-52" transform="translate(261.09375 0)"/>
      <use xlink:href="#TimesNewRomanPSMT-3" transform="translate(311.09375 0)"/>
      <use xlink:href="#TimesNewRomanPSMT-3c" transform="translate(332.390625 0)"/>
      <use xlink:href="#TimesNewRomanPSMT-3" transform="translate(400.90625 0)"/>
      <use xlink:href="#TimesNewRomanPSMT-b" transform="translate(425.90625 0)"/>
      <use xlink:href="#TimesNewRomanPSMT-50" transform="translate(459.203125 0)"/>
      <use xlink:href="#TimesNewRomanPSMT-c" transform="translate(536.984375 0)"/>
     </g>
    </g>
   </g>
   <g id="line2d_15">
    <path d="M 200.510509 158.481446 
L 201.491317 158.481446 
L 202.471819 158.456929 
L 203.451402 158.407909 
L 204.429454 158.334417 
L 205.405362 158.236499 
L 206.378518 158.114217 
L 207.348314 157.967647 
L 208.314142 157.79688 
L 209.2754 157.602024 
L 210.231486 157.383199 
L 211.181804 157.140543 
L 212.125759 156.874208 
L 213.062761 156.584359 
L 213.992225 156.271178 
L 214.91357 155.934861 
L 215.826219 155.575618 
L 216.729604 155.193673 
L 217.623159 154.789265 
L 218.506325 154.362647 
L 219.378551 153.914086 
L 220.239291 153.443861 
L 221.088009 152.952267 
L 221.924172 152.439611 
L 222.747259 151.906213 
L 223.556755 151.352407 
L 224.352155 150.778538 
L 225.132961 150.184966 
L 225.898685 149.572062 
L 226.648849 148.940207 
L 227.382983 148.289799 
L 228.10063 147.621241 
L 228.80134 146.934954 
L 229.484676 146.231365 
L 230.150211 145.510914 
L 230.797528 144.774052 
L 231.426223 144.021238 
L 232.035903 143.252945 
L 232.626188 142.469651 
L 233.196708 141.671846 
L 233.747106 140.860029 
L 234.277039 140.034707 
L 234.786176 139.196396 
L 235.274198 138.345619 
L 235.7408 137.48291 
L 236.185691 136.608806 
L 236.608593 135.723854 
L 237.009241 134.828607 
L 237.387385 133.923625 
L 237.742788 133.009473 
L 238.07523 132.086723 
L 238.3845 131.155951 
L 238.670408 130.217738 
L 238.932773 129.272672 
L 239.171432 128.321343 
L 239.386236 127.364345 
L 239.57705 126.402277 
L 239.743755 125.435739 
L 239.886247 124.465336 
L 240.004437 123.491675 
L 240.098251 122.515363 
L 240.167631 121.537012 
L 240.212533 120.557231 
L 240.232929 119.576635 
L 240.228806 118.595835 
L 240.200166 117.615444 
L 240.147029 116.636076 
L 240.069427 115.658342 
L 239.967408 114.682854 
L 239.841036 113.710221 
L 239.69039 112.74105 
L 239.515565 111.775948 
L 239.316669 110.815518 
L 239.093828 109.86036 
L 238.847179 108.911071 
L 238.576878 107.968244 
L 238.283093 107.032468 
L 237.966007 106.104329 
L 237.62582 105.184406 
L 237.262744 104.273275 
L 236.877005 103.371504 
L 236.468844 102.479657 
L 236.038518 101.598292 
L 235.586294 100.727959 
L 235.112455 99.869203 
L 234.617297 99.02256 
L 234.101131 98.188559 
L 233.564278 97.367721 
L 233.007074 96.56056 
L 232.429867 95.76758 
L 231.833018 94.989276 
L 231.216899 94.226135 
L 230.581897 93.478634 
L 229.928408 92.74724 
L 229.25684 92.03241 
L 228.567613 91.334591 
L 227.861158 90.654219 
L 227.137916 89.991718 
L 226.398339 89.347505 
L 225.642889 88.721979 
" clip-path="url(#pb0a84b45d1)" style="fill: none; stroke: #000000; stroke-width: 2; stroke-linecap: round"/>
   </g>
   <g id="patch_3">
    <path d="M 53.389219 305.602736 
L 53.389219 11.360156 
" style="fill: none; stroke: #cccccc; stroke-width: 1.25; stroke-linejoin: miter; stroke-linecap: square"/>
   </g>
   <g id="patch_4">
    <path d="M 347.631799 305.602736 
L 347.631799 11.360156 
" style="fill: none; stroke: #cccccc; stroke-width: 1.25; stroke-linejoin: miter; stroke-linecap: square"/>
   </g>
   <g id="patch_5">
    <path d="M 53.389219 305.602736 
L 347.631799 305.602736 
" style="fill: none; stroke: #cccccc; stroke-width: 1.25; stroke-linejoin: miter; stroke-linecap: square"/>
   </g>
   <g id="patch_6">
    <path d="M 53.389219 11.360156 
L 347.631799 11.360156 
" style="fill: none; stroke: #cccccc; stroke-width: 1.25; stroke-linejoin: miter; stroke-linecap: square"/>
   </g>
   <g id="patch_7">
    <path d="M 224.254708 106.349181 
L 208.83771 94.220274 
L 210.225892 76.593072 
L 227.031071 71.094778 
L 242.448069 83.223685 
z
" clip-path="url(#pb0a84b45d1)" style="fill: #ffffff; stroke: #000000; stroke-width: 2; stroke-linejoin: miter"/>
   </g>
   <g id="patch_8">
    <path d="M 224.645576 97.921005 
L 216.937077 91.856552 
L 214.511296 94.939951 
L 222.219794 101.004405 
z
" clip-path="url(#pb0a84b45d1)" style="fill: #1f77b4; stroke: #000000; stroke-linejoin: miter"/>
   </g>
   <g id="patch_9">
    <path d="M 236.774483 82.504008 
L 229.065984 76.439554 
L 226.640203 79.522954 
L 234.348702 85.587407 
z
" clip-path="url(#pb0a84b45d1)" style="fill: #1f77b4; stroke: #000000; stroke-linejoin: miter"/>
   </g>
   <g id="patch_10">
    <path d="M 215.596255 77.698174 
C 215.085175 77.296096 214.435212 77.113486 213.789512 77.190562 
C 213.143813 77.267638 212.555095 77.598106 212.153017 78.109185 
C 211.750939 78.620265 211.568329 79.270228 211.645404 79.915928 
C 211.72248 80.561628 212.052948 81.150346 212.564028 81.552424 
C 213.075107 81.954502 213.72507 82.137112 214.37077 82.060036 
C 215.01647 81.98296 215.605188 81.652492 216.007266 81.141412 
C 216.409344 80.630333 216.591954 79.98037 216.514878 79.33467 
C 216.437803 78.68897 216.107334 78.100252 215.596255 77.698174 
z
" clip-path="url(#pb0a84b45d1)" style="fill: #1f77b4; stroke: #000000; stroke-linejoin: miter"/>
   </g>
   <g id="patch_11">
    <path d="M 226.85578 87.18028 
C 226.446917 86.858617 225.926946 86.712529 225.410386 86.77419 
C 224.893826 86.83585 224.422852 87.100225 224.10119 87.509089 
C 223.779527 87.917952 223.633439 88.437923 223.6951 88.954483 
C 223.75676 89.471042 224.021135 89.942017 224.429999 90.263679 
C 224.838862 90.585342 225.358833 90.73143 225.875392 90.669769 
C 226.391952 90.608109 226.862927 90.343734 227.184589 89.93487 
C 227.506251 89.526007 227.65234 89.006036 227.590679 88.489476 
C 227.529018 87.972917 227.264644 87.501942 226.85578 87.18028 
z
" clip-path="url(#pb0a84b45d1)" style="stroke: #000000; stroke-linejoin: miter"/>
   </g>
   <g id="legend_1">
    <g id="patch_12">
     <path d="M 230.591799 35.73418 
L 339.931799 35.73418 
Q 342.131799 35.73418 342.131799 33.53418 
L 342.131799 19.060156 
Q 342.131799 16.860156 339.931799 16.860156 
L 230.591799 16.860156 
Q 228.391799 16.860156 228.391799 19.060156 
L 228.391799 33.53418 
Q 228.391799 35.73418 230.591799 35.73418 
z
" style="fill: #ffffff; opacity: 0.8; stroke: #cccccc; stroke-linejoin: miter"/>
    </g>
    <g id="line2d_16">
     <path d="M 232.791799 25.110156 
L 243.791799 25.110156 
L 254.791799 25.110156 
" style="fill: none; stroke: #000000; stroke-width: 2; stroke-linecap: round"/>
    </g>
    <g id="text_17">
     <!-- $\omega_L$=3.0, $\omega_R$=5.0 -->
     <g style="fill: #262626" transform="translate(263.591799 28.960156) scale(0.11 -0.11)">
      <defs>
       <path id="DejaVuSans-Oblique-35d" d="M 1369 -91 
Q 72 -91 434 1766 
Q 575 2500 1256 3500 
L 1875 3500 
Q 1231 2500 1088 1750 
Q 819 397 1519 397 
Q 2166 397 2478 2078 
L 3009 2078 
Q 2669 388 3316 397 
Q 4013 403 4275 1750 
Q 4419 2500 4169 3500 
L 4788 3500 
Q 5075 2500 4934 1766 
Q 4578 -94 3278 -91 
Q 2428 -88 2503 844 
Q 2194 -91 1369 -91 
z
" transform="scale(0.015625)"/>
       <path id="DejaVuSans-Oblique-2f" d="M 1075 4666 
L 1709 4666 
L 909 525 
L 3181 525 
L 3078 0 
L 172 0 
L 1075 4666 
z
" transform="scale(0.015625)"/>
       <path id="TimesNewRomanPSMT-20" d="M 116 2759 
L 3488 2759 
L 3488 2503 
L 116 2503 
L 116 2759 
z
M 116 1741 
L 3488 1741 
L 3488 1484 
L 116 1484 
L 116 1741 
z
" transform="scale(0.015625)"/>
       <path id="TimesNewRomanPSMT-16" d="M 325 3431 
Q 506 3859 782 4092 
Q 1059 4325 1472 4325 
Q 1981 4325 2253 3994 
Q 2459 3747 2459 3466 
Q 2459 3003 1878 2509 
Q 2269 2356 2469 2072 
Q 2669 1788 2669 1403 
Q 2669 853 2319 450 
Q 1863 -75 997 -75 
Q 569 -75 414 31 
Q 259 138 259 259 
Q 259 350 332 419 
Q 406 488 509 488 
Q 588 488 669 463 
Q 722 447 909 348 
Q 1097 250 1169 231 
Q 1284 197 1416 197 
Q 1734 197 1970 444 
Q 2206 691 2206 1028 
Q 2206 1275 2097 1509 
Q 2016 1684 1919 1775 
Q 1784 1900 1550 2001 
Q 1316 2103 1072 2103 
L 972 2103 
L 972 2197 
Q 1219 2228 1467 2375 
Q 1716 2522 1828 2728 
Q 1941 2934 1941 3181 
Q 1941 3503 1739 3701 
Q 1538 3900 1238 3900 
Q 753 3900 428 3381 
L 325 3431 
z
" transform="scale(0.015625)"/>
       <path id="TimesNewRomanPSMT-f" d="M 344 -1066 
L 344 -928 
Q 666 -822 842 -598 
Q 1019 -375 1019 -125 
Q 1019 -66 991 -25 
Q 969 3 947 3 
Q 913 3 797 -59 
Q 741 -88 678 -88 
Q 525 -88 434 3 
Q 344 94 344 253 
Q 344 406 461 515 
Q 578 625 747 625 
Q 953 625 1114 445 
Q 1275 266 1275 -31 
Q 1275 -353 1051 -629 
Q 828 -906 344 -1066 
z
" transform="scale(0.015625)"/>
       <path id="DejaVuSans-Oblique-35" d="M 1613 4147 
L 1294 2491 
L 2106 2491 
Q 2584 2491 2879 2755 
Q 3175 3019 3175 3444 
Q 3175 3784 2976 3965 
Q 2778 4147 2406 4147 
L 1613 4147 
z
M 2772 2241 
Q 2972 2194 3105 2009 
Q 3238 1825 3413 1275 
L 3809 0 
L 3144 0 
L 2778 1197 
Q 2638 1659 2453 1815 
Q 2269 1972 1888 1972 
L 1191 1972 
L 806 0 
L 172 0 
L 1081 4666 
L 2503 4666 
Q 3150 4666 3495 4373 
Q 3841 4081 3841 3531 
Q 3841 3044 3547 2687 
Q 3253 2331 2772 2241 
z
" transform="scale(0.015625)"/>
      </defs>
      <use xlink:href="#DejaVuSans-Oblique-35d" transform="translate(0 0.421875)"/>
      <use xlink:href="#DejaVuSans-Oblique-2f" transform="translate(83.740234 -14.578076) scale(0.7)"/>
      <use xlink:href="#TimesNewRomanPSMT-20" transform="translate(125.473633 0.421875)"/>
      <use xlink:href="#TimesNewRomanPSMT-16" transform="translate(181.870117 0.421875)"/>
      <use xlink:href="#TimesNewRomanPSMT-11" transform="translate(231.870117 0.421875)"/>
      <use xlink:href="#TimesNewRomanPSMT-13" transform="translate(256.870117 0.421875)"/>
      <use xlink:href="#TimesNewRomanPSMT-f" transform="translate(306.870117 0.421875)"/>
      <use xlink:href="#TimesNewRomanPSMT-3" transform="translate(331.870117 0.421875)"/>
      <use xlink:href="#DejaVuSans-Oblique-35d" transform="translate(356.870117 0.421875)"/>
      <use xlink:href="#DejaVuSans-Oblique-35" transform="translate(440.610352 -14.578076) scale(0.7)"/>
      <use xlink:href="#TimesNewRomanPSMT-20" transform="translate(491.982422 0.421875)"/>
      <use xlink:href="#TimesNewRomanPSMT-18" transform="translate(548.378906 0.421875)"/>
      <use xlink:href="#TimesNewRomanPSMT-11" transform="translate(598.378906 0.421875)"/>
      <use xlink:href="#TimesNewRomanPSMT-13" transform="translate(623.378906 0.421875)"/>
     </g>
    </g>
   </g>
  </g>
  <g id="axes_2">
   <g id="patch_13">
    <path d="M 424.460551 87.194245 
L 686.410622 87.194245 
L 686.410622 11.360156 
L 424.460551 11.360156 
z
" style="fill: #ffffff"/>
   </g>
   <g id="matplotlib.axis_3">
    <g id="xtick_8">
     <g id="line2d_17">
      <path d="M 424.460551 87.194245 
L 424.460551 11.360156 
" clip-path="url(#p34444b7b4f)" style="fill: none; stroke: #cccccc; stroke-linecap: round"/>
     </g>
     <g id="text_18">
      <!-- 0 -->
      <g style="fill: #262626" transform="translate(421.460551 105.014558) scale(0.12 -0.12)">
       <use xlink:href="#TimesNewRomanPSMT-13"/>
      </g>
     </g>
    </g>
    <g id="xtick_9">
     <g id="line2d_18">
      <path d="M 476.850566 87.194245 
L 476.850566 11.360156 
" clip-path="url(#p34444b7b4f)" style="fill: none; stroke: #cccccc; stroke-linecap: round"/>
     </g>
     <g id="text_19">
      <!-- 1 -->
      <g style="fill: #262626" transform="translate(473.850566 105.014558) scale(0.12 -0.12)">
       <use xlink:href="#TimesNewRomanPSMT-14"/>
      </g>
     </g>
    </g>
    <g id="xtick_10">
     <g id="line2d_19">
      <path d="M 529.24058 87.194245 
L 529.24058 11.360156 
" clip-path="url(#p34444b7b4f)" style="fill: none; stroke: #cccccc; stroke-linecap: round"/>
     </g>
     <g id="text_20">
      <!-- 2 -->
      <g style="fill: #262626" transform="translate(526.24058 105.014558) scale(0.12 -0.12)">
       <defs>
        <path id="TimesNewRomanPSMT-15" d="M 2934 816 
L 2638 0 
L 138 0 
L 138 116 
Q 1241 1122 1691 1759 
Q 2141 2397 2141 2925 
Q 2141 3328 1894 3587 
Q 1647 3847 1303 3847 
Q 991 3847 742 3664 
Q 494 3481 375 3128 
L 259 3128 
Q 338 3706 661 4015 
Q 984 4325 1469 4325 
Q 1984 4325 2329 3994 
Q 2675 3663 2675 3213 
Q 2675 2891 2525 2569 
Q 2294 2063 1775 1497 
Q 997 647 803 472 
L 1909 472 
Q 2247 472 2383 497 
Q 2519 522 2628 598 
Q 2738 675 2819 816 
L 2934 816 
z
" transform="scale(0.015625)"/>
       </defs>
       <use xlink:href="#TimesNewRomanPSMT-15"/>
      </g>
     </g>
    </g>
    <g id="xtick_11">
     <g id="line2d_20">
      <path d="M 581.630594 87.194245 
L 581.630594 11.360156 
" clip-path="url(#p34444b7b4f)" style="fill: none; stroke: #cccccc; stroke-linecap: round"/>
     </g>
     <g id="text_21">
      <!-- 3 -->
      <g style="fill: #262626" transform="translate(578.630594 105.014558) scale(0.12 -0.12)">
       <use xlink:href="#TimesNewRomanPSMT-16"/>
      </g>
     </g>
    </g>
    <g id="xtick_12">
     <g id="line2d_21">
      <path d="M 634.020608 87.194245 
L 634.020608 11.360156 
" clip-path="url(#p34444b7b4f)" style="fill: none; stroke: #cccccc; stroke-linecap: round"/>
     </g>
     <g id="text_22">
      <!-- 4 -->
      <g style="fill: #262626" transform="translate(631.020608 105.014558) scale(0.12 -0.12)">
       <defs>
        <path id="TimesNewRomanPSMT-17" d="M 2978 1563 
L 2978 1119 
L 2409 1119 
L 2409 0 
L 1894 0 
L 1894 1119 
L 100 1119 
L 100 1519 
L 2066 4325 
L 2409 4325 
L 2409 1563 
L 2978 1563 
z
M 1894 1563 
L 1894 3666 
L 406 1563 
L 1894 1563 
z
" transform="scale(0.015625)"/>
       </defs>
       <use xlink:href="#TimesNewRomanPSMT-17"/>
      </g>
     </g>
    </g>
    <g id="xtick_13">
     <g id="line2d_22">
      <path d="M 686.410622 87.194245 
L 686.410622 11.360156 
" clip-path="url(#p34444b7b4f)" style="fill: none; stroke: #cccccc; stroke-linecap: round"/>
     </g>
     <g id="text_23">
      <!-- 5 -->
      <g style="fill: #262626" transform="translate(683.410622 105.014558) scale(0.12 -0.12)">
       <use xlink:href="#TimesNewRomanPSMT-18"/>
      </g>
     </g>
    </g>
   </g>
   <g id="matplotlib.axis_4">
    <g id="ytick_8">
     <g id="line2d_23">
      <path d="M 424.460551 74.555231 
L 686.410622 74.555231 
" clip-path="url(#p34444b7b4f)" style="fill: none; stroke: #cccccc; stroke-linecap: round"/>
     </g>
     <g id="text_24">
      <!-- −1 -->
      <g style="fill: #262626" transform="translate(402.193676 78.715387) scale(0.12 -0.12)">
       <use xlink:href="#TimesNewRomanPSMT-ed"/>
       <use xlink:href="#TimesNewRomanPSMT-14" transform="translate(56.390625 0)"/>
      </g>
     </g>
    </g>
    <g id="ytick_9">
     <g id="line2d_24">
      <path d="M 424.460551 49.277201 
L 686.410622 49.277201 
" clip-path="url(#p34444b7b4f)" style="fill: none; stroke: #cccccc; stroke-linecap: round"/>
     </g>
     <g id="text_25">
      <!-- 0 -->
      <g style="fill: #262626" transform="translate(408.960551 53.437357) scale(0.12 -0.12)">
       <use xlink:href="#TimesNewRomanPSMT-13"/>
      </g>
     </g>
    </g>
    <g id="ytick_10">
     <g id="line2d_25">
      <path d="M 424.460551 23.999171 
L 686.410622 23.999171 
" clip-path="url(#p34444b7b4f)" style="fill: none; stroke: #cccccc; stroke-linecap: round"/>
     </g>
     <g id="text_26">
      <!-- 1 -->
      <g style="fill: #262626" transform="translate(408.960551 28.159327) scale(0.12 -0.12)">
       <use xlink:href="#TimesNewRomanPSMT-14"/>
      </g>
     </g>
    </g>
    <g id="text_27">
     <!-- x (m) -->
     <g style="fill: #262626" transform="translate(395.603833 62.439701) rotate(-90) scale(0.12 -0.12)">
      <defs>
       <path id="TimesNewRomanPSMT-5b" d="M 84 2863 
L 1431 2863 
L 1431 2747 
Q 1303 2747 1251 2703 
Q 1200 2659 1200 2588 
Q 1200 2513 1309 2356 
Q 1344 2306 1413 2200 
L 1616 1875 
L 1850 2200 
Q 2075 2509 2075 2591 
Q 2075 2656 2022 2701 
Q 1969 2747 1850 2747 
L 1850 2863 
L 2819 2863 
L 2819 2747 
Q 2666 2738 2553 2663 
Q 2400 2556 2134 2200 
L 1744 1678 
L 2456 653 
Q 2719 275 2831 198 
Q 2944 122 3122 113 
L 3122 0 
L 1772 0 
L 1772 113 
Q 1913 113 1991 175 
Q 2050 219 2050 291 
Q 2050 363 1850 653 
L 1431 1266 
L 972 653 
Q 759 369 759 316 
Q 759 241 829 180 
Q 900 119 1041 113 
L 1041 0 
L 106 0 
L 106 113 
Q 219 128 303 191 
Q 422 281 703 653 
L 1303 1450 
L 759 2238 
Q 528 2575 401 2661 
Q 275 2747 84 2747 
L 84 2863 
z
" transform="scale(0.015625)"/>
      </defs>
      <use xlink:href="#TimesNewRomanPSMT-5b"/>
      <use xlink:href="#TimesNewRomanPSMT-3" transform="translate(50 0)"/>
      <use xlink:href="#TimesNewRomanPSMT-b" transform="translate(75 0)"/>
      <use xlink:href="#TimesNewRomanPSMT-50" transform="translate(108.296875 0)"/>
      <use xlink:href="#TimesNewRomanPSMT-c" transform="translate(186.078125 0)"/>
     </g>
    </g>
   </g>
   <g id="line2d_26">
    <path d="M 424.460551 49.277201 
L 427.106512 49.024421 
L 429.752472 48.771719 
L 432.398432 48.519255 
L 435.044393 48.267185 
L 437.690353 48.015668 
L 440.336313 47.76486 
L 442.982274 47.514918 
L 445.628234 47.265998 
L 448.274194 47.018257 
L 450.920155 46.771848 
L 453.566115 46.526926 
L 456.212075 46.283644 
L 458.858035 46.042154 
L 461.503996 45.802606 
L 464.149956 45.565151 
L 466.795916 45.329937 
L 469.441877 45.097111 
L 472.087837 44.866819 
L 474.733797 44.639203 
L 477.379758 44.414408 
L 480.025718 44.192572 
L 482.671678 43.973835 
L 485.317639 43.758334 
L 487.963599 43.546203 
L 490.609559 43.337574 
L 493.25552 43.132579 
L 495.90148 42.931344 
L 498.54744 42.733997 
L 501.1934 42.54066 
L 503.839361 42.351454 
L 506.485321 42.166497 
L 509.131281 41.985906 
L 511.777242 41.809792 
L 514.423202 41.638266 
L 517.069162 41.471436 
L 519.715123 41.309404 
L 522.361083 41.152273 
L 525.007043 41.000142 
L 527.653004 40.853104 
L 530.298964 40.711251 
L 532.944924 40.574674 
L 535.590885 40.443456 
L 538.236845 40.317679 
L 540.882805 40.197424 
L 543.528765 40.082763 
L 546.174726 39.973771 
L 548.820686 39.870513 
L 551.466646 39.773055 
L 554.112607 39.681458 
L 556.758567 39.59578 
L 559.404527 39.516072 
L 562.050488 39.442386 
L 564.696448 39.374768 
L 567.342408 39.313259 
L 569.988369 39.257899 
L 572.634329 39.208721 
L 575.280289 39.165756 
L 577.92625 39.129032 
L 580.57221 39.098572 
L 583.21817 39.074393 
L 585.864131 39.056512 
L 588.510091 39.04494 
L 591.156051 39.039683 
L 593.802011 39.040746 
L 596.447972 39.048127 
L 599.093932 39.061822 
L 601.739892 39.081822 
L 604.385853 39.108115 
L 607.031813 39.140685 
L 609.677773 39.17951 
L 612.323734 39.224567 
L 614.969694 39.275828 
L 617.615654 39.33326 
L 620.261615 39.396828 
L 622.907575 39.466492 
L 625.553535 39.542208 
L 628.199496 39.623929 
L 630.845456 39.711604 
L 633.491416 39.805179 
L 636.137376 39.904594 
L 638.783337 40.009787 
L 641.429297 40.120694 
L 644.075257 40.237244 
L 646.721218 40.359365 
L 649.367178 40.48698 
L 652.013138 40.62001 
L 654.659099 40.758371 
L 657.305059 40.901977 
L 659.951019 41.050739 
L 662.59698 41.204563 
L 665.24294 41.363352 
L 667.8889 41.527009 
L 670.534861 41.695431 
L 673.180821 41.868512 
L 675.826781 42.046144 
L 678.472741 42.228216 
L 681.118702 42.414614 
L 683.764662 42.605223 
L 686.410622 42.799922 
" clip-path="url(#p34444b7b4f)" style="fill: none; stroke: #0000ff; stroke-width: 2; stroke-linecap: round"/>
   </g>
   <g id="patch_14">
    <path d="M 424.460551 87.194245 
L 424.460551 11.360156 
" style="fill: none; stroke: #cccccc; stroke-width: 1.25; stroke-linejoin: miter; stroke-linecap: square"/>
   </g>
   <g id="patch_15">
    <path d="M 686.410622 87.194245 
L 686.410622 11.360156 
" style="fill: none; stroke: #cccccc; stroke-width: 1.25; stroke-linejoin: miter; stroke-linecap: square"/>
   </g>
   <g id="patch_16">
    <path d="M 424.460551 87.194245 
L 686.410622 87.194245 
" style="fill: none; stroke: #cccccc; stroke-width: 1.25; stroke-linejoin: miter; stroke-linecap: square"/>
   </g>
   <g id="patch_17">
    <path d="M 424.460551 11.360156 
L 686.410622 11.360156 
" style="fill: none; stroke: #cccccc; stroke-width: 1.25; stroke-linejoin: miter; stroke-linecap: square"/>
   </g>
  </g>
  <g id="axes_3">
   <g id="patch_18">
    <path d="M 424.460551 196.398491 
L 686.410622 196.398491 
L 686.410622 120.564402 
L 424.460551 120.564402 
z
" style="fill: #ffffff"/>
   </g>
   <g id="matplotlib.axis_5">
    <g id="xtick_14">
     <g id="line2d_27">
      <path d="M 424.460551 196.398491 
L 424.460551 120.564402 
" clip-path="url(#pa8ecb025b4)" style="fill: none; stroke: #cccccc; stroke-linecap: round"/>
     </g>
     <g id="text_28">
      <!-- 0 -->
      <g style="fill: #262626" transform="translate(421.460551 214.218803) scale(0.12 -0.12)">
       <use xlink:href="#TimesNewRomanPSMT-13"/>
      </g>
     </g>
    </g>
    <g id="xtick_15">
     <g id="line2d_28">
      <path d="M 476.850566 196.398491 
L 476.850566 120.564402 
" clip-path="url(#pa8ecb025b4)" style="fill: none; stroke: #cccccc; stroke-linecap: round"/>
     </g>
     <g id="text_29">
      <!-- 1 -->
      <g style="fill: #262626" transform="translate(473.850566 214.218803) scale(0.12 -0.12)">
       <use xlink:href="#TimesNewRomanPSMT-14"/>
      </g>
     </g>
    </g>
    <g id="xtick_16">
     <g id="line2d_29">
      <path d="M 529.24058 196.398491 
L 529.24058 120.564402 
" clip-path="url(#pa8ecb025b4)" style="fill: none; stroke: #cccccc; stroke-linecap: round"/>
     </g>
     <g id="text_30">
      <!-- 2 -->
      <g style="fill: #262626" transform="translate(526.24058 214.218803) scale(0.12 -0.12)">
       <use xlink:href="#TimesNewRomanPSMT-15"/>
      </g>
     </g>
    </g>
    <g id="xtick_17">
     <g id="line2d_30">
      <path d="M 581.630594 196.398491 
L 581.630594 120.564402 
" clip-path="url(#pa8ecb025b4)" style="fill: none; stroke: #cccccc; stroke-linecap: round"/>
     </g>
     <g id="text_31">
      <!-- 3 -->
      <g style="fill: #262626" transform="translate(578.630594 214.218803) scale(0.12 -0.12)">
       <use xlink:href="#TimesNewRomanPSMT-16"/>
      </g>
     </g>
    </g>
    <g id="xtick_18">
     <g id="line2d_31">
      <path d="M 634.020608 196.398491 
L 634.020608 120.564402 
" clip-path="url(#pa8ecb025b4)" style="fill: none; stroke: #cccccc; stroke-linecap: round"/>
     </g>
     <g id="text_32">
      <!-- 4 -->
      <g style="fill: #262626" transform="translate(631.020608 214.218803) scale(0.12 -0.12)">
       <use xlink:href="#TimesNewRomanPSMT-17"/>
      </g>
     </g>
    </g>
    <g id="xtick_19">
     <g id="line2d_32">
      <path d="M 686.410622 196.398491 
L 686.410622 120.564402 
" clip-path="url(#pa8ecb025b4)" style="fill: none; stroke: #cccccc; stroke-linecap: round"/>
     </g>
     <g id="text_33">
      <!-- 5 -->
      <g style="fill: #262626" transform="translate(683.410622 214.218803) scale(0.12 -0.12)">
       <use xlink:href="#TimesNewRomanPSMT-18"/>
      </g>
     </g>
    </g>
   </g>
   <g id="matplotlib.axis_6">
    <g id="ytick_11">
     <g id="line2d_33">
      <path d="M 424.460551 183.759476 
L 686.410622 183.759476 
" clip-path="url(#pa8ecb025b4)" style="fill: none; stroke: #cccccc; stroke-linecap: round"/>
     </g>
     <g id="text_34">
      <!-- −1 -->
      <g style="fill: #262626" transform="translate(402.193676 187.919632) scale(0.12 -0.12)">
       <use xlink:href="#TimesNewRomanPSMT-ed"/>
       <use xlink:href="#TimesNewRomanPSMT-14" transform="translate(56.390625 0)"/>
      </g>
     </g>
    </g>
    <g id="ytick_12">
     <g id="line2d_34">
      <path d="M 424.460551 158.481446 
L 686.410622 158.481446 
" clip-path="url(#pa8ecb025b4)" style="fill: none; stroke: #cccccc; stroke-linecap: round"/>
     </g>
     <g id="text_35">
      <!-- 0 -->
      <g style="fill: #262626" transform="translate(408.960551 162.641603) scale(0.12 -0.12)">
       <use xlink:href="#TimesNewRomanPSMT-13"/>
      </g>
     </g>
    </g>
    <g id="ytick_13">
     <g id="line2d_35">
      <path d="M 424.460551 133.203417 
L 686.410622 133.203417 
" clip-path="url(#pa8ecb025b4)" style="fill: none; stroke: #cccccc; stroke-linecap: round"/>
     </g>
     <g id="text_36">
      <!-- 1 -->
      <g style="fill: #262626" transform="translate(408.960551 137.363573) scale(0.12 -0.12)">
       <use xlink:href="#TimesNewRomanPSMT-14"/>
      </g>
     </g>
    </g>
    <g id="text_37">
     <!-- y (m) -->
     <g style="fill: #262626" transform="translate(395.603833 171.643946) rotate(-90) scale(0.12 -0.12)">
      <defs>
       <path id="TimesNewRomanPSMT-5c" d="M 38 2863 
L 1372 2863 
L 1372 2747 
L 1306 2747 
Q 1166 2747 1095 2686 
Q 1025 2625 1025 2534 
Q 1025 2413 1128 2197 
L 1825 753 
L 2466 2334 
Q 2519 2463 2519 2588 
Q 2519 2644 2497 2672 
Q 2472 2706 2419 2726 
Q 2366 2747 2231 2747 
L 2231 2863 
L 3163 2863 
L 3163 2747 
Q 3047 2734 2984 2696 
Q 2922 2659 2847 2556 
Q 2819 2513 2741 2316 
L 1575 -541 
Q 1406 -956 1132 -1168 
Q 859 -1381 606 -1381 
Q 422 -1381 303 -1275 
Q 184 -1169 184 -1031 
Q 184 -900 270 -820 
Q 356 -741 506 -741 
Q 609 -741 788 -809 
Q 913 -856 944 -856 
Q 1038 -856 1148 -759 
Q 1259 -663 1372 -384 
L 1575 113 
L 547 2272 
Q 500 2369 397 2513 
Q 319 2622 269 2659 
Q 197 2709 38 2747 
L 38 2863 
z
" transform="scale(0.015625)"/>
      </defs>
      <use xlink:href="#TimesNewRomanPSMT-5c"/>
      <use xlink:href="#TimesNewRomanPSMT-3" transform="translate(50 0)"/>
      <use xlink:href="#TimesNewRomanPSMT-b" transform="translate(75 0)"/>
      <use xlink:href="#TimesNewRomanPSMT-50" transform="translate(108.296875 0)"/>
      <use xlink:href="#TimesNewRomanPSMT-c" transform="translate(186.078125 0)"/>
     </g>
    </g>
   </g>
   <g id="line2d_36">
    <path d="M 424.460551 158.481446 
L 427.106512 158.481446 
L 429.752472 158.475127 
L 432.398432 158.462494 
L 435.044393 158.443553 
L 437.690353 158.418317 
L 440.336313 158.386802 
L 442.982274 158.349027 
L 445.628234 158.305016 
L 448.274194 158.254796 
L 450.920155 158.198399 
L 453.566115 158.13586 
L 456.212075 158.067218 
L 458.858035 157.992517 
L 461.503996 157.911802 
L 464.149956 157.825124 
L 466.795916 157.732537 
L 469.441877 157.6341 
L 472.087837 157.529874 
L 474.733797 157.419923 
L 477.379758 157.304317 
L 480.025718 157.183127 
L 482.671678 157.056431 
L 485.317639 156.924306 
L 487.963599 156.786835 
L 490.609559 156.644104 
L 493.25552 156.496203 
L 495.90148 156.343224 
L 498.54744 156.185262 
L 501.1934 156.022417 
L 503.839361 155.854789 
L 506.485321 155.682484 
L 509.131281 155.50561 
L 511.777242 155.324277 
L 514.423202 155.138597 
L 517.069162 154.948688 
L 519.715123 154.754669 
L 522.361083 154.556659 
L 525.007043 154.354783 
L 527.653004 154.149168 
L 530.298964 153.939941 
L 532.944924 153.727234 
L 535.590885 153.511179 
L 538.236845 153.291912 
L 540.882805 153.069568 
L 543.528765 152.844289 
L 546.174726 152.616213 
L 548.820686 152.385485 
L 551.466646 152.152247 
L 554.112607 151.916646 
L 556.758567 151.678828 
L 559.404527 151.438944 
L 562.050488 151.197142 
L 564.696448 150.953573 
L 567.342408 150.708391 
L 569.988369 150.461747 
L 572.634329 150.213796 
L 575.280289 149.964694 
L 577.92625 149.714596 
L 580.57221 149.463657 
L 583.21817 149.212036 
L 585.864131 148.959889 
L 588.510091 148.707374 
L 591.156051 148.454648 
L 593.802011 148.20187 
L 596.447972 147.949198 
L 599.093932 147.696789 
L 601.739892 147.444801 
L 604.385853 147.193392 
L 607.031813 146.942718 
L 609.677773 146.692937 
L 612.323734 146.444205 
L 614.969694 146.196677 
L 617.615654 145.950507 
L 620.261615 145.70585 
L 622.907575 145.462859 
L 625.553535 145.221685 
L 628.199496 144.982479 
L 630.845456 144.745391 
L 633.491416 144.510568 
L 636.137376 144.278158 
L 638.783337 144.048305 
L 641.429297 143.821154 
L 644.075257 143.596846 
L 646.721218 143.375522 
L 649.367178 143.15732 
L 652.013138 142.942376 
L 654.659099 142.730824 
L 657.305059 142.522797 
L 659.951019 142.318425 
L 662.59698 142.117836 
L 665.24294 141.921154 
L 667.8889 141.728504 
L 670.534861 141.540004 
L 673.180821 141.355773 
L 675.826781 141.175927 
L 678.472741 141.000577 
L 681.118702 140.829833 
L 683.764662 140.663802 
L 686.410622 140.502588 
" clip-path="url(#pa8ecb025b4)" style="fill: none; stroke: #ff0000; stroke-width: 2; stroke-linecap: round"/>
   </g>
   <g id="patch_19">
    <path d="M 424.460551 196.398491 
L 424.460551 120.564402 
" style="fill: none; stroke: #cccccc; stroke-width: 1.25; stroke-linejoin: miter; stroke-linecap: square"/>
   </g>
   <g id="patch_20">
    <path d="M 686.410622 196.398491 
L 686.410622 120.564402 
" style="fill: none; stroke: #cccccc; stroke-width: 1.25; stroke-linejoin: miter; stroke-linecap: square"/>
   </g>
   <g id="patch_21">
    <path d="M 424.460551 196.398491 
L 686.410622 196.398491 
" style="fill: none; stroke: #cccccc; stroke-width: 1.25; stroke-linejoin: miter; stroke-linecap: square"/>
   </g>
   <g id="patch_22">
    <path d="M 424.460551 120.564402 
L 686.410622 120.564402 
" style="fill: none; stroke: #cccccc; stroke-width: 1.25; stroke-linejoin: miter; stroke-linecap: square"/>
   </g>
  </g>
  <g id="axes_4">
   <g id="patch_23">
    <path d="M 424.460551 305.602736 
L 686.410622 305.602736 
L 686.410622 229.768647 
L 424.460551 229.768647 
z
" style="fill: #ffffff"/>
   </g>
   <g id="matplotlib.axis_7">
    <g id="xtick_20">
     <g id="line2d_37">
      <path d="M 424.460551 305.602736 
L 424.460551 229.768647 
" clip-path="url(#p8989ca8919)" style="fill: none; stroke: #cccccc; stroke-linecap: round"/>
     </g>
     <g id="text_38">
      <!-- 0 -->
      <g style="fill: #262626" transform="translate(421.460551 323.423049) scale(0.12 -0.12)">
       <use xlink:href="#TimesNewRomanPSMT-13"/>
      </g>
     </g>
    </g>
    <g id="xtick_21">
     <g id="line2d_38">
      <path d="M 476.850566 305.602736 
L 476.850566 229.768647 
" clip-path="url(#p8989ca8919)" style="fill: none; stroke: #cccccc; stroke-linecap: round"/>
     </g>
     <g id="text_39">
      <!-- 1 -->
      <g style="fill: #262626" transform="translate(473.850566 323.423049) scale(0.12 -0.12)">
       <use xlink:href="#TimesNewRomanPSMT-14"/>
      </g>
     </g>
    </g>
    <g id="xtick_22">
     <g id="line2d_39">
      <path d="M 529.24058 305.602736 
L 529.24058 229.768647 
" clip-path="url(#p8989ca8919)" style="fill: none; stroke: #cccccc; stroke-linecap: round"/>
     </g>
     <g id="text_40">
      <!-- 2 -->
      <g style="fill: #262626" transform="translate(526.24058 323.423049) scale(0.12 -0.12)">
       <use xlink:href="#TimesNewRomanPSMT-15"/>
      </g>
     </g>
    </g>
    <g id="xtick_23">
     <g id="line2d_40">
      <path d="M 581.630594 305.602736 
L 581.630594 229.768647 
" clip-path="url(#p8989ca8919)" style="fill: none; stroke: #cccccc; stroke-linecap: round"/>
     </g>
     <g id="text_41">
      <!-- 3 -->
      <g style="fill: #262626" transform="translate(578.630594 323.423049) scale(0.12 -0.12)">
       <use xlink:href="#TimesNewRomanPSMT-16"/>
      </g>
     </g>
    </g>
    <g id="xtick_24">
     <g id="line2d_41">
      <path d="M 634.020608 305.602736 
L 634.020608 229.768647 
" clip-path="url(#p8989ca8919)" style="fill: none; stroke: #cccccc; stroke-linecap: round"/>
     </g>
     <g id="text_42">
      <!-- 4 -->
      <g style="fill: #262626" transform="translate(631.020608 323.423049) scale(0.12 -0.12)">
       <use xlink:href="#TimesNewRomanPSMT-17"/>
      </g>
     </g>
    </g>
    <g id="xtick_25">
     <g id="line2d_42">
      <path d="M 686.410622 305.602736 
L 686.410622 229.768647 
" clip-path="url(#p8989ca8919)" style="fill: none; stroke: #cccccc; stroke-linecap: round"/>
     </g>
     <g id="text_43">
      <!-- 5 -->
      <g style="fill: #262626" transform="translate(683.410622 323.423049) scale(0.12 -0.12)">
       <use xlink:href="#TimesNewRomanPSMT-18"/>
      </g>
     </g>
    </g>
    <g id="text_44">
     <!-- Tempo (s) -->
     <g style="fill: #262626" transform="translate(531.028712 338.345393) scale(0.12 -0.12)">
      <defs>
       <path id="TimesNewRomanPSMT-37" d="M 3703 4238 
L 3750 3244 
L 3631 3244 
Q 3597 3506 3538 3619 
Q 3441 3800 3280 3886 
Q 3119 3972 2856 3972 
L 2259 3972 
L 2259 734 
Q 2259 344 2344 247 
Q 2463 116 2709 116 
L 2856 116 
L 2856 0 
L 1059 0 
L 1059 116 
L 1209 116 
Q 1478 116 1591 278 
Q 1659 378 1659 734 
L 1659 3972 
L 1150 3972 
Q 853 3972 728 3928 
Q 566 3869 450 3700 
Q 334 3531 313 3244 
L 194 3244 
L 244 4238 
L 3703 4238 
z
" transform="scale(0.015625)"/>
       <path id="TimesNewRomanPSMT-48" d="M 681 1784 
Q 678 1147 991 784 
Q 1303 422 1725 422 
Q 2006 422 2214 576 
Q 2422 731 2563 1106 
L 2659 1044 
Q 2594 616 2278 264 
Q 1963 -88 1488 -88 
Q 972 -88 605 314 
Q 238 716 238 1394 
Q 238 2128 614 2539 
Q 991 2950 1559 2950 
Q 2041 2950 2350 2633 
Q 2659 2316 2659 1784 
L 681 1784 
z
M 681 1966 
L 2006 1966 
Q 1991 2241 1941 2353 
Q 1863 2528 1708 2628 
Q 1553 2728 1384 2728 
Q 1125 2728 920 2526 
Q 716 2325 681 1966 
z
" transform="scale(0.015625)"/>
       <path id="TimesNewRomanPSMT-53" d="M -6 2578 
L 875 2934 
L 994 2934 
L 994 2266 
Q 1216 2644 1439 2795 
Q 1663 2947 1909 2947 
Q 2341 2947 2628 2609 
Q 2981 2197 2981 1534 
Q 2981 794 2556 309 
Q 2206 -88 1675 -88 
Q 1444 -88 1275 -22 
Q 1150 25 994 166 
L 994 -706 
Q 994 -1000 1030 -1079 
Q 1066 -1159 1155 -1206 
Q 1244 -1253 1478 -1253 
L 1478 -1369 
L -22 -1369 
L -22 -1253 
L 56 -1253 
Q 228 -1256 350 -1188 
Q 409 -1153 442 -1076 
Q 475 -1000 475 -688 
L 475 2019 
Q 475 2297 450 2372 
Q 425 2447 370 2484 
Q 316 2522 222 2522 
Q 147 2522 31 2478 
L -6 2578 
z
M 994 2081 
L 994 1013 
Q 994 666 1022 556 
Q 1066 375 1236 237 
Q 1406 100 1666 100 
Q 1978 100 2172 344 
Q 2425 663 2425 1241 
Q 2425 1897 2138 2250 
Q 1938 2494 1663 2494 
Q 1513 2494 1366 2419 
Q 1253 2363 994 2081 
z
" transform="scale(0.015625)"/>
      </defs>
      <use xlink:href="#TimesNewRomanPSMT-37"/>
      <use xlink:href="#TimesNewRomanPSMT-48" transform="translate(54.09375 0)"/>
      <use xlink:href="#TimesNewRomanPSMT-50" transform="translate(98.484375 0)"/>
      <use xlink:href="#TimesNewRomanPSMT-53" transform="translate(176.265625 0)"/>
      <use xlink:href="#TimesNewRomanPSMT-52" transform="translate(226.265625 0)"/>
      <use xlink:href="#TimesNewRomanPSMT-3" transform="translate(276.265625 0)"/>
      <use xlink:href="#TimesNewRomanPSMT-b" transform="translate(301.265625 0)"/>
      <use xlink:href="#TimesNewRomanPSMT-56" transform="translate(334.5625 0)"/>
      <use xlink:href="#TimesNewRomanPSMT-c" transform="translate(373.484375 0)"/>
     </g>
    </g>
   </g>
   <g id="matplotlib.axis_8">
    <g id="ytick_14">
     <g id="line2d_43">
      <path d="M 424.460551 292.963721 
L 686.410622 292.963721 
" clip-path="url(#p8989ca8919)" style="fill: none; stroke: #cccccc; stroke-linecap: round"/>
     </g>
     <g id="text_45">
      <!-- −20 -->
      <g style="fill: #262626" transform="translate(396.193676 297.123878) scale(0.12 -0.12)">
       <use xlink:href="#TimesNewRomanPSMT-ed"/>
       <use xlink:href="#TimesNewRomanPSMT-15" transform="translate(56.390625 0)"/>
       <use xlink:href="#TimesNewRomanPSMT-13" transform="translate(106.390625 0)"/>
      </g>
     </g>
    </g>
    <g id="ytick_15">
     <g id="line2d_44">
      <path d="M 424.460551 267.685692 
L 686.410622 267.685692 
" clip-path="url(#p8989ca8919)" style="fill: none; stroke: #cccccc; stroke-linecap: round"/>
     </g>
     <g id="text_46">
      <!-- 0 -->
      <g style="fill: #262626" transform="translate(408.960551 271.845848) scale(0.12 -0.12)">
       <use xlink:href="#TimesNewRomanPSMT-13"/>
      </g>
     </g>
    </g>
    <g id="ytick_16">
     <g id="line2d_45">
      <path d="M 424.460551 242.407662 
L 686.410622 242.407662 
" clip-path="url(#p8989ca8919)" style="fill: none; stroke: #cccccc; stroke-linecap: round"/>
     </g>
     <g id="text_47">
      <!-- 20 -->
      <g style="fill: #262626" transform="translate(402.960551 246.567818) scale(0.12 -0.12)">
       <use xlink:href="#TimesNewRomanPSMT-15"/>
       <use xlink:href="#TimesNewRomanPSMT-13" transform="translate(50 0)"/>
      </g>
     </g>
    </g>
    <g id="text_48">
     <!-- $\phi$ (rad) -->
     <g style="fill: #262626" transform="translate(389.553676 284.845692) rotate(-90) scale(0.12 -0.12)">
      <defs>
       <path id="DejaVuSans-Oblique-369" d="M 2991 4863 
L 2738 3572 
Q 3363 3572 3684 3094 
Q 4016 2606 3850 1747 
Q 3681 888 3159 400 
Q 2653 -78 2028 -78 
L 1784 -1331 
L 1213 -1331 
L 1456 -78 
Q 834 -78 509 400 
Q 178 888 347 1747 
Q 513 2606 1034 3094 
Q 1544 3572 2166 3572 
L 2419 4863 
L 2991 4863 
z
M 2128 434 
Q 2481 434 2784 756 
Q 3116 1116 3244 1747 
Q 3369 2372 3169 2738 
Q 2991 3059 2638 3059 
L 2128 434 
z
M 1556 434 
L 2066 3059 
Q 1716 3059 1413 2738 
Q 1072 2372 953 1747 
Q 834 1116 1028 756 
Q 1203 434 1556 434 
z
" transform="scale(0.015625)"/>
       <path id="TimesNewRomanPSMT-55" d="M 1038 2947 
L 1038 2303 
Q 1397 2947 1775 2947 
Q 1947 2947 2059 2842 
Q 2172 2738 2172 2600 
Q 2172 2478 2090 2393 
Q 2009 2309 1897 2309 
Q 1788 2309 1652 2417 
Q 1516 2525 1450 2525 
Q 1394 2525 1328 2463 
Q 1188 2334 1038 2041 
L 1038 669 
Q 1038 431 1097 309 
Q 1138 225 1241 169 
Q 1344 113 1538 113 
L 1538 0 
L 72 0 
L 72 113 
Q 291 113 397 181 
Q 475 231 506 341 
Q 522 394 522 644 
L 522 1753 
Q 522 2253 501 2348 
Q 481 2444 426 2487 
Q 372 2531 291 2531 
Q 194 2531 72 2484 
L 41 2597 
L 906 2947 
L 1038 2947 
z
" transform="scale(0.015625)"/>
       <path id="TimesNewRomanPSMT-44" d="M 1822 413 
Q 1381 72 1269 19 
Q 1100 -59 909 -59 
Q 613 -59 420 144 
Q 228 347 228 678 
Q 228 888 322 1041 
Q 450 1253 767 1440 
Q 1084 1628 1822 1897 
L 1822 2009 
Q 1822 2438 1686 2597 
Q 1550 2756 1291 2756 
Q 1094 2756 978 2650 
Q 859 2544 859 2406 
L 866 2225 
Q 866 2081 792 2003 
Q 719 1925 600 1925 
Q 484 1925 411 2006 
Q 338 2088 338 2228 
Q 338 2497 613 2722 
Q 888 2947 1384 2947 
Q 1766 2947 2009 2819 
Q 2194 2722 2281 2516 
Q 2338 2381 2338 1966 
L 2338 994 
Q 2338 584 2353 492 
Q 2369 400 2405 369 
Q 2441 338 2488 338 
Q 2538 338 2575 359 
Q 2641 400 2828 588 
L 2828 413 
Q 2478 -56 2159 -56 
Q 2006 -56 1915 50 
Q 1825 156 1822 413 
z
M 1822 616 
L 1822 1706 
Q 1350 1519 1213 1441 
Q 966 1303 859 1153 
Q 753 1003 753 825 
Q 753 600 887 451 
Q 1022 303 1197 303 
Q 1434 303 1822 616 
z
" transform="scale(0.015625)"/>
       <path id="TimesNewRomanPSMT-47" d="M 2222 322 
Q 2013 103 1813 7 
Q 1613 -88 1381 -88 
Q 913 -88 563 304 
Q 213 697 213 1313 
Q 213 1928 600 2439 
Q 988 2950 1597 2950 
Q 1975 2950 2222 2709 
L 2222 3238 
Q 2222 3728 2198 3840 
Q 2175 3953 2125 3993 
Q 2075 4034 2000 4034 
Q 1919 4034 1784 3984 
L 1744 4094 
L 2597 4444 
L 2738 4444 
L 2738 1134 
Q 2738 631 2761 520 
Q 2784 409 2836 365 
Q 2888 322 2956 322 
Q 3041 322 3181 375 
L 3216 266 
L 2366 -88 
L 2222 -88 
L 2222 322 
z
M 2222 541 
L 2222 2016 
Q 2203 2228 2109 2403 
Q 2016 2578 1861 2667 
Q 1706 2756 1559 2756 
Q 1284 2756 1069 2509 
Q 784 2184 784 1559 
Q 784 928 1059 592 
Q 1334 256 1672 256 
Q 1956 256 2222 541 
z
" transform="scale(0.015625)"/>
      </defs>
      <use xlink:href="#DejaVuSans-Oblique-369" transform="translate(0 0.015625)"/>
      <use xlink:href="#TimesNewRomanPSMT-3" transform="translate(65.966797 0.015625)"/>
      <use xlink:href="#TimesNewRomanPSMT-b" transform="translate(90.966797 0.015625)"/>
      <use xlink:href="#TimesNewRomanPSMT-55" transform="translate(124.267578 0.015625)"/>
      <use xlink:href="#TimesNewRomanPSMT-44" transform="translate(157.568359 0.015625)"/>
      <use xlink:href="#TimesNewRomanPSMT-47" transform="translate(201.953125 0.015625)"/>
      <use xlink:href="#TimesNewRomanPSMT-c" transform="translate(251.953125 0.015625)"/>
     </g>
    </g>
   </g>
   <g id="line2d_46">
    <path d="M 424.460551 267.685692 
L 427.106512 267.654094 
L 429.752472 267.622497 
L 432.398432 267.590899 
L 435.044393 267.559302 
L 437.690353 267.527704 
L 440.336313 267.496106 
L 442.982274 267.464509 
L 445.628234 267.432911 
L 448.274194 267.401314 
L 450.920155 267.369716 
L 453.566115 267.338119 
L 456.212075 267.306521 
L 458.858035 267.274924 
L 461.503996 267.243326 
L 464.149956 267.211729 
L 466.795916 267.180131 
L 469.441877 267.148534 
L 472.087837 267.116936 
L 474.733797 267.085339 
L 477.379758 267.053741 
L 480.025718 267.022143 
L 482.671678 266.990546 
L 485.317639 266.958948 
L 487.963599 266.927351 
L 490.609559 266.895753 
L 493.25552 266.864156 
L 495.90148 266.832558 
L 498.54744 266.800961 
L 501.1934 266.769363 
L 503.839361 266.737766 
L 506.485321 266.706168 
L 509.131281 266.674571 
L 511.777242 266.642973 
L 514.423202 266.611375 
L 517.069162 266.579778 
L 519.715123 266.54818 
L 522.361083 266.516583 
L 525.007043 266.484985 
L 527.653004 266.453388 
L 530.298964 266.42179 
L 532.944924 266.390193 
L 535.590885 266.358595 
L 538.236845 266.326998 
L 540.882805 266.2954 
L 543.528765 266.263803 
L 546.174726 266.232205 
L 548.820686 266.200607 
L 551.466646 266.16901 
L 554.112607 266.137412 
L 556.758567 266.105815 
L 559.404527 266.074217 
L 562.050488 266.04262 
L 564.696448 266.011022 
L 567.342408 265.979425 
L 569.988369 265.947827 
L 572.634329 265.91623 
L 575.280289 265.884632 
L 577.92625 265.853035 
L 580.57221 265.821437 
L 583.21817 265.789839 
L 585.864131 265.758242 
L 588.510091 265.726644 
L 591.156051 265.695047 
L 593.802011 265.663449 
L 596.447972 265.631852 
L 599.093932 265.600254 
L 601.739892 265.568657 
L 604.385853 265.537059 
L 607.031813 265.505462 
L 609.677773 265.473864 
L 612.323734 265.442267 
L 614.969694 265.410669 
L 617.615654 265.379072 
L 620.261615 265.347474 
L 622.907575 265.315876 
L 625.553535 265.284279 
L 628.199496 265.252681 
L 630.845456 265.221084 
L 633.491416 265.189486 
L 636.137376 265.157889 
L 638.783337 265.126291 
L 641.429297 265.094694 
L 644.075257 265.063096 
L 646.721218 265.031499 
L 649.367178 264.999901 
L 652.013138 264.968304 
L 654.659099 264.936706 
L 657.305059 264.905108 
L 659.951019 264.873511 
L 662.59698 264.841913 
L 665.24294 264.810316 
L 667.8889 264.778718 
L 670.534861 264.747121 
L 673.180821 264.715523 
L 675.826781 264.683926 
L 678.472741 264.652328 
L 681.118702 264.620731 
L 683.764662 264.589133 
L 686.410622 264.557536 
" clip-path="url(#p8989ca8919)" style="fill: none; stroke: #008000; stroke-width: 2; stroke-linecap: round"/>
   </g>
   <g id="patch_24">
    <path d="M 424.460551 305.602736 
L 424.460551 229.768647 
" style="fill: none; stroke: #cccccc; stroke-width: 1.25; stroke-linejoin: miter; stroke-linecap: square"/>
   </g>
   <g id="patch_25">
    <path d="M 686.410622 305.602736 
L 686.410622 229.768647 
" style="fill: none; stroke: #cccccc; stroke-width: 1.25; stroke-linejoin: miter; stroke-linecap: square"/>
   </g>
   <g id="patch_26">
    <path d="M 424.460551 305.602736 
L 686.410622 305.602736 
" style="fill: none; stroke: #cccccc; stroke-width: 1.25; stroke-linejoin: miter; stroke-linecap: square"/>
   </g>
   <g id="patch_27">
    <path d="M 424.460551 229.768647 
L 686.410622 229.768647 
" style="fill: none; stroke: #cccccc; stroke-width: 1.25; stroke-linejoin: miter; stroke-linecap: square"/>
   </g>
  </g>
 </g>
 <defs>
  <clipPath id="pb0a84b45d1">
   <rect x="53.389219" y="11.360156" width="294.24258" height="294.24258"/>
  </clipPath>
  <clipPath id="p34444b7b4f">
   <rect x="424.460551" y="11.360156" width="261.950071" height="75.834089"/>
  </clipPath>
  <clipPath id="pa8ecb025b4">
   <rect x="424.460551" y="120.564402" width="261.950071" height="75.834089"/>
  </clipPath>
  <clipPath id="p8989ca8919">
   <rect x="424.460551" y="229.768647" width="261.950071" height="75.834089"/>
  </clipPath>
 </defs>
</svg>
