<?xml version="1.0" encoding="UTF-8" standalone="no"?>
<!-- Created with Inkscape (http://www.inkscape.org/) -->

<svg
   width="160.28893mm"
   height="110.60247mm"
   viewBox="0 0 160.28893 110.60247"
   version="1.1"
   id="svg1"
   xml:space="preserve"
   inkscape:export-filename="robot_esquema.svg"
   inkscape:export-xdpi="96"
   inkscape:export-ydpi="96"
   xmlns:inkscape="http://www.inkscape.org/namespaces/inkscape"
   xmlns:sodipodi="http://sodipodi.sourceforge.net/DTD/sodipodi-0.dtd"
   xmlns:xlink="http://www.w3.org/1999/xlink"
   xmlns="http://www.w3.org/2000/svg"
   xmlns:svg="http://www.w3.org/2000/svg"><sodipodi:namedview
     id="namedview1"
     pagecolor="#ffffff"
     bordercolor="#000000"
     borderopacity="0.25"
     inkscape:showpageshadow="2"
     inkscape:pageopacity="0.0"
     inkscape:pagecheckerboard="0"
     inkscape:deskcolor="#d1d1d1"
     inkscape:document-units="mm"
     showgrid="true"
     showguides="false"
     inkscape:zoom="1.0167041"
     inkscape:cx="325.56179"
     inkscape:cy="515.88265"
     inkscape:window-width="1920"
     inkscape:window-height="1009"
     inkscape:window-x="-8"
     inkscape:window-y="-8"
     inkscape:window-maximized="1"
     inkscape:current-layer="layer1"><inkscape:grid
       id="grid1"
       units="mm"
       originx="-19.723602"
       originy="-70.143684"
       spacingx="0.99999998"
       spacingy="1"
       empcolor="#0099e5"
       empopacity="0.30196078"
       color="#0099e5"
       opacity="0.14901961"
       empspacing="5"
       enabled="true"
       visible="true" /><inkscape:page
       x="0"
       y="0"
       width="160.28893"
       height="110.60247"
       id="page2"
       margin="0"
       bleed="0" /></sodipodi:namedview><defs
     id="defs1"><marker
       style="overflow:visible"
       id="marker11"
       refX="0"
       refY="0"
       orient="auto-start-reverse"
       inkscape:stockid="Triangle arrow"
       markerWidth="1"
       markerHeight="1"
       viewBox="0 0 1 1"
       inkscape:isstock="true"
       inkscape:collect="always"
       preserveAspectRatio="xMidYMid"><path
         transform="scale(0.5)"
         style="fill:context-stroke;fill-rule:evenodd;stroke:context-stroke;stroke-width:1pt"
         d="M 5.77,0 -2.88,5 V -5 Z"
         id="path11" /></marker><marker
       style="overflow:visible"
       id="marker7"
       refX="0"
       refY="0"
       orient="auto-start-reverse"
       inkscape:stockid="Triangle arrow"
       markerWidth="1"
       markerHeight="1"
       viewBox="0 0 1 1"
       inkscape:isstock="true"
       inkscape:collect="always"
       preserveAspectRatio="xMidYMid"><path
         transform="scale(0.5)"
         style="fill:context-stroke;fill-rule:evenodd;stroke:context-stroke;stroke-width:1pt"
         d="M 5.77,0 -2.88,5 V -5 Z"
         id="path7" /></marker><path
       id="MJX-13-NCM-I-1D465"
       d="m 527,373 c 0,46 -45,69 -95,69 -43,0 -77,-23 -103,-69 -21,46 -56,69 -107,69 -49,0 -89,-23 -121,-68 -27,-39 -41,-68 -41,-87 0,-9 5,-14 15,-14 9,0 15,5 17,14 19,58 61,126 128,126 33,0 49,-21 49,-62 0,-21 -18,-99 -53,-233 C 199,51 169,18 126,18 c -14,0 -27,3 -38,8 26,10 39,28 39,54 0,26 -13,39 -40,39 -33,0 -58,-28 -58,-61 0,-46 47,-69 96,-69 42,0 76,23 103,69 19,-46 55,-69 107,-69 48,0 88,23 120,68 27,39 41,68 41,87 0,9 -5,14 -15,14 -9,0 -14,-5 -17,-14 C 447,87 402,18 337,18 c -33,0 -50,20 -50,61 0,13 5,41 16,86 l 34,135 c 19,75 50,113 94,113 14,0 27,-3 38,-8 -27,-9 -40,-27 -40,-54 0,-26 14,-39 41,-39 32,0 57,29 57,61 z" /><path
       id="MJX-13-NCM-N-2C6"
       d="M 386,515 403,533 250,694 97,533 114,515 250,618 Z" /><path
       id="MJX-14-NCM-I-1D466"
       d="M 163,442 C 118,442 83,417 58,367 39,328 29,301 29,286 c 0,-9 5,-14 16,-14 14,0 15,6 19,21 23,79 55,119 96,119 13,0 20,-9 20,-27 0,-16 -5,-39 -16,-68 -38,-103 -57,-172 -57,-209 0,-76 47,-121 124,-121 33,0 64,12 92,36 -35,-132 -90,-198 -165,-198 -34,0 -57,11 -69,33 40,2 60,21 60,57 0,25 -13,38 -40,38 -37,0 -59,-31 -59,-68 0,-55 50,-90 108,-90 115,0 209,106 234,204 l 94,378 c 3,11 4,19 4,24 0,20 -11,30 -32,30 -16,0 -29,-8 -38,-23 -6,-21 -11,-39 -14,-54 L 342,97 C 332,61 279,16 234,16 c -38,0 -57,25 -57,76 0,42 17,106 50,192 13,35 20,59 20,73 0,49 -35,85 -84,85 z" /><path
       id="MJX-14-NCM-N-2C6"
       d="M 386,515 403,533 250,694 97,533 114,515 250,618 Z" /><marker
       style="overflow:visible"
       id="marker7-1"
       refX="0"
       refY="0"
       orient="auto-start-reverse"
       inkscape:stockid="Triangle arrow"
       markerWidth="1"
       markerHeight="1"
       viewBox="0 0 1 1"
       inkscape:isstock="true"
       inkscape:collect="always"
       preserveAspectRatio="xMidYMid"><path
         transform="scale(0.5)"
         style="fill:context-stroke;fill-rule:evenodd;stroke:context-stroke;stroke-width:1pt"
         d="M 5.77,0 -2.88,5 V -5 Z"
         id="path7-4" /></marker><marker
       style="overflow:visible"
       id="marker7-7"
       refX="0"
       refY="0"
       orient="auto-start-reverse"
       inkscape:stockid="Triangle arrow"
       markerWidth="1"
       markerHeight="1"
       viewBox="0 0 1 1"
       inkscape:isstock="true"
       inkscape:collect="always"
       preserveAspectRatio="xMidYMid"><path
         transform="scale(0.5)"
         style="fill:context-stroke;fill-rule:evenodd;stroke:context-stroke;stroke-width:1pt"
         d="M 5.77,0 -2.88,5 V -5 Z"
         id="path7-7" /></marker><path
       id="MJX-17-NCM-I-1D463"
       d="m 369,391 c 0,-8 9,-21 25,-41 16,-20 24,-43 24,-69 0,-29 -14,-78 -43,-147 C 354,86 306,18 247,18 c -46,0 -69,27 -69,82 0,39 19,108 57,207 8,21 12,38 12,50 0,50 -34,85 -84,85 -44,0 -79,-25 -104,-75 -20,-41 -30,-67 -30,-80 0,-9 5,-14 16,-14 13,0 15,6 19,20 23,80 55,120 96,120 13,0 20,-9 20,-28 0,-16 -5,-38 -16,-67 -37,-99 -56,-166 -56,-203 0,-51 17,-86 51,-105 27,-14 55,-21 84,-21 89,0 151,96 177,173 32,94 48,163 48,207 0,49 -16,73 -47,73 -25,0 -52,-26 -52,-51 z" /><path
       id="MJX-19-NCM-I-1D464"
       d="m 590,391 c 0,-9 5,-19 16,-29 23,-22 35,-49 35,-81 0,-17 -6,-44 -18,-83 C 586,78 539,18 482,18 c -47,0 -70,27 -70,82 0,19 4,42 11,71 18,72 37,143 54,216 2,7 3,11 3,14 0,20 -11,30 -33,30 -20,0 -33,-10 -40,-30 L 367,245 c -15,-58 -26,-78 -26,-130 0,-8 0,-14 1,-17 -23,-53 -52,-80 -87,-80 -50,0 -75,29 -75,86 0,37 17,100 51,189 11,30 17,51 17,64 0,49 -36,85 -85,85 -45,0 -79,-25 -104,-75 -20,-39 -30,-66 -30,-80 0,-9 5,-14 16,-14 13,0 15,6 19,20 24,80 56,120 96,120 14,0 21,-10 21,-29 0,-15 -6,-37 -17,-67 -37,-97 -56,-163 -56,-200 0,-85 57,-128 144,-128 42,0 76,21 103,64 20,-43 61,-64 124,-64 62,0 111,41 146,123 23,52 66,190 66,257 0,15 -1,25 -2,30 -4,19 -23,43 -45,43 -26,0 -54,-25 -54,-51 z" /><path
       id="MJX-22-NCM-I-1D719"
       d="m 385,445 c 19,79 39,156 57,235 v 3 c -3,7 -8,11 -16,11 -9,0 -15,-8 -18,-23 L 351,445 C 276,442 208,414 147,362 82,307 49,243 49,170 49,62 132,-7 237,-13 c -19,-79 -33,-136 -42,-170 -1,-3 -1,-6 -1,-7 0,-10 5,-15 16,-15 11,0 14,6 17,18 l 44,173 c 75,3 143,31 204,83 65,56 98,120 98,193 0,107 -85,174 -188,183 m -8,-30 c 76,-5 124,-52 124,-132 0,-40 -9,-80 -27,-119 C 442,92 369,26 278,17 M 121,149 c 0,40 9,80 27,119 32,72 105,137 195,147 L 244,16 C 169,22 121,69 121,149 Z" /></defs><g
     inkscape:label="Camada 1"
     inkscape:groupmode="layer"
     id="layer1"
     transform="translate(-19.723604,-70.143684)"><rect
       style="fill:#a3a3a3;fill-opacity:1;stroke:#000000;stroke-width:0;stroke-linejoin:round;stroke-dasharray:none;stroke-dashoffset:0;stroke-opacity:1"
       id="rect12-9"
       width="156.69249"
       height="107.34335"
       x="23.320045"
       y="73.402794"
       inkscape:export-filename="robot_esquema_mov.svg"
       inkscape:export-xdpi="96"
       inkscape:export-ydpi="96" /><rect
       style="fill:#ffffff;fill-opacity:1;stroke:#000000;stroke-width:0.293628;stroke-linejoin:round;stroke-dasharray:none;stroke-dashoffset:0;stroke-opacity:1"
       id="rect12"
       width="156.69249"
       height="107.34335"
       x="19.870419"
       y="70.290497" /><path
       style="fill:#bfbfbf;fill-opacity:0;stroke:#000000;stroke-width:0.3;stroke-linejoin:round;stroke-dasharray:none;stroke-dashoffset:0;stroke-opacity:1;marker-start:url(#marker11);marker-end:url(#marker7)"
       d="M 48.890906,79.111384 V 174.06306 H 144.21061"
       id="path10"
       sodipodi:nodetypes="ccc" /><g
       data-mml-node="mover"
       data-semantic-type="overscore"
       data-semantic-role="latinletter"
       data-semantic-annotation="depth:1"
       data-semantic-id="2"
       data-semantic-children="0,1"
       data-semantic-attributes="latex:\hat{x};texclass:ORD"
       data-semantic-owns="0 1"
       aria-level="0"
       data-speech-node="true"
       id="g3-8"
       transform="matrix(0.00428144,0,0,-0.00428144,146.20941,174.95282)"
       style="fill:#000000;stroke:#000000;stroke-width:0"><g
         data-mml-node="mi"
         data-latex="x"
         data-semantic-type="identifier"
         data-semantic-role="latinletter"
         data-semantic-font="italic"
         data-semantic-annotation="clearspeak:simple;nemeth:number;depth:2"
         data-semantic-id="0"
         data-semantic-parent="2"
         data-semantic-attributes="latex:x"
         aria-level="1"
         data-speech-node="true"
         id="g1-7"><use
           data-c="1D465"
           xlink:href="#MJX-13-NCM-I-1D465"
           id="use1-4" /></g><g
         data-mml-node="mo"
         data-semantic-type="punctuation"
         data-semantic-role="overaccent"
         data-semantic-annotation="accent:overaccent;depth:2"
         data-semantic-id="1"
         data-semantic-parent="2"
         aria-level="1"
         data-speech-node="true"
         transform="translate(79,32)"
         id="g2-2"><use
           data-c="2C6"
           xlink:href="#MJX-13-NCM-N-2C6"
           id="use2-7" /></g></g><g
       data-mml-node="mover"
       data-semantic-type="overscore"
       data-semantic-role="latinletter"
       data-semantic-annotation="depth:1"
       data-semantic-id="2"
       data-semantic-children="0,1"
       data-semantic-attributes="latex:\hat{y};texclass:ORD"
       data-semantic-owns="0 1"
       aria-level="0"
       data-speech-node="true"
       id="g3-86"
       transform="matrix(0.00428235,0,0,-0.00428235,47.974049,76.033419)"
       style="fill:#000000;stroke:#000000;stroke-width:0"><g
         data-mml-node="mi"
         data-latex="y"
         data-semantic-type="identifier"
         data-semantic-role="latinletter"
         data-semantic-font="italic"
         data-semantic-annotation="clearspeak:simple;nemeth:number;depth:2"
         data-semantic-id="0"
         data-semantic-parent="2"
         data-semantic-attributes="latex:y"
         aria-level="1"
         data-speech-node="true"
         id="g1-5"><use
           data-c="1D466"
           xlink:href="#MJX-14-NCM-I-1D466"
           id="use1-0" /></g><g
         data-mml-node="mo"
         data-semantic-type="punctuation"
         data-semantic-role="overaccent"
         data-semantic-annotation="accent:overaccent;depth:2"
         data-semantic-id="1"
         data-semantic-parent="2"
         aria-level="1"
         data-speech-node="true"
         transform="translate(54,32)"
         id="g2-28"><use
           data-c="2C6"
           xlink:href="#MJX-14-NCM-N-2C6"
           id="use2-6" /></g></g><path
       style="fill:#000000;fill-opacity:1;stroke:#000000;stroke-width:0;stroke-linejoin:round;stroke-opacity:1"
       d="m 73.902868,125.80437 36.018612,10.07546"
       id="path1"
       inkscape:export-filename="diferential_robot.pdf"
       inkscape:export-xdpi="96"
       inkscape:export-ydpi="96" /><path
       style="fill:#ffffff;fill-opacity:1;stroke:#000000;stroke-width:0.63909;stroke-linejoin:round;stroke-dasharray:none;stroke-opacity:1"
       d="m 94.763821,110.55037 -27.999236,26.53216 26.451258,27.91386 27.999227,-26.53213 -1.3342,-25.43682 z"
       id="path2"
       sodipodi:nodetypes="cccccc" /><rect
       style="fill:#373737;fill-opacity:1;stroke:#000000;stroke-width:0.383454;stroke-linejoin:round;stroke-dasharray:none;stroke-opacity:1"
       id="rect2"
       width="3.1164541"
       height="22.137413"
       x="148.7196"
       y="20.103506"
       transform="rotate(46.541091)" /><rect
       style="fill:#373737;fill-opacity:1;stroke:#000000;stroke-width:0.383454;stroke-linejoin:round;stroke-dasharray:none;stroke-opacity:1"
       id="rect2-1"
       width="3.1164541"
       height="22.137413"
       x="177.35619"
       y="20.103506"
       transform="rotate(46.541091)" /><circle
       style="fill:#373737;fill-opacity:1;stroke:#000000;stroke-width:0.383454;stroke-linejoin:round;stroke-dasharray:none;stroke-opacity:1"
       id="path3"
       cx="164.55072"
       cy="4.0689721"
       r="2.7180531"
       transform="rotate(46.541091)" /><path
       style="fill:#373737;fill-opacity:0;stroke:#ff5050;stroke-width:1.07328;stroke-linejoin:round;stroke-dasharray:none;stroke-dashoffset:0;stroke-opacity:1;marker-end:url(#marker7)"
       d="m 90.518622,140.82818 33.424198,-31.7215"
       id="path21"
       sodipodi:nodetypes="cc" /><path
       style="fill:#373737;fill-opacity:0;stroke:#5095ff;stroke-width:0.536638;stroke-linejoin:round;stroke-dasharray:none;stroke-dashoffset:0;stroke-opacity:1;marker-end:url(#marker7-7)"
       d="M 90.720193,140.6722 129.87015,103.36459"
       id="path21-3"
       sodipodi:nodetypes="cc" /><path
       style="fill:#373737;fill-opacity:0;stroke:#6fd6af;stroke-width:1.07328;stroke-linejoin:round;stroke-dasharray:none;stroke-dashoffset:0;stroke-opacity:1;marker-end:url(#marker7-1)"
       d="m 90.651537,140.95288 -31.7215,-33.4242"
       id="path21-7"
       sodipodi:nodetypes="cc" /><circle
       style="fill:#000000;fill-opacity:1;stroke:#000000;stroke-width:0.255636;stroke-linejoin:round;stroke-dasharray:none;stroke-opacity:1"
       id="path3-2"
       cx="164.55072"
       cy="31.172205"
       r="2.7180531"
       transform="rotate(46.541091)" /><path
       style="fill:#ffd8b1;fill-opacity:0;stroke:#ffba74;stroke-width:0.536638;stroke-linejoin:round;stroke-dasharray:none;stroke-dashoffset:0;stroke-opacity:1;marker-start:url(#marker7);marker-end:url(#marker11)"
       d="m 150.81386,114.94162 c 0,0 -1.13679,-10.4603 -10.79272,-18.525899 -9.92508,-8.290426 -20.55436,-8.54278 -20.55436,-8.54278"
       id="path22"
       sodipodi:nodetypes="csc" /><use
       data-c="1D463"
       xlink:href="#MJX-17-NCM-I-1D463"
       id="use1"
       transform="matrix(0.00428079,0,0,-0.00428079,126.47697,101.70908)"
       style="fill:#000000;stroke:#000000;stroke-width:0" /><use
       data-c="1D464"
       xlink:href="#MJX-19-NCM-I-1D464"
       id="use1-9"
       transform="matrix(0.00428211,0,0,-0.00428211,140.83266,94.292626)"
       style="fill:#000000;stroke:#000000;stroke-width:0" /><path
       style="fill:#ffd8b1;fill-opacity:0;stroke:#000000;stroke-width:0.499999;stroke-linejoin:round;stroke-dasharray:2, 2;stroke-dashoffset:0;stroke-opacity:1;marker-start:url(#marker7-7)"
       d="M 131.17029,140.85684 H 49.078074"
       id="path23"
       sodipodi:nodetypes="cc" /><path
       style="fill:#ffd8b1;fill-opacity:0;stroke:#000000;stroke-width:0.499999;stroke-linejoin:round;stroke-dasharray:2, 2;stroke-dashoffset:0;stroke-opacity:1"
       d="m 90.473657,141.39903 v 32.38708"
       id="path23-6"
       sodipodi:nodetypes="cc" /><path
       style="fill:#ffd8b1;fill-opacity:0;stroke:#000000;stroke-width:0.499999;stroke-linejoin:round;stroke-dasharray:none;stroke-dashoffset:0;stroke-opacity:1"
       d="m 128.53439,140.31134 c 0,0 1.2881,-9.06274 -0.50605,-15.04322 -1.79414,-5.98048 -7.26858,-11.96096 -7.26858,-11.96096"
       id="path24"
       sodipodi:nodetypes="csc" /><use
       data-c="1D719"
       xlink:href="#MJX-22-NCM-I-1D719"
       id="use1-01"
       transform="matrix(0.00428039,0,0,-0.00428039,129.56062,124.84156)"
       style="fill:#000000;stroke:#000000;stroke-width:0" /></g></svg>
