<?xml version="1.0" encoding="UTF-8" standalone="no"?>
<!-- Created with Inkscape (http://www.inkscape.org/) -->

<svg
   width="160.28893mm"
   height="110.60247mm"
   viewBox="0 0 160.28893 110.60247"
   version="1.1"
   id="svg1"
   xml:space="preserve"
   inkscape:export-filename="robot_esquema.svg"
   inkscape:export-xdpi="96"
   inkscape:export-ydpi="96"
   xmlns:inkscape="http://www.inkscape.org/namespaces/inkscape"
   xmlns:sodipodi="http://sodipodi.sourceforge.net/DTD/sodipodi-0.dtd"
   xmlns:xlink="http://www.w3.org/1999/xlink"
   xmlns="http://www.w3.org/2000/svg"
   xmlns:svg="http://www.w3.org/2000/svg"><sodipodi:namedview
     id="namedview1"
     pagecolor="#ffffff"
     bordercolor="#000000"
     borderopacity="0.25"
     inkscape:showpageshadow="2"
     inkscape:pageopacity="0.0"
     inkscape:pagecheckerboard="0"
     inkscape:deskcolor="#d1d1d1"
     inkscape:document-units="mm"
     showgrid="true"
     showguides="false"><inkscape:grid
       id="grid1"
       units="mm"
       originx="-19.723602"
       originy="-70.143684"
       spacingx="0.99999998"
       spacingy="1"
       empcolor="#0099e5"
       empopacity="0.30196078"
       color="#0099e5"
       opacity="0.14901961"
       empspacing="5"
       enabled="true"
       visible="true" /><inkscape:page
       x="0"
       y="0"
       width="160.28893"
       height="110.60247"
       id="page2"
       margin="0"
       bleed="0" /></sodipodi:namedview><defs
     id="defs1"><marker
       style="overflow:visible"
       id="marker5"
       refX="0"
       refY="0"
       orient="auto-start-reverse"
       inkscape:stockid="Triangle arrow"
       markerWidth="1"
       markerHeight="1"
       viewBox="0 0 1 1"
       inkscape:isstock="true"
       inkscape:collect="always"
       preserveAspectRatio="xMidYMid"><path
         transform="scale(0.5)"
         style="fill:context-stroke;fill-rule:evenodd;stroke:context-stroke;stroke-width:1pt"
         d="M 5.77,0 -2.88,5 V -5 Z"
         id="path5" /></marker><marker
       style="overflow:visible"
       id="Triangle"
       refX="0"
       refY="0"
       orient="auto-start-reverse"
       inkscape:stockid="Triangle arrow"
       markerWidth="1"
       markerHeight="1"
       viewBox="0 0 1 1"
       inkscape:isstock="true"
       inkscape:collect="always"
       preserveAspectRatio="xMidYMid"><path
         transform="scale(0.5)"
         style="fill:context-stroke;fill-rule:evenodd;stroke:context-stroke;stroke-width:1pt"
         d="M 5.77,0 -2.88,5 V -5 Z"
         id="path135" /></marker><path
       id="MJX-12-NCM-I-1D451"
       d="M 429,632 370,389 c -21,37 -50,56 -89,56 C 216,445 159,412 109,345 63,283 40,218 40,151 40,63 91,-11 175,-11 c 43,0 85,23 125,70 11,-38 45,-70 92,-70 69,0 91,82 106,156 0,9 -5,14 -15,14 -9,0 -15,-7 -18,-21 C 445,59 421,19 394,19 c -17,0 -26,14 -26,41 0,15 2,31 6,47 l 142,572 v 4 c -3,7 -9,11 -17,11 -23,0 -65,-4 -125,-11 -11,-1 -17,-9 -17,-23 0,-10 9,-15 27,-15 19,0 45,1 45,-13 M 341,376 c 10,-21 15,-35 15,-44 -1,-4 -2,-9 -3,-16 L 304,122 C 301,111 294,99 285,87 248,42 212,19 177,19 c -39,0 -59,30 -59,89 0,24 6,60 18,108 21,85 51,143 88,174 20,17 39,25 58,25 27,0 47,-13 59,-39 z" /><path
       id="MJX-8-NCM-I-1D445"
       d="m 739,531 c 0,51 -26,90 -77,118 -41,23 -90,34 -145,34 H 235 c -23,0 -33,-1 -33,-24 0,-7 3,-12 9,-13 10,-1 18,-2 23,-2 30,-1 47,-3 52,-4 5,-1 8,-4 8,-9 0,-2 -1,-8 -4,-18 L 158,82 C 153,60 143,46 128,41 121,39 103,38 72,38 50,38 41,37 41,15 41,4 47,-1 59,0 L 183,3 309,0 c 16,-1 24,8 24,23 0,10 -11,15 -32,15 -40,0 -60,5 -60,14 0,0 1,2 3,16 l 64,259 h 115 c 69,0 104,-29 104,-86 0,-9 -5,-31 -14,-67 -11,-42 -16,-70 -16,-85 0,-76 59,-111 135,-111 28,0 55,13 82,38 27,25 41,52 41,80 0,10 -5,15 -16,15 -7,0 -13,-5 -16,-16 C 712,64 698,41 682,28 666,15 651,8 636,8 c -23,0 -35,19 -35,56 0,24 3,61 10,112 3,21 4,36 4,47 0,53 -28,92 -84,116 94,23 208,90 208,192 m -130,85 c 20,-13 30,-35 30,-66 0,-20 -4,-43 -13,-70 C 599,398 531,357 422,357 H 316 l 63,253 c 5,21 13,32 24,33 5,1 25,1 60,1 65,0 103,-2 146,-28 z" /><path
       id="MJX-14-NCM-I-1D463"
       d="m 369,391 c 0,-8 9,-21 25,-41 16,-20 24,-43 24,-69 0,-29 -14,-78 -43,-147 C 354,86 306,18 247,18 c -46,0 -69,27 -69,82 0,39 19,108 57,207 8,21 12,38 12,50 0,50 -34,85 -84,85 -44,0 -79,-25 -104,-75 -20,-41 -30,-67 -30,-80 0,-9 5,-14 16,-14 13,0 15,6 19,20 23,80 55,120 96,120 13,0 20,-9 20,-28 0,-16 -5,-38 -16,-67 -37,-99 -56,-166 -56,-203 0,-51 17,-86 51,-105 27,-14 55,-21 84,-21 89,0 151,96 177,173 32,94 48,163 48,207 0,49 -16,73 -47,73 -25,0 -52,-26 -52,-51 z" /><path
       id="MJX-14-NCM-I-1D43F"
       d="m 520,667 c 0,11 -7,16 -20,16 l -146,-3 -131,3 c -15,1 -23,-7 -23,-24 0,-7 3,-12 9,-13 9,-1 17,-2 22,-2 31,-1 48,-3 53,-4 5,-1 8,-4 8,-9 0,-2 -1,-8 -4,-18 L 156,82 C 150,60 140,47 125,42 119,40 101,39 70,39 49,39 39,31 39,15 39,5 49,0 70,0 h 457 c 25,0 27,0 34,19 l 78,214 c 3,7 4,12 4,15 0,10 -5,15 -16,15 -10,0 -15,-9 -20,-23 C 588,191 570,154 555,131 518,75 455,39 363,39 h -93 c -11,0 -18,0 -21,1 -7,0 -10,2 -10,5 0,2 2,9 5,22 l 133,534 c 6,23 19,36 38,41 6,1 27,2 63,2 28,0 42,0 42,23 z" /><path
       id="MJX-15-NCM-I-1D463"
       d="m 369,391 c 0,-8 9,-21 25,-41 16,-20 24,-43 24,-69 0,-29 -14,-78 -43,-147 C 354,86 306,18 247,18 c -46,0 -69,27 -69,82 0,39 19,108 57,207 8,21 12,38 12,50 0,50 -34,85 -84,85 -44,0 -79,-25 -104,-75 -20,-41 -30,-67 -30,-80 0,-9 5,-14 16,-14 13,0 15,6 19,20 23,80 55,120 96,120 13,0 20,-9 20,-28 0,-16 -5,-38 -16,-67 -37,-99 -56,-166 -56,-203 0,-51 17,-86 51,-105 27,-14 55,-21 84,-21 89,0 151,96 177,173 32,94 48,163 48,207 0,49 -16,73 -47,73 -25,0 -52,-26 -52,-51 z" /><path
       id="MJX-15-NCM-I-1D445"
       d="m 739,531 c 0,51 -26,90 -77,118 -41,23 -90,34 -145,34 H 235 c -23,0 -33,-1 -33,-24 0,-7 3,-12 9,-13 10,-1 18,-2 23,-2 30,-1 47,-3 52,-4 5,-1 8,-4 8,-9 0,-2 -1,-8 -4,-18 L 158,82 C 153,60 143,46 128,41 121,39 103,38 72,38 50,38 41,37 41,15 41,4 47,-1 59,0 L 183,3 309,0 c 16,-1 24,8 24,23 0,10 -11,15 -32,15 -40,0 -60,5 -60,14 0,0 1,2 3,16 l 64,259 h 115 c 69,0 104,-29 104,-86 0,-9 -5,-31 -14,-67 -11,-42 -16,-70 -16,-85 0,-76 59,-111 135,-111 28,0 55,13 82,38 27,25 41,52 41,80 0,10 -5,15 -16,15 -7,0 -13,-5 -16,-16 C 712,64 698,41 682,28 666,15 651,8 636,8 c -23,0 -35,19 -35,56 0,24 3,61 10,112 3,21 4,36 4,47 0,53 -28,92 -84,116 94,23 208,90 208,192 m -130,85 c 20,-13 30,-35 30,-66 0,-20 -4,-43 -13,-70 C 599,398 531,357 422,357 H 316 l 63,253 c 5,21 13,32 24,33 5,1 25,1 60,1 65,0 103,-2 146,-28 z" /><path
       id="MJX-16-NCM-I-1D43C"
       d="m 497,667 c 0,11 -6,16 -19,16 l -129,-3 -131,3 c -16,1 -24,-7 -24,-24 0,-10 11,-15 32,-15 43,0 64,-5 64,-14 0,-5 -1,-10 -2,-15 L 155,82 C 150,60 140,47 125,42 118,40 100,39 69,39 44,39 34,38 34,15 34,5 40,0 53,0 L 181,3 313,0 c 16,-1 24,7 24,23 0,16 -12,16 -34,16 -39,0 -63,-2 -63,14 0,5 1,12 4,22 l 132,527 c 5,21 15,34 30,39 7,2 25,3 56,3 24,0 35,1 35,23 z" /><path
       id="MJX-16-NCM-N-2062"
       d="" /><path
       id="MJX-16-NCM-I-1D436"
       d="m 148,218 c 0,128 56,258 119,330 51,59 139,118 238,118 104,0 155,-79 155,-187 0,-9 -3,-41 -3,-50 0,-9 6,-14 19,-14 5,0 9,1 12,2 5,7 8,14 10,21 l 62,253 c 0,9 -5,14 -15,14 -4,0 -10,-4 -18,-13 L 662,619 C 623,676 568,705 497,705 442,705 388,692 333,667 222,615 141,533 89,421 63,366 50,310 50,253 50,173 75,108 126,56 177,4 242,-22 322,-22 c 79,0 151,29 216,86 27,23 50,51 69,82 27,45 41,76 41,95 0,9 -5,14 -16,14 -9,0 -14,-4 -16,-13 C 595,177 562,125 517,88 460,41 400,17 338,17 218,17 148,98 148,218 Z" /><path
       id="MJX-16-NCM-I-1D445"
       d="m 739,531 c 0,51 -26,90 -77,118 -41,23 -90,34 -145,34 H 235 c -23,0 -33,-1 -33,-24 0,-7 3,-12 9,-13 10,-1 18,-2 23,-2 30,-1 47,-3 52,-4 5,-1 8,-4 8,-9 0,-2 -1,-8 -4,-18 L 158,82 C 153,60 143,46 128,41 121,39 103,38 72,38 50,38 41,37 41,15 41,4 47,-1 59,0 L 183,3 309,0 c 16,-1 24,8 24,23 0,10 -11,15 -32,15 -40,0 -60,5 -60,14 0,0 1,2 3,16 l 64,259 h 115 c 69,0 104,-29 104,-86 0,-9 -5,-31 -14,-67 -11,-42 -16,-70 -16,-85 0,-76 59,-111 135,-111 28,0 55,13 82,38 27,25 41,52 41,80 0,10 -5,15 -16,15 -7,0 -13,-5 -16,-16 C 712,64 698,41 682,28 666,15 651,8 636,8 c -23,0 -35,19 -35,56 0,24 3,61 10,112 3,21 4,36 4,47 0,53 -28,92 -84,116 94,23 208,90 208,192 m -130,85 c 20,-13 30,-35 30,-66 0,-20 -4,-43 -13,-70 C 599,398 531,357 422,357 H 316 l 63,253 c 5,21 13,32 24,33 5,1 25,1 60,1 65,0 103,-2 146,-28 z" /></defs><g
     inkscape:label="Camada 1"
     inkscape:groupmode="layer"
     id="layer1"
     transform="translate(-19.723604,-70.143684)"><rect
       style="fill:#a3a3a3;fill-opacity:1;stroke:#000000;stroke-width:0;stroke-linejoin:round;stroke-dasharray:none;stroke-dashoffset:0;stroke-opacity:1"
       id="rect12-9"
       width="156.69249"
       height="107.34335"
       x="23.320045"
       y="73.402794"
       inkscape:export-filename="robot_esquema.svg"
       inkscape:export-xdpi="96"
       inkscape:export-ydpi="96" /><rect
       style="fill:#ffffff;fill-opacity:1;stroke:#000000;stroke-width:0.293628;stroke-linejoin:round;stroke-dasharray:none;stroke-dashoffset:0;stroke-opacity:1"
       id="rect12"
       width="156.69249"
       height="107.34335"
       x="19.870419"
       y="70.290497" /><g
       id="g14"
       transform="translate(-0.1467961,0.6891026)"><path
         style="fill:#000000;fill-opacity:1;stroke:#000000;stroke-width:0;stroke-linejoin:round;stroke-opacity:1"
         d="m 115.72253,145.50801 37.68666,-22.5391"
         id="path1"
         inkscape:export-filename="diferential_robot.pdf"
         inkscape:export-xdpi="96"
         inkscape:export-ydpi="96" /><path
         style="fill:#ffffff;fill-opacity:1;stroke:#000000;stroke-width:0.750347;stroke-linejoin:round;stroke-dasharray:none;stroke-opacity:1"
         d="m 119.58572,115.41294 -0.0245,45.2886 45.15052,0.0245 0.0245,-45.28857 -22.74503,-19.417475 z"
         id="path2"
         sodipodi:nodetypes="cccccc" /><rect
         style="fill:#373737;fill-opacity:1;stroke:#000000;stroke-width:0.450208;stroke-linejoin:round;stroke-dasharray:none;stroke-opacity:1"
         id="rect2"
         width="3.658989"
         height="25.991253"
         x="123.51431"
         y="130.4342"
         transform="rotate(0.0310343)" /><rect
         style="fill:#373737;fill-opacity:1;stroke:#000000;stroke-width:0.450208;stroke-linejoin:round;stroke-dasharray:none;stroke-opacity:1"
         id="rect2-1"
         width="3.658989"
         height="25.991253"
         x="157.13617"
         y="130.4342"
         transform="rotate(0.0310343)" /><circle
         style="fill:#373737;fill-opacity:1;stroke:#000000;stroke-width:0.450208;stroke-linejoin:round;stroke-dasharray:none;stroke-opacity:1"
         id="path3"
         cx="142.10141"
         cy="111.60828"
         r="3.191231"
         transform="rotate(0.0310343)" /><circle
         style="fill:#000000;fill-opacity:1;stroke:#000000;stroke-width:0.300139;stroke-linejoin:round;stroke-dasharray:none;stroke-opacity:1"
         id="path3-2"
         cx="141.80864"
         cy="143.42999"
         r="3.191231"
         transform="rotate(0.0310343)" /><circle
         style="fill:#000000;fill-opacity:1;stroke:#000000;stroke-width:0.158445;stroke-linejoin:round;stroke-dasharray:none;stroke-opacity:1"
         id="path3-2-9"
         cx="41.209759"
         cy="143.59862"
         r="1.6846665"
         transform="rotate(0.0310343)" /><path
         style="fill:#bfbfbf;fill-opacity:1;stroke:#000000;stroke-width:0.3;stroke-linejoin:round;stroke-dasharray:none;stroke-opacity:1;marker-start:url(#Triangle);marker-end:url(#marker5)"
         d="m 140.91111,155.92605 -12.47509,-0.007"
         id="path4"
         sodipodi:nodetypes="cc" /><use
         data-c="1D451"
         xlink:href="#MJX-12-NCM-I-1D451"
         id="use1-8"
         transform="matrix(0.00417369,-9.4868453e-4,-9.4868453e-4,-0.00417369,133.66407,154.68061)"
         style="fill:#000000;stroke:#000000;stroke-width:0" /><path
         style="fill:#373737;fill-opacity:1;stroke:#000000;stroke-width:0.5;stroke-linejoin:round;stroke-dasharray:none;stroke-dashoffset:0;stroke-opacity:1"
         d="M 42.897788,143.50679 H 138.4015"
         id="path12" /><path
         style="fill:#373737;fill-opacity:0;stroke:#000000;stroke-width:0.5;stroke-linejoin:round;stroke-dasharray:none;stroke-dashoffset:0;stroke-opacity:1;marker-end:url(#marker5)"
         d="m 141.8288,143.39021 c 0,0 1.76301,-18.23823 0.78454,-27.04449 -2.21201,-19.908082 -10.5434,-29.556908 -10.5434,-29.556908"
         id="path13"
         sodipodi:nodetypes="csc" /><path
         style="fill:#373737;fill-opacity:0;stroke:#000000;stroke-width:0.499999;stroke-linejoin:round;stroke-dasharray:none;stroke-dashoffset:0;stroke-opacity:1;marker-start:url(#marker5);marker-end:url(#marker5)"
         d="M 45.151003,140.26738 130.38532,92.465604"
         id="path14"
         sodipodi:nodetypes="cc" /><use
         data-c="1D445"
         xlink:href="#MJX-8-NCM-I-1D445"
         id="use1"
         transform="matrix(0.00428109,0,0,-0.00428109,86.064288,113.63735)"
         style="fill:#000000;stroke:#000000;stroke-width:0" /><g
         data-mml-node="msub"
         data-latex="v_{L}"
         data-semantic-type="subscript"
         data-semantic-role="latinletter"
         data-semantic-annotation="depth:1"
         data-semantic-id="2"
         data-semantic-children="0,1"
         data-semantic-attributes="latex:v_{L}"
         data-semantic-owns="0 1"
         aria-level="0"
         data-speech-node="true"
         id="g4"
         transform="matrix(0.00428071,0,0,-0.00428071,123.12232,127.99301)"
         style="fill:#000000;stroke:#000000;stroke-width:0"><g
           data-mml-node="mi"
           data-latex="v"
           data-semantic-type="identifier"
           data-semantic-role="latinletter"
           data-semantic-font="italic"
           data-semantic-annotation="clearspeak:simple;nemeth:number;depth:2"
           data-semantic-id="0"
           data-semantic-parent="2"
           data-semantic-attributes="latex:v"
           aria-level="1"
           data-speech-node="true"
           id="g1"><use
             data-c="1D463"
             xlink:href="#MJX-14-NCM-I-1D463"
             id="use1-7" /></g><g
           data-mml-node="TeXAtom"
           transform="matrix(0.707,0,0,0.707,518,-150)"
           data-mjx-texclass="ORD"
           data-latex="{L}"
           id="g3"><g
             data-mml-node="mi"
             data-latex="L"
             data-semantic-type="identifier"
             data-semantic-role="latinletter"
             data-semantic-font="italic"
             data-semantic-annotation="clearspeak:simple;depth:2"
             data-semantic-id="1"
             data-semantic-parent="2"
             data-semantic-attributes="latex:{L};texclass:ORD"
             aria-level="1"
             data-speech-node="true"
             id="g2"><use
               data-c="1D43F"
               xlink:href="#MJX-14-NCM-I-1D43F"
               id="use2" /></g></g></g><g
         data-mml-node="msub"
         data-latex="v_{R}"
         data-semantic-type="subscript"
         data-semantic-role="latinletter"
         data-semantic-annotation="depth:1"
         data-semantic-id="2"
         data-semantic-children="0,1"
         data-semantic-attributes="latex:v_{R}"
         data-semantic-owns="0 1"
         aria-level="0"
         data-speech-node="true"
         id="g4-3"
         transform="matrix(0.00428119,0,0,-0.00428119,156.57443,127.95979)"
         style="fill:#000000;stroke:#000000;stroke-width:0"><g
           data-mml-node="mi"
           data-latex="v"
           data-semantic-type="identifier"
           data-semantic-role="latinletter"
           data-semantic-font="italic"
           data-semantic-annotation="clearspeak:simple;nemeth:number;depth:2"
           data-semantic-id="0"
           data-semantic-parent="2"
           data-semantic-attributes="latex:v"
           aria-level="1"
           data-speech-node="true"
           id="g1-6"><use
             data-c="1D463"
             xlink:href="#MJX-15-NCM-I-1D463"
             id="use1-1" /></g><g
           data-mml-node="TeXAtom"
           transform="matrix(0.707,0,0,0.707,518,-150)"
           data-mjx-texclass="ORD"
           data-latex="{R}"
           id="g3-5"><g
             data-mml-node="mi"
             data-latex="R"
             data-semantic-type="identifier"
             data-semantic-role="latinletter"
             data-semantic-font="italic"
             data-semantic-annotation="clearspeak:simple;depth:2"
             data-semantic-id="1"
             data-semantic-parent="2"
             data-semantic-attributes="latex:{R};texclass:ORD"
             aria-level="1"
             data-speech-node="true"
             id="g2-4"><use
               data-c="1D445"
               xlink:href="#MJX-15-NCM-I-1D445"
               id="use2-2" /></g></g></g><g
         data-mml-node="math"
         data-latex="ICR"
         data-semantic-type="infixop"
         data-semantic-role="implicit"
         data-semantic-annotation="clearspeak:unit;depth:1"
         data-semantic-id="5"
         data-semantic-children="0,1,2"
         data-semantic-content="3,4"
         data-semantic-attributes="latex:ICR"
         data-semantic-owns="0 3 1 4 2"
         aria-level="0"
         data-speech-node="true"
         data-semantic-structure="(5 0 3 1 4 2)"
         id="g6"
         transform="matrix(0.00428163,0,0,-0.00428163,31.46993,137.15401)"
         style="fill:#000000;stroke:#000000;stroke-width:0"><g
           data-mml-node="mi"
           data-latex="I"
           data-semantic-type="identifier"
           data-semantic-role="latinletter"
           data-semantic-font="italic"
           data-semantic-annotation="clearspeak:simple;nemeth:number;depth:2"
           data-semantic-id="0"
           data-semantic-parent="5"
           data-semantic-attributes="latex:I"
           aria-level="1"
           data-speech-node="true"
           id="g1-9"><use
             data-c="1D43C"
             xlink:href="#MJX-16-NCM-I-1D43C"
             id="use1-73" /></g><g
           data-mml-node="mo"
           data-semantic-type="operator"
           data-semantic-role="multiplication"
           data-semantic-annotation="depth:2"
           data-semantic-id="3"
           data-semantic-parent="5"
           data-semantic-added="true"
           data-semantic-operator="infixop,⁢"
           aria-level="1"
           data-speech-node="true"
           transform="translate(497)"
           id="g2-7"><use
             data-c="2062"
             xlink:href="#MJX-16-NCM-N-2062"
             id="use2-26" /></g><g
           data-mml-node="mi"
           data-latex="C"
           data-semantic-type="identifier"
           data-semantic-role="latinletter"
           data-semantic-font="italic"
           data-semantic-annotation="clearspeak:simple;depth:2"
           data-semantic-id="1"
           data-semantic-parent="5"
           data-semantic-attributes="latex:C"
           aria-level="1"
           data-speech-node="true"
           transform="translate(497)"
           id="g3-0"><use
             data-c="1D436"
             xlink:href="#MJX-16-NCM-I-1D436"
             id="use3" /></g><g
           data-mml-node="mo"
           data-semantic-type="operator"
           data-semantic-role="multiplication"
           data-semantic-annotation="depth:2"
           data-semantic-id="4"
           data-semantic-parent="5"
           data-semantic-added="true"
           data-semantic-operator="infixop,⁢"
           aria-level="1"
           data-speech-node="true"
           transform="translate(1257)"
           id="g4-1"><use
             data-c="2062"
             xlink:href="#MJX-16-NCM-N-2062"
             id="use4" /></g><g
           data-mml-node="mi"
           data-latex="R"
           data-semantic-type="identifier"
           data-semantic-role="latinletter"
           data-semantic-font="italic"
           data-semantic-annotation="clearspeak:simple;depth:2"
           data-semantic-id="2"
           data-semantic-parent="5"
           data-semantic-attributes="latex:R"
           aria-level="1"
           data-speech-node="true"
           transform="translate(1257)"
           id="g5"><use
             data-c="1D445"
             xlink:href="#MJX-16-NCM-I-1D445"
             id="use5" /></g></g></g></g></svg>
